<svg clip-rule="evenodd" fill-rule="evenodd" stroke-linejoin="round" stroke-miterlimit="1.41421" viewBox="0 0 245 231" xmlns="http://www.w3.org/2000/svg"><path d="m122.15 15.465c-1.528 0-2.546-1.019-2.546-2.546v-10.183c0-1.528 1.018-2.546 2.546-2.546s2.546 1.018 2.546 2.546v10.183c0 1.528-1.018 2.546-2.546 2.546z" fill="#6c9abb" fill-rule="nonzero"/><path d="m61.74 134.155h120.819v84.573h-120.819z" fill="#2567c5"/><path d="m182.56 164.359h-120.82v10.874c4.833 2.114 10.874 1.51 15.103-1.812 5.135 3.926 12.988 3.926 18.123 0 5.135 3.926 12.988 3.926 18.123 0 5.134 3.926 12.988 3.926 18.122 0 5.135 3.926 12.988 3.926 18.123 0 5.135 3.926 12.988 3.926 18.123 0 4.229 3.322 10.27 3.926 15.103 1.812z" fill="#0d428c" fill-rule="nonzero"/><path d="m188.601 221.748v9.062h-132.902v-9.062c0-3.322 2.719-6.041 6.041-6.041h120.82c3.322.001 6.041 2.719 6.041 6.041z" fill="#99b4cd" fill-rule="nonzero"/><path d="m153.193 227.789v-12.081h-3.021v15.102h38.429v-3.021z" fill="#6c9abb" fill-rule="nonzero"/><path d="m89.103 215.708v12.081h-33.404v3.021h36.425v-3.021-12.081z" fill="#6c9abb" fill-rule="nonzero"/><path d="m176.883 221.748h-16.623c-1.812 0-3.02-1.208-3.02-3.02s1.208-3.02 3.02-3.02h16.623c1.812 0 3.021 1.208 3.021 3.02s-1.209 3.02-3.021 3.02z" fill="#b0c4d9" fill-rule="nonzero"/><path d="m182.56 134.155h-120.82c-1.812 0-3.02-1.209-3.02-3.021v-6.041c0-1.812 1.208-3.02 3.02-3.02h120.82c1.812 0 3.02 1.208 3.02 3.02v6.041c0 1.812-1.208 3.021-3.02 3.021z" fill="#99b4cd" fill-rule="nonzero"/><path d="m182.56 125.093v3.021c0 1.812-1.209 3.02-3.021 3.02h-117.799c-1.812 0-2.114 3.02 0 3.02h120.82c1.812 0 3.02-1.208 3.02-3.02v-6.041c0-2.114-3.02-1.812-3.02 0z" fill="#6c9abb" fill-rule="nonzero"/><path d="m61.74 134.155h120.819v3.02h-120.819z" fill="#0d428c"/><path d="m102.517 125.093h-39.266c-.906 0-1.511-.604-1.511-1.51s.605-1.51 1.511-1.51h39.266c.906 0 1.51.604 1.51 1.51s-.604 1.51-1.51 1.51z" fill="#b0c4d9" fill-rule="nonzero"/><path d="m123.66 125.093h-15.102c-.906 0-1.51-.604-1.51-1.51s.604-1.51 1.51-1.51h15.102c.906 0 1.51.604 1.51 1.51s-.604 1.51-1.51 1.51z" fill="#b0c4d9" fill-rule="nonzero"/><path d="m173.498 188.523h6.041v3.02h-6.041z" fill="#0d428c"/><path d="m173.498 209.667h6.041v3.02h-6.041z" fill="#0d428c"/><path d="m119.13 212.687h6.041v3.02h-6.041z" fill="#0d428c"/><path d="m170.478 182.482h6.041v3.02h-6.041z" fill="#0d428c"/><path d="m107.048 212.687h6.041v3.02h-6.041z" fill="#0d428c"/><path d="m110.068 182.482h6.041v3.02h-6.041z" fill="#0d428c"/><path d="m64.761 194.564h6.041v3.02h-6.041z" fill="#0d428c"/><path d="m107.048 185.503h6.041v3.02h-6.041z" fill="#0d428c"/><path d="m170.478 191.544h6.041v3.02h-6.041z" fill="#0d428c"/><path d="m153.171 179.504h6.041v3.02h-6.041z" fill="#0d428c"/><path d="m150.151 182.525h6.041v3.02h-6.041z" fill="#0d428c"/><path d="m160.964 204.36h6.041v3.02h-6.041z" fill="#0d428c"/><path d="m86.035 202.85h6.041v3.02h-6.041z" fill="#0d428c"/><path d="m83.014 199.83h6.041v3.02h-6.041z" fill="#0d428c"/><path d="m70.929 182.482h6.041v3.02h-6.041z" fill="#0d428c"/><path d="m70.929 191.544h6.041v3.02h-6.041z" fill="#0d428c"/><path d="m92.124 164.359h58.049v66.451h-58.049z" fill="#eceff9"/><path d="m97.458 167.38h47.38v24.164h-47.38z" fill="#70b7e5"/><path d="m97.458 194.564h47.38v27.184h-47.38z" fill="#70b7e5"/><path d="m143.244 176.15c-4.215.888-8.723-.021-12.033-2.729-5.134 3.926-12.988 3.926-18.122 0-1.813 1.51-3.927 2.114-6.041 2.718l-.05.011c-4.214.888-8.723-.021-12.032-2.729-.864.66-1.804 1.21-2.796 1.648-.068-6.639-.254-10.701-.254-10.71h58.366c0 .007-.053 1.639-.006 9.719-.323-.205-.637-.424-.942-.657-1.812 1.51-3.927 2.114-6.041 2.718z" fill="#d4e3ee" fill-rule="nonzero"/><path d="m143.244 176.15c-4.215.888-8.723-.021-12.033-2.729-5.134 3.926-12.988 3.926-18.122 0-1.813 1.51-3.927 2.114-6.041 2.718l-.05.011c-3.223.679-6.618.307-9.518-1.117.043-1.24-.022-10.674-.022-10.674h52.824c0 .007-.053 1.639-.006 9.719-.323-.205-.637-.424-.942-.657-1.812 1.51-3.927 2.114-6.041 2.718z" fill="#4b9cd6" fill-rule="nonzero"/><path d="m122.15 221.748h-6.041l9.062-27.184h6.041z" fill="#acd6f2" fill-rule="nonzero"/><path d="m128.191 221.748h-3.02l9.061-27.184h3.02z" fill="#acd6f2" fill-rule="nonzero"/><path d="m97.458 194.564h47.38v3.02h-47.38z" fill="#4c9cd6"/><g fill-rule="nonzero"><path d="m122.15 191.544h-6.041l9.062-27.185h6.041z" fill="#acd6f2"/><path d="m136.251 197.585.906-3.021h-3.021l-.906 3.021z" fill="#70b7e5"/><path d="m130.21 197.585.906-3.021h-6.041l-.906 3.021z" fill="#70b7e5"/><path d="m124.169 167.38-2.983 8.948c2.114 0 4.191-.189 6.305-.793l2.719-8.155z" fill="#70b7e5"/><path d="m128.191 191.544h-3.02l9.061-27.185h3.02z" fill="#acd6f2"/><path d="m133.23 167.38-2.018 6.041c.941.604 1.568 1.208 2.51 1.51l2.51-7.551z" fill="#70b7e5"/><path d="m185.58 158.318h-126.86l12.082-18.122h102.696z" fill="#f6b546"/><path d="m94.966 158.318h-18.123l9.061-18.122h15.103z" fill="#fff"/><path d="m149.334 158.318h18.123l-9.061-18.122h-15.103z" fill="#fff"/><path d="m131.211 158.318h-18.122l3.02-18.122h12.082z" fill="#fff"/><path d="m58.72 158.318v9.062c5.135 3.926 12.988 3.926 18.123 0h18.122c5.135 3.926 12.988 3.926 18.123 0h18.123c5.135 3.926 12.988 3.926 18.123 0h18.123c5.135 3.926 12.988 3.926 18.123 0v-9.062z" fill="#f19920"/><path d="m76.843 158.318v9.062c5.135 3.926 12.988 3.926 18.123 0v-9.062z" fill="#b0c4d9"/><path d="m113.089 158.318v9.062c5.134 3.926 12.988 3.926 18.122 0v-9.062z" fill="#b0c4d9"/><path d="m149.334 158.318v9.062c5.135 3.926 12.988 3.926 18.123 0v-9.062z" fill="#b0c4d9"/><path d="m149.334 158.318h-3.02l-5.437-18.122h2.416z" fill="#f19920"/><path d="m113.089 158.318h-3.021l3.625-18.122h2.416z" fill="#f19920"/><path d="m76.843 158.318h-3.021l9.666-18.122h2.416z" fill="#f19920"/><path d="m185.58 158.318h-3.02l-11.478-18.122h2.416z" fill="#f19920"/><path d="m167.457 158.318h-3.02l-8.458-18.122h2.417z" fill="#d4e3ee"/><path d="m131.211 158.318h-3.02l-2.416-18.122h2.416z" fill="#d4e3ee"/><path d="m94.966 158.318h-3.021l6.645-18.122h2.417z" fill="#d4e3ee"/><path d="m146.314 158.318v5.437c0 2.417-1.51 4.833-3.927 5.739-1.208.302-2.416.604-3.624.906 3.624.302 7.551-.604 10.571-3.02v-9.062z" fill="#e27800"/><path d="m182.56 158.318v5.437c0 2.417-1.511 4.833-3.927 5.739-1.208.302-2.416.604-3.625.906 3.625.302 7.552-.604 10.572-3.02v-9.062z" fill="#e27800"/><path d="m164.437 158.318v5.437c0 2.417-1.511 4.833-3.927 5.739-1.208.302-2.416.604-3.625.906 3.625.302 7.552-.604 10.572-3.02v-9.062z" fill="#99b5cd"/><path d="m110.068 158.318v5.437c0 2.417-1.51 4.833-3.926 5.739-1.209.302-2.417.604-3.625.906 3.625.302 7.551-.604 10.572-3.02v-9.062z" fill="#e27800"/><path d="m128.191 158.318v5.437c0 2.417-1.51 4.833-3.927 5.739-1.208.302-2.416.604-3.624.906 3.624.302 7.551-.604 10.571-3.02v-9.062z" fill="#99b5cd"/><path d="m73.822 158.318v5.437c0 2.417-1.51 4.833-3.926 5.739-1.209.302-2.417.604-3.625.906 3.625.302 7.551-.604 10.572-3.02v-9.062z" fill="#e27800"/><path d="m91.945 158.318v5.437c0 2.417-1.51 4.833-3.926 5.739-1.209.302-2.417.604-3.625.906 3.625.302 7.551-.604 10.571-3.02v-9.062z" fill="#99b5cd"/><path d="m147.07 3.771h-49.841c-1.527 0-2.545 1.019-2.545 2.546v5.092c0 1.527-1.019 2.546-2.546 2.546h60.024c-1.528 0-2.546-1.019-2.546-2.546v-5.092c0-1.527-1.018-2.546-2.546-2.546z" fill="#99b4cd"/><path d="m149.616 11.409v-5.092c0-1.527-1.018-2.546-2.545-2.546h-7.638c1.528 0 2.546 1.019 2.546 2.546v5.092c0 1.527 1.018 2.546 2.546 2.546h7.637c-1.528 0-2.546-1.019-2.546-2.546z" fill="#6c9abb"/></g><path d="m61.149 28.947h120.819v93.126h-120.819z" fill="#2567c5"/><path d="m70.211 85.827h6.041v3.02h-6.041z" fill="#0d428c"/><path d="m67.19 88.848h6.041v3.02h-6.041z" fill="#0d428c"/><path d="m169.888 105.446v-27.27h-96.657v27.27h-3.02v4.545h102.697v-4.545z" fill="#eceff9" fill-rule="nonzero"/><path d="m76.252 81.249h90.614v22.701h-90.614z" fill="#70b7e5"/><path d="m136.661 103.95h-9.061l8.255-22.701h9.061z" fill="#acd6f2" fill-rule="nonzero"/><path d="m142.702 103.95h-3.02l8.215-22.701h3.021z" fill="#acd6f2" fill-rule="nonzero"/><path d="m70.211 109.991h102.696v3.02h-102.696z" fill="#0d428c"/><path d="m169.888 64.77v-27.271h-96.657v27.271h-3.02v4.545h102.697v-4.545z" fill="#eceff9" fill-rule="nonzero"/><path d="m76.252 40.573h90.614v22.701h-90.614z" fill="#70b7e5"/><path d="m136.661 63.274h-9.061l8.255-22.701h9.061z" fill="#acd6f2" fill-rule="nonzero"/><path d="m142.702 63.274h-3.02l8.215-22.701h3.021z" fill="#acd6f2" fill-rule="nonzero"/><path d="m70.211 69.315h102.696v3.02h-102.696z" fill="#0d428c"/><path d="m181.968 25.926h-120.819c-1.812 0-3.02-1.208-3.02-3.02v-6.041c0-1.812 1.208-3.02 3.02-3.02h120.82c1.812 0 3.02 1.208 3.02 3.02v6.041c0 1.812-1.208 3.02-3.021 3.02z" fill="#99b4cd" fill-rule="nonzero"/><path d="m181.968 16.865v3.02c0 1.813-1.208 3.021-3.02 3.021h-117.799c-1.812 0-2.114 3.02 0 3.02h120.82c1.812 0 3.02-1.208 3.02-3.02v-6.041c0-2.114-3.021-1.812-3.021 0z" fill="#6c9abb" fill-rule="nonzero"/><path d="m61.149 25.926h120.819v3.02h-120.819z" fill="#0d428c"/><path d="m101.926 16.865h-39.266c-.907 0-1.511-.604-1.511-1.51s.604-1.51 1.511-1.51h39.266c.906 0 1.51.604 1.51 1.51s-.604 1.51-1.51 1.51z" fill="#b0c4d9" fill-rule="nonzero"/><path d="m123.069 16.865h-15.102c-.907 0-1.511-.604-1.511-1.51s.604-1.51 1.511-1.51h15.102c.906 0 1.51.604 1.51 1.51s-.604 1.51-1.51 1.51z" fill="#b0c4d9" fill-rule="nonzero"/><path d="m172.907 91.868h6.041v3.02h-6.041z" fill="#0d428c"/><path d="m172.907 113.011h6.041v3.02h-6.041z" fill="#0d428c"/><path d="m118.539 116.032h6.041v3.02h-6.041z" fill="#0d428c"/><path d="m169.887 85.827h6.041v3.02h-6.041z" fill="#0d428c"/><path d="m106.456 116.032h6.041v3.02h-6.041z" fill="#0d428c"/><path d="m64.17 97.909h6.041v3.02h-6.041z" fill="#0d428c"/><path d="m169.887 94.889h6.041v3.02h-6.041z" fill="#0d428c"/></svg>