<svg clip-rule="evenodd" fill-rule="evenodd" stroke-linejoin="round" stroke-miterlimit="1.41421" viewBox="0 0 245 231" xmlns="http://www.w3.org/2000/svg"><path d="m122.15 25.4c-2.203 0-3.671-1.469-3.671-3.671v-14.685c0-2.203 1.468-3.672 3.671-3.672s3.671 1.469 3.671 3.672v14.685c0 2.203-1.468 3.671-3.671 3.671z" fill="#6c9abb" fill-rule="nonzero"/><path d="m158.088 9.427h-71.876c-2.203 0-3.671 1.468-3.671 3.671v11.012c0 2.202-1.469 3.671-3.671 3.671h86.561c-2.203 0-3.672-1.469-3.672-3.671v-11.012c0-2.203-1.468-3.671-3.671-3.671z" fill="#99b4cd" fill-rule="nonzero"/><path d="m161.759 24.11v-11.012c0-2.203-1.468-3.671-3.671-3.671h-11.014c2.203 0 3.672 1.468 3.672 3.671v11.012c0 2.202 1.468 3.671 3.671 3.671h11.014c-2.203 0-3.672-1.469-3.672-3.671z" fill="#6c9abb" fill-rule="nonzero"/><path d="m11.084 49.921h222.133v155.493h-222.133z" fill="#2567c5"/><path d="m211.003 172.094v-66.639h-99.96v66.639h-5.553v11.107h111.066v-11.107z" fill="#eceff9" fill-rule="nonzero"/><path d="m233.216 105.455h-222.132v19.992c8.885 3.887 19.992 2.776 27.766-3.332 9.441 7.219 23.88 7.219 33.32 0 9.441 7.219 23.879 7.219 33.32 0 9.441 7.219 23.879 7.219 33.32 0 9.441 7.219 23.879 7.219 33.32 0 9.44 7.219 23.879 7.219 33.32 0 7.774 6.108 18.881 7.219 27.766 3.332z" fill="#0d428c" fill-rule="nonzero"/><path d="m244.323 210.967v16.66h-244.346v-16.66c0-6.108 4.998-11.106 11.107-11.106h222.133c6.108 0 11.106 4.998 11.106 11.106z" fill="#99b4cd" fill-rule="nonzero"/><path d="m27.744 105.455h66.64v122.173h-66.64z" fill="#eceff9"/><path d="m116.597 111.008h88.853v61.086h-88.853z" fill="#70b7e5"/><path d="m149.917 172.094h-16.66l22.213-61.086h16.66z" fill="#acd6f2" fill-rule="nonzero"/><path d="m161.023 172.094h-5.553l22.213-61.086h5.553z" fill="#acd6f2" fill-rule="nonzero"/><path d="m116.597 144.328h88.853v5.553h-88.853z" fill="#4c9cd6"/><path d="m141.586 149.881h16.66l1.666-5.553h-16.659z" fill="#70b7e5" fill-rule="nonzero"/><path d="m169.353 149.881 1.666-5.553h-5.553l-1.666 5.553z" fill="#70b7e5" fill-rule="nonzero"/><path d="m38.85 111.008h44.427v44.427h-44.427z" fill="#70b7e5"/><path d="m38.85 160.988h44.427v49.98h-44.427z" fill="#70b7e5"/><path d="m116.597 138.775h88.853v5.553h-88.853z" fill="#eceff9"/><path d="m99.937 222.074v-22.213h-5.554v27.767h149.94v-5.554z" fill="#6c9abb" fill-rule="nonzero"/><path d="m22.19 199.861v22.213h-22.213v5.554h27.767v-5.554-22.213z" fill="#6c9abb" fill-rule="nonzero"/><path d="m105.49 183.201h111.066v5.553h-111.066z" fill="#0d428c"/><path d="m177.683 210.967h-66.64c-3.332 0-5.553-2.221-5.553-5.553s2.222-5.553 5.553-5.553h66.64c3.332 0 5.553 2.222 5.553 5.553 0 3.332-2.221 5.553-5.553 5.553z" fill="#b0c4d9" fill-rule="nonzero"/><path d="m38.85 122.115c9.441 7.219 23.88 7.219 33.32 0 6.109 4.998 14.439 6.664 22.213 4.998v-21.658h-66.639v21.658c3.887-1.111 7.774-2.222 11.106-4.998z" fill="#d4e3ee" fill-rule="nonzero"/><path d="m211.003 105.455h-99.96v19.992c8.885 3.887 19.992 2.776 27.767-3.332 9.441 7.219 23.879 7.219 33.32 0 9.44 7.219 23.879 7.219 33.32 0 1.666 1.11 3.332 2.221 5.553 3.332z" fill="#d4e3ee" fill-rule="nonzero"/><path d="m38.85 122.115c9.441 7.219 23.88 7.219 33.32 0 3.332 2.776 7.219 3.887 11.107 4.998v-16.105h-44.427z" fill="#4c9cd6" fill-rule="nonzero"/><path d="m116.597 111.008v16.104c7.775 1.666 16.104 0 22.213-4.998 9.441 7.219 23.879 7.219 33.32 0 9.44 7.219 23.879 7.219 33.32 0v-11.107h-88.853z" fill="#4c9cd6" fill-rule="nonzero"/><path d="m178.238 125.446 4.998-14.438h-5.553l-4.442 11.662c1.665 1.111 3.331 2.221 4.997 2.776z" fill="#70b7e5" fill-rule="nonzero"/><path d="m167.132 124.891 4.998-13.883h-16.66l-5.553 16.104c5.553 1.111 11.661.556 17.215-2.221z" fill="#70b7e5" fill-rule="nonzero"/><path d="m233.216 49.921h-222.132c-3.332 0-5.553-2.221-5.553-5.553v-11.106c0-3.333 2.221-5.554 5.553-5.554h222.133c3.332 0 5.553 2.222 5.553 5.554v11.106c0 3.332-2.222 5.553-5.554 5.553z" fill="#99b4cd" fill-rule="nonzero"/><path d="m233.216 33.262v5.553c0 3.332-2.221 5.553-5.553 5.553h-216.579c-3.332 0-3.887 5.553 0 5.553h222.133c3.332 0 5.553-2.222 5.553-5.553v-11.106c0-3.888-5.554-3.333-5.554 0z" fill="#6c9abb" fill-rule="nonzero"/><path d="m11.084 49.921h222.133v5.553h-222.133z" fill="#0d428c"/><path d="m86.054 33.262h-72.194c-1.666 0-2.776-1.111-2.776-2.777s1.11-2.777 2.776-2.777h72.194c1.666 0 2.776 1.111 2.776 2.777s-1.11 2.777-2.776 2.777z" fill="#b0c4d9" fill-rule="nonzero"/><path d="m124.927 33.262h-27.767c-1.666 0-2.777-1.111-2.777-2.777s1.111-2.777 2.777-2.777h27.767c1.666 0 2.776 1.111 2.776 2.777s-1.11 2.777-2.776 2.777z" fill="#b0c4d9" fill-rule="nonzero"/><path d="m216.556 149.881h11.107v5.553h-11.107z" fill="#0d428c"/><path d="m216.556 188.754h11.107v5.553h-11.107z" fill="#0d428c"/><path d="m116.597 194.307h11.107v5.553h-11.107z" fill="#0d428c"/><path d="m211.003 138.775h11.107v5.553h-11.107z" fill="#0d428c"/><path d="m94.383 194.307h11.107v5.553h-11.107z" fill="#0d428c"/><path d="m99.937 138.775h11.107v5.553h-11.107z" fill="#0d428c"/><path d="m16.637 160.988h11.107v5.553h-11.107z" fill="#0d428c"/><path d="m94.383 144.328h11.107v5.553h-11.107z" fill="#0d428c"/><path d="m211.003 155.434h11.107v5.553h-11.107z" fill="#0d428c"/><path d="m55.51 210.967h-11.106l16.66-49.979h11.106z" fill="#acd6f2" fill-rule="nonzero"/><path d="m66.617 210.967h-5.553l16.659-49.979h5.554z" fill="#acd6f2" fill-rule="nonzero"/><path d="m38.85 160.988h44.427v5.553h-44.427z" fill="#4c9cd6"/><g fill-rule="nonzero"><path d="m81.611 166.541 1.666-5.553h-5.554l-1.666 5.553z" fill="#70b7e5"/><path d="m70.504 166.541 1.666-5.553h-11.106l-1.667 5.553z" fill="#70b7e5"/><path d="m55.51 155.434h-11.106l16.66-49.979h11.106z" fill="#acd6f2"/><path d="m66.617 155.434h-5.553l16.659-49.979h5.554z" fill="#acd6f2"/><path d="m76.057 111.008-3.887 11.107c1.666 1.11 2.777 2.221 4.443 2.776l4.443-13.883z" fill="#70b7e5"/><path d="m59.397 111.008-5.553 16.66c3.887 0 7.775-.556 11.662-1.666l4.998-14.994z" fill="#70b7e5"/><path d="m238.77 94.348h-233.24l22.214-33.32h188.812z" fill="#f6b546"/><path d="m72.17 94.348h-33.32l16.66-33.32h27.767z" fill="#fff"/><path d="m172.13 94.348h33.32l-16.66-33.32h-27.767z" fill="#fff"/><path d="m138.81 94.348h-33.32l5.553-33.32h22.214z" fill="#fff"/><path d="m5.53 94.348v16.66c9.441 7.219 23.879 7.219 33.32 0h33.32c9.441 7.219 23.879 7.219 33.32 0h33.319c9.441 7.219 23.88 7.219 33.32 0h33.32c9.441 7.219 23.879 7.219 33.32 0v-16.66z" fill="#f19920"/><path d="m38.85 94.348v16.66c9.441 7.219 23.88 7.219 33.32 0v-16.66z" fill="#b0c4d9"/><path d="m105.49 94.348v16.66c9.441 7.219 23.879 7.219 33.32 0v-16.66z" fill="#b0c4d9"/><path d="m172.13 94.348v16.66c9.44 7.219 23.879 7.219 33.32 0v-16.66z" fill="#b0c4d9"/><path d="m172.13 94.348h-5.553l-9.997-33.32h4.443z" fill="#f19920"/><path d="m105.49 94.348h-5.553l6.664-33.32h4.442z" fill="#f19920"/><path d="m38.85 94.348h-5.553l17.771-33.32h4.442z" fill="#f19920"/><path d="m238.77 94.348h-5.554l-21.102-33.32h4.442z" fill="#f19920"/><path d="m205.45 94.348h-5.554l-15.549-33.32h4.443z" fill="#d4e3ee"/><path d="m138.81 94.348h-5.553l-4.443-33.32h4.443z" fill="#d4e3ee"/><path d="m72.17 94.348h-5.553l12.217-33.32h4.443z" fill="#d4e3ee"/><path d="m166.577 94.348v9.996c0 4.442-2.777 8.885-7.22 10.551-2.221.556-4.442 1.111-6.664 1.666 6.664.556 13.884-1.11 19.437-5.553v-16.66z" fill="#e27800"/><path d="m233.216 94.348v9.996c0 4.442-2.776 8.885-7.219 10.551-2.222.556-4.443 1.111-6.664 1.666 6.664.556 13.883-1.11 19.436-5.553v-16.66z" fill="#e27800"/><path d="m199.896 94.348v9.996c0 4.442-2.776 8.885-7.219 10.551-2.221.556-4.442 1.111-6.664 1.666 6.664.556 13.883-1.11 19.437-5.553v-16.66z" fill="#99b5cd"/><path d="m99.937 94.348v9.996c0 4.442-2.777 8.885-7.219 10.551-2.222.556-4.443 1.111-6.664 1.666 6.664.556 13.883-1.11 19.436-5.553v-16.66z" fill="#e27800"/><path d="m133.257 94.348v9.996c0 4.442-2.777 8.885-7.219 10.551-2.222.556-4.443 1.111-6.665 1.666 6.665.556 13.884-1.11 19.437-5.553v-16.66z" fill="#99b5cd"/><path d="m33.297 94.348v9.996c0 4.442-2.777 8.885-7.219 10.551-2.222.556-4.443 1.111-6.664 1.666 6.664.556 13.883-1.11 19.436-5.553v-16.66z" fill="#e27800"/><path d="m66.617 94.348v9.996c0 4.442-2.777 8.885-7.22 10.551-2.221.556-4.442 1.111-6.664 1.666 6.664.556 13.884-1.11 19.437-5.553v-16.66z" fill="#99b5cd"/></g></svg>