<?xml version="1.0" encoding="UTF-8" standalone="no"?><!DOCTYPE svg PUBLIC "-//W3C//DTD SVG 1.1//EN" "http://www.w3.org/Graphics/SVG/1.1/DTD/svg11.dtd"><svg width="100%" height="100%" viewBox="0 0 1684 1684" version="1.1" xmlns="http://www.w3.org/2000/svg" xmlns:xlink="http://www.w3.org/1999/xlink" xml:space="preserve" xmlns:serif="http://www.serif.com/" style="fill-rule:evenodd;clip-rule:evenodd;stroke-linejoin:round;stroke-miterlimit:2;"><circle cx="840.471" cy="840.363" r="840.362" style="fill:#fff;"/><path d="M1235.76,555.985l-168.87,-180.511l-396.179,0c-16.179,0 -29.315,13.136 -29.315,29.315l-0,825.309c-0,16.18 13.136,29.315 29.315,29.315l535.734,0c16.18,0 29.315,-13.135 29.315,-29.315l0,-674.113Z" style="fill:#eceff9;"/><path d="M1235.79,651.928l0.5,-95.943l-89.439,0l88.939,95.943Z" style="fill:#d5dfea;"/><path d="M637.238,820.369c28.654,-10.273 59.427,-16.117 91.475,-16.7l-0,-46.79l26.014,-0l-0,47.479c60.839,4.35 116.456,27.686 160.964,64.111l20.348,-20.347l-6.405,-6.404c-9.207,-9.207 -9.207,-24.156 -0,-33.362c9.206,-9.207 24.155,-9.207 33.362,-0l51.229,51.23c9.207,9.206 9.207,24.155 0,33.361c-9.206,9.207 -24.155,9.207 -33.361,0l-8.215,-8.215l-19.99,19.99c42.696,50.131 68.471,115.086 68.471,186.015c0,63.274 -20.512,121.796 -55.234,169.256l-328.658,-0l0,-439.624Zm169.136,-90.902c0,-13.866 -11.257,-25.123 -25.123,-25.123l-100.729,-0c-13.866,-0 -25.123,11.257 -25.123,25.123c-0,13.866 11.257,25.123 25.123,25.123l100.729,0c13.866,0 25.123,-11.257 25.123,-25.123Z" style="fill:#d5dfea;"/><path d="M1235.76,555.985c2.444,0 -168.87,-181.475 -168.87,-180.511l-0,126.774c-0,29.658 24.079,53.737 53.738,53.737l115.132,0Z" style="fill:#99b4cd;"/><path d="M1048.97,1112.42c0,-5.373 -4.361,-9.734 -9.734,-9.734l-164.815,-0c-5.372,-0 -9.734,4.361 -9.734,9.734c0,5.372 4.362,9.734 9.734,9.734l164.815,-0c5.373,-0 9.734,-4.362 9.734,-9.734Zm75.076,-0c-0,-5.373 -4.362,-9.734 -9.734,-9.734l-34.973,-0c-5.372,-0 -9.734,4.361 -9.734,9.734c-0,5.372 4.362,9.734 9.734,9.734l34.973,-0c5.372,-0 9.734,-4.362 9.734,-9.734Zm-130.569,-60.404c-0,-5.373 -4.362,-9.735 -9.735,-9.735l-71.614,0c-5.373,0 -9.734,4.362 -9.734,9.735c-0,5.372 4.361,9.734 9.734,9.734l71.614,-0c5.373,-0 9.735,-4.362 9.735,-9.734Zm149.6,-0c0,-5.373 -4.361,-9.735 -9.734,-9.735l-109.677,0c-5.373,0 -9.734,4.362 -9.734,9.735c-0,5.372 4.361,9.734 9.734,9.734l109.677,-0c5.373,-0 9.734,-4.362 9.734,-9.734Zm-297.812,-0c-0,-5.373 -4.362,-9.735 -9.735,-9.735l-110.979,0c-5.373,0 -9.734,4.362 -9.734,9.735c-0,5.372 4.361,9.734 9.734,9.734l110.979,-0c5.373,-0 9.735,-4.362 9.735,-9.734Zm261.029,-60.387c-0,-5.373 -4.362,-9.735 -9.734,-9.735l-72.536,0c-5.372,0 -9.734,4.362 -9.734,9.735c0,5.372 4.362,9.734 9.734,9.734l72.536,-0c5.372,-0 9.734,-4.362 9.734,-9.734Zm-112.459,-0c-0,-5.373 -4.362,-9.735 -9.734,-9.735l-145.906,0c-5.372,0 -9.734,4.362 -9.734,9.735c-0,5.372 4.362,9.734 9.734,9.734l145.906,-0c5.372,-0 9.734,-4.362 9.734,-9.734Zm-187.415,-0c0,-5.373 -4.361,-9.735 -9.734,-9.735l-73.32,0c-5.373,0 -9.735,4.362 -9.735,9.735c0,5.372 4.362,9.734 9.735,9.734l73.32,-0c5.373,-0 9.734,-4.362 9.734,-9.734Zm39.181,-60.376c0,-5.372 -4.361,-9.734 -9.734,-9.734l-112.501,-0c-5.373,-0 -9.735,4.362 -9.735,9.734c0,5.373 4.362,9.734 9.735,9.734l112.501,0c5.373,0 9.734,-4.361 9.734,-9.734Zm203.728,0c-0,-5.372 -4.362,-9.734 -9.734,-9.734l-164.815,-0c-5.373,-0 -9.735,4.362 -9.735,9.734c0,5.373 4.362,9.734 9.735,9.734l164.815,0c5.372,0 9.734,-4.361 9.734,-9.734Zm75.075,0c0,-5.372 -4.361,-9.734 -9.734,-9.734l-34.973,-0c-5.372,-0 -9.734,4.362 -9.734,9.734c0,5.373 4.362,9.734 9.734,9.734l34.973,0c5.373,0 9.734,-4.361 9.734,-9.734Zm19.032,-60.404c-0,-5.373 -4.362,-9.734 -9.734,-9.734l-109.678,-0c-5.372,-0 -9.734,4.361 -9.734,9.734c0,5.372 4.362,9.734 9.734,9.734l109.678,0c5.372,0 9.734,-4.362 9.734,-9.734Zm-149.601,-0c-0,-5.373 -4.362,-9.734 -9.734,-9.734l-71.615,-0c-5.372,-0 -9.734,4.361 -9.734,9.734c-0,5.372 4.362,9.734 9.734,9.734l71.615,0c5.372,0 9.734,-4.362 9.734,-9.734Zm-110.617,-0c-0,-5.373 -4.362,-9.734 -9.734,-9.734l-150.118,-0c-5.373,-0 -9.735,4.361 -9.735,9.734c0,5.372 4.362,9.734 9.735,9.734l150.118,0c5.372,0 9.734,-4.362 9.734,-9.734Zm259.712,-63.138c-0,-5.373 -4.362,-9.735 -9.735,-9.735l-35.075,0c-5.372,0 -9.734,4.362 -9.734,9.735c-0,5.372 4.362,9.734 9.734,9.734l35.075,-0c5.373,-0 9.735,-4.362 9.735,-9.734Zm-75.206,-0c-0,-5.373 -4.362,-9.735 -9.734,-9.735l-184.754,0c-5.373,0 -9.734,4.362 -9.734,9.735c-0,5.372 4.361,9.734 9.734,9.734l184.754,-0c5.372,-0 9.734,-4.362 9.734,-9.734Zm-223.645,-0c0,-5.373 -4.361,-9.735 -9.734,-9.735l-110.979,0c-5.373,0 -9.735,4.362 -9.735,9.735c0,5.372 4.362,9.734 9.735,9.734l110.979,-0c5.373,-0 9.734,-4.362 9.734,-9.734Zm261.03,-60.387c-0,-5.373 -4.362,-9.735 -9.735,-9.735l-72.535,0c-5.373,0 -9.734,4.362 -9.734,9.735c-0,5.372 4.361,9.734 9.734,9.734l72.535,-0c5.373,-0 9.735,-4.362 9.735,-9.734Zm-112.459,-0c-0,-5.373 -4.362,-9.735 -9.735,-9.735l-145.905,0c-5.373,0 -9.734,4.362 -9.734,9.735c-0,5.372 4.361,9.734 9.734,9.734l145.905,-0c5.373,-0 9.735,-4.362 9.735,-9.734Zm-187.415,-0c0,-5.373 -4.362,-9.735 -9.734,-9.735l-73.321,0c-5.372,0 -9.734,4.362 -9.734,9.735c0,5.372 4.362,9.734 9.734,9.734l73.321,-0c5.372,-0 9.734,-4.362 9.734,-9.734Zm39.181,-60.376c0,-5.372 -4.362,-9.734 -9.734,-9.734l-112.502,-0c-5.372,-0 -9.734,4.362 -9.734,9.734c0,5.373 4.362,9.734 9.734,9.734l112.502,0c5.372,0 9.734,-4.361 9.734,-9.734Zm203.727,0c0,-5.372 -4.361,-9.734 -9.734,-9.734l-164.815,-0c-5.372,-0 -9.734,4.362 -9.734,9.734c0,5.373 4.362,9.734 9.734,9.734l164.815,0c5.373,0 9.734,-4.361 9.734,-9.734Zm75.076,0c0,-5.372 -4.362,-9.734 -9.734,-9.734l-34.973,-0c-5.372,-0 -9.734,4.362 -9.734,9.734c-0,5.373 4.362,9.734 9.734,9.734l34.973,0c5.372,0 9.734,-4.361 9.734,-9.734Zm19.031,-60.404c0,-5.373 -4.361,-9.734 -9.734,-9.734l-109.677,-0c-5.373,-0 -9.734,4.361 -9.734,9.734c-0,5.372 4.361,9.734 9.734,9.734l109.677,0c5.373,0 9.734,-4.362 9.734,-9.734Zm-149.6,-0c-0,-5.373 -4.362,-9.734 -9.735,-9.734l-71.614,-0c-5.373,-0 -9.734,4.361 -9.734,9.734c-0,5.372 4.361,9.734 9.734,9.734l71.614,0c5.373,0 9.735,-4.362 9.735,-9.734Zm-110.617,-0c-0,-5.373 -4.362,-9.734 -9.735,-9.734l-150.118,-0c-5.372,-0 -9.734,4.361 -9.734,9.734c0,5.372 4.362,9.734 9.734,9.734l150.118,0c5.373,0 9.735,-4.362 9.735,-9.734Zm148.679,-80.292c0,-5.372 -4.361,-9.734 -9.734,-9.734l-166.828,-0c-5.372,-0 -9.734,4.362 -9.734,9.734c0,5.373 4.362,9.734 9.734,9.734l166.828,0c5.373,0 9.734,-4.361 9.734,-9.734Z" style="fill:#3d545f;"/><path d="M709.926,792.944c12.158,0 22.028,-9.87 22.028,-22.027l0,-66.188c0,-12.158 -9.87,-22.028 -22.028,-22.028c-12.157,0 -22.027,9.87 -22.027,22.028l-0,66.188c-0,12.157 9.87,22.027 22.027,22.027Z" style="fill:#4885d0;"/><path d="M731.954,775.574l0,-49.156l-44.055,0l-0,22.809l21.246,0l0,26.347l22.809,0Z" style="fill:#05448c;"/><path d="M549.762,879.037c8.859,-8.859 8.859,-23.243 0,-32.101l-41.1,-41.101c-8.859,-8.858 -23.243,-8.858 -32.101,0c-8.859,8.859 -8.859,23.243 -0,32.101l41.1,41.101c8.859,8.858 23.243,8.858 32.101,-0Z" style="fill:#05448c;"/><path d="M868.858,877.696c8.858,8.859 23.242,8.859 32.101,0l41.1,-41.1c8.859,-8.859 8.859,-23.243 0,-32.101c-8.858,-8.859 -23.242,-8.859 -32.101,-0l-41.1,41.1c-8.859,8.859 -8.859,23.243 -0,32.101Z" style="fill:#05448c;"/><path d="M710.881,772.671c145.696,-0 263.983,118.287 263.983,263.983c0,145.696 -118.287,263.983 -263.983,263.983c-145.696,-0 -263.983,-118.287 -263.983,-263.983c0,-145.696 118.287,-263.983 263.983,-263.983Zm256.374,82.388c8.072,-8.072 8.072,-21.18 -0,-29.252l-44.92,-44.921c-8.073,-8.072 -21.18,-8.072 -29.253,0c-8.073,8.073 -8.073,21.181 0,29.253l44.92,44.92c8.073,8.073 21.18,8.073 29.253,0Zm-440.129,-74.419c-8.073,-8.073 -21.181,-8.073 -29.253,-0l-44.92,44.92c-8.073,8.072 -8.073,21.18 -0,29.253c8.072,8.072 21.18,8.072 29.252,-0l44.921,-44.92c8.072,-8.073 8.072,-21.181 -0,-29.253Zm248.987,-75.947c-0,-12.157 -9.871,-22.027 -22.028,-22.027l-88.317,-0c-12.158,-0 -22.028,9.87 -22.028,22.027c0,12.158 9.87,22.028 22.028,22.028l88.317,0c12.157,0 22.028,-9.87 22.028,-22.028Z" style="fill:#1f6ac5;"/><path d="M728.939,695.801c0,-6.007 -4.877,-10.885 -10.884,-10.885l-43.642,0c-6.007,0 -10.884,4.878 -10.884,10.885c-0,6.008 4.877,10.885 10.884,10.885l43.642,-0c6.007,-0 10.884,-4.877 10.884,-10.885Z" style="fill:#4885d0;"/><circle cx="708.02" cy="1040.27" r="223.024" style="fill:#d5dfea;"/><path d="M566.491,1212.59c-35.2,-39.436 -56.604,-91.443 -56.604,-148.409c-0,-123.09 99.933,-223.024 223.024,-223.024c53.716,0 103.023,19.032 141.529,50.709c35.2,39.437 56.604,91.443 56.604,148.409c0,123.09 -99.933,223.024 -223.024,223.024c-53.716,-0 -103.023,-19.032 -141.529,-50.709Z" style="fill:#fff;"/><path d="M708.537,861.151c0.511,-0.005 1.029,-0.008 1.548,-0.008c52.645,0 99.962,22.995 132.453,59.489l-130.131,126.318l-3.87,-185.799Z" style="fill:#e2e7f0;"/><path d="M887.378,1039.86c-0.159,20.383 -3.765,39.951 -10.263,58.144l-6.261,15.243c-10.269,22.011 -24.926,41.569 -42.846,57.55l-135.301,-132.103l194.671,1.166Z" style="fill:#c9d5e3;"/><path d="M836.859,914.544c31.255,31.977 50.525,75.705 50.525,123.899c-0,0.528 -0.002,1.056 -0.008,1.576l-180.135,1.079l129.618,-126.554Z" style="fill:#d5dfea;"/><path d="M679.451,981.078c-8.369,-8.368 -21.958,-8.368 -30.326,0c-8.369,8.369 -8.369,21.958 -0,30.327l154.35,154.351c8.369,8.369 21.958,8.369 30.327,-0c8.369,-8.369 8.369,-21.958 0,-30.327l-154.351,-154.351Z" style="fill:#f29820;"/><path d="M645.891,985.216c0.918,1.592 2.058,3.092 3.42,4.453l154.35,154.351c8.369,8.369 21.958,8.369 30.327,-0c1.271,-1.271 2.349,-2.663 3.233,-4.137c-0.917,-1.592 -2.057,-3.092 -3.419,-4.454l-154.351,-154.351c-8.369,-8.368 -21.958,-8.368 -30.326,0c-1.272,1.272 -2.35,2.663 -3.234,4.138Z" style="fill:#f7b446;"/><path d="M708.02,1194.97c12.009,0 21.759,9.75 21.759,21.759c0,12.009 -9.75,21.759 -21.759,21.759c-12.008,-0 -21.758,-9.75 -21.758,-21.759c-0,-12.009 9.75,-21.759 21.758,-21.759Zm0,-200.115c24.593,-0 44.558,19.966 44.558,44.558c0,24.592 -19.965,44.558 -44.558,44.558c-24.592,-0 -44.558,-19.966 -44.558,-44.558c0,-24.592 19.966,-44.558 44.558,-44.558Zm-177.446,23.084c12.009,-0 21.759,9.749 21.759,21.758c-0,12.009 -9.75,21.759 -21.759,21.759c-12.009,-0 -21.758,-9.75 -21.758,-21.759c-0,-12.009 9.749,-21.758 21.758,-21.758Zm354.717,-0.356c12.009,0 21.759,9.75 21.759,21.759c-0,12.009 -9.75,21.759 -21.759,21.759c-12.009,-0 -21.758,-9.75 -21.758,-21.759c-0,-12.009 9.749,-21.759 21.758,-21.759Zm-177.271,-177.621c12.009,-0 21.759,9.749 21.759,21.758c0,12.009 -9.75,21.759 -21.759,21.759c-12.008,-0 -21.758,-9.75 -21.758,-21.759c-0,-12.009 9.75,-21.758 21.758,-21.758Z" style="fill:#05448c;"/><path d="M667.281,1057.47c-2.454,-5.521 -3.819,-11.634 -3.819,-18.062c0,-24.592 19.966,-44.558 44.558,-44.558c6.424,-0 12.532,1.362 18.05,3.813c2.454,5.521 3.819,11.633 3.819,18.062c-0,24.592 -19.966,44.558 -44.559,44.558c-6.423,-0 -12.531,-1.362 -18.049,-3.813Z" style="fill:#1f6ac5;"/><circle cx="697.155" cy="1028.18" r="10.865" style="fill:#4885d0;"/><path d="M852.49,1259.43l-91.444,36.439c33.09,-6.377 63.986,-18.94 91.444,-36.439Zm-147.303,-486.695l3.042,-0.062l-12.593,20.008c-125.321,7.675 -225.414,109.308 -230.649,235.254l-18.074,11.423c-0.01,-0.896 -0.015,-1.799 -0.015,-2.702c0,-143.788 115.208,-260.879 258.289,-263.921Z" style="fill:#4885d0;"/><path d="M969.981,985.906c3.205,16.432 4.883,33.396 4.883,50.748c0,145.696 -118.287,263.983 -263.983,263.983c-19.275,-0 -38.071,-2.07 -56.167,-5.999l13.639,-13.873c13.806,2.411 28.021,3.669 42.528,3.669c135.833,0 246.111,-110.279 246.111,-246.111c0,-13.312 -1.059,-26.378 -3.101,-39.138l16.09,-13.279Z" style="fill:#05448c;"/></svg>