<svg clip-rule="evenodd" fill-rule="evenodd" stroke-linejoin="round" stroke-miterlimit="1.41421" viewBox="0 0 404 404" xmlns="http://www.w3.org/2000/svg"><circle cx="201.713" cy="201.687" fill="#fff" r="201.687"/><g fill-rule="nonzero"><path d="m240.974 266.502h-74.58c-2.797 0-4.661-1.865-4.661-4.661 0-2.797 1.864-4.661 4.661-4.661h74.58c2.797 0 4.661 1.864 4.661 4.661 0 2.796-1.864 4.661-4.661 4.661z" fill="#35495c"/><path d="m176.182 259.044.467-1.865h-9.789l-1.865 4.661h-3.262c0 1.865 1.398 3.729 3.262 4.196.467 0 .932.466 1.399.466h74.58c2.797 0 4.661-1.865 4.661-4.661h-67.122c-1.398 0-2.797-1.399-2.331-2.797z" fill="#123247"/><path d="m264.28 294.47h-6.059l-20.044-55.936h-9.788l22.374 61.995c.466 1.865 2.331 3.263 4.195 3.263h9.323c2.797 0 4.661-1.865 4.661-4.661s-1.865-4.661-4.662-4.661z" fill="#576d7e"/><path d="m169.191 238.534-20.044 55.936h-6.059c-2.797 0-4.661 1.864-4.661 4.661 0 2.796 1.864 4.661 4.66 4.661h9.323c1.865 0 3.729-1.398 4.195-3.263l22.374-61.995z" fill="#576d7e"/><path d="m264.28 294.47h-4.661c2.797 0 4.661 1.864 4.661 4.661 0 2.796-1.864 4.661-4.661 4.661h4.661c2.797 0 4.661-1.865 4.661-4.661s-1.864-4.661-4.661-4.661z" fill="#35495c"/><path d="m282.925 238.534h-158.483c-7.924 0-13.983-6.059-13.983-13.983v-107.21h186.45v107.209c0 7.925-6.059 13.984-13.984 13.984z" fill="#b0c4d8"/><path d="m238.177 238.534h-4.661-5.127l3.262 9.323c3.263 0 6.06 1.865 6.992 5.128l13.518 37.29c.932 2.797 3.263 4.195 6.06 4.195l-19.578-54.537z" fill="#35495c"/><path d="m174.318 238.534h-5.127l-3.263 9.323h.932c1.865 0 3.263 1.865 2.797 3.729l-17.247 48.943c-.932 1.865-2.797 3.263-4.661 3.263h4.661c1.865 0 3.729-1.398 4.195-3.263l22.374-61.995z" fill="#35495c"/><path d="m287.587 122.003v102.548h-167.806c0 5.127 4.195 9.322 9.323 9.322h153.821c5.128 0 9.323-4.195 9.323-9.322v-83.903c0-2.797 1.865-4.661 4.661-4.661v-13.984z" fill="#99b4cd"/><path d="m282.925 229.212h-158.483c-2.796 0-4.661-1.865-4.661-4.661v-97.887h167.806v97.887c0 2.797-1.865 4.661-4.662 4.661z" fill="#eceff9"/><path d="m180.377 150.008c-.932 0-1.864.466-2.796.932-1.865 1.399-2.797 4.195-.932 6.526l23.306 32.629c1.398 2.33 4.195 2.797 6.526.932 1.864-1.398 2.797-4.195.932-6.526l-23.307-32.629c-.932-1.398-2.33-1.864-3.729-1.864z" fill="#b0c4d8"/><path d="m236.313 168.653c-.466 0-1.398 0-1.865.466l-32.629 13.984c-2.33.932-3.262 3.729-2.33 6.059.932 2.331 3.729 3.263 6.059 2.331l32.629-13.984c2.331-.932 3.263-3.729 2.331-6.059-.466-1.865-2.331-2.797-4.195-2.797z" fill="#b0c4d8"/><path d="m236.313 173.314c-.466 0-1.398 0-1.865.467l-32.629 13.983c-.932.467-1.398.933-2.33 1.865l-.467-.466c-.932-2.331 0-5.128 2.331-6.06l32.629-13.983c.932-.467 1.865-.467 2.331-.467 1.864 0 3.729.932 4.195 2.797.466 1.398.466 2.797-.466 4.195-.466-1.399-2.331-2.331-3.729-2.331z" fill="#99b4cd"/><path d="m236.313 168.653c-.932 0-1.865 0-2.331.932-2.33 1.398-2.796 4.195-1.398 6.526l23.306 37.29c1.399 2.33 4.196 2.797 6.526 1.398 2.331-1.398 2.797-4.195 1.399-6.525l-23.307-37.291c-.932-1.398-2.797-2.33-4.195-2.33z" fill="#b0c4d8"/><path d="m180.377 150.008c-.466 0-1.398 0-1.864.466l-32.629 13.984c-2.331.932-3.263 3.729-2.331 6.06.932 2.33 3.729 3.262 6.06 2.33l32.629-13.984c2.33-.932 3.262-3.729 2.33-6.059-.466-1.865-2.33-2.797-4.195-2.797z" fill="#b0c4d8"/><path d="m184.106 157c-.466-1.399-2.33-2.331-3.729-2.331-.466 0-1.398 0-1.864.466l-32.629 13.984c-.932.466-1.398.932-2.33 1.865l-.467-.466c-.932-2.331 0-5.128 2.331-6.06l32.629-13.984c.932-.466 1.865-.466 2.33-.466 1.865 0 3.729.932 4.196 2.797.466 1.398.466 2.797-.467 4.195z" fill="#99b4cd"/></g><circle cx="180.377" cy="154.669" fill="#2567c5" r="9.323"/><circle cx="147.749" cy="168.653" fill="#2567c5" r="9.323"/><circle cx="203.684" cy="187.298" fill="#2567c5" r="9.323"/><circle cx="236.313" cy="173.314" fill="#2567c5" r="9.323"/><circle cx="259.619" cy="210.605" fill="#2567c5" r="9.323"/><path d="m251.229 206.409-.932-1.864c0-.933.466-2.331.932-2.797.932-1.865.932-3.729 0-5.594l-9.789-15.382c.932-.932 1.865-1.865 2.797-3.263l12.12 19.578 2.796 4.195c-3.263 0-6.06 2.33-7.924 5.127z" fill="#99b4cd" fill-rule="nonzero"/><path d="m195.294 183.569-.932-1.398c0-1.399.466-2.331.932-3.263.932-1.865.466-4.195-.466-5.594l-8.391-11.653c.933-.932 1.865-1.865 2.331-3.263l11.187 15.383 2.797 4.195c-3.263.466-6.06 2.33-7.458 5.593z" fill="#99b4cd" fill-rule="nonzero"/><path d="m242.838 166.789c2.797 2.796 3.263 7.457 1.865 10.721-.466 1.398-2.797 1.398-3.729.466l-9.323-9.323c-.932-.932-.932-2.797.467-3.729 3.729-1.864 7.924-.932 10.72 1.865z" fill="#0d428c" fill-rule="nonzero"/><path d="m186.903 148.143c2.797 2.797 3.263 7.458 1.865 10.721-.466 1.399-2.797 1.399-3.729.467l-9.323-9.323c-.932-.932-.932-2.797.467-3.729 3.729-1.865 7.923-.932 10.72 1.864z" fill="#0d428c" fill-rule="nonzero"/><path d="m266.145 204.079c2.797 2.797 3.262 7.458 1.864 10.721-.466 1.398-2.796 1.398-3.729.466l-9.322-9.323c-.932-.932-.932-2.796.466-3.729 3.729-1.864 7.924-.932 10.721 1.865z" fill="#0d428c" fill-rule="nonzero"/><path d="m210.21 180.772c2.797 2.797 3.262 7.458 1.864 10.721-.466 1.399-2.796 1.399-3.729.467l-9.322-9.323c-.932-.932-.932-2.797.466-3.729 3.729-1.865 7.924-.933 10.721 1.864z" fill="#0d428c" fill-rule="nonzero"/><path d="m154.275 162.127c2.796 2.797 3.262 7.458 1.864 10.721-.466 1.398-2.796 1.398-3.729.466l-9.323-9.322c-.932-.932-.932-2.797.467-3.729 3.729-1.865 7.924-.932 10.721 1.864z" fill="#0d428c" fill-rule="nonzero"/><path d="m119.781 126.664h167.806v9.323h-167.806z" fill="#c4d7e5"/><path d="m110.459 122.003h9.323v13.984h-9.323z" fill="#99b4cd"/><path d="m292.248 126.664h-177.128c-5.128 0-9.323-4.195-9.323-9.323 0-5.127 4.195-9.322 9.323-9.322h177.128c5.127 0 9.323 4.195 9.323 9.322 0 5.128-4.196 9.323-9.323 9.323z" fill="#3e77cc" fill-rule="nonzero"/><path d="m122.112 108.019h27.967c1.399 0 2.331.932 2.331 2.331 0 1.398-.932 2.33-2.331 2.33h-27.967c-1.399 0-2.331-.932-2.331-2.33 0-1.399.932-2.331 2.331-2.331z" fill="#2567c5" fill-rule="nonzero"/><path d="m159.402 112.68c-1.398 0-2.331-.932-2.331-2.33 0-1.399.933-2.331 2.331-2.331s2.331.932 2.331 2.331c0 1.398-.933 2.33-2.331 2.33z" fill="#2567c5" fill-rule="nonzero"/><path d="m208.345 108.019h-9.323v-4.661c.001-2.797 1.865-4.662 4.662-4.662s4.661 1.865 4.661 4.662z" fill="#576d7e" fill-rule="nonzero"/><path d="m208.345 108.019v-2.33c0-1.399-.932-2.331-2.331-2.331-1.398 0-2.33.932-2.33 2.331v2.33z" fill="#35495c" fill-rule="nonzero"/><path d="m292.248 108.019c0 5.128-4.195 9.323-9.323 9.323h-177.128c0 5.127 4.195 9.322 9.323 9.322h176.662c4.661 0 8.856-3.262 9.788-7.924.933-5.593-3.728-10.721-9.322-10.721z" fill="#2567c5" fill-rule="nonzero"/><path d="m257.288 122.003h27.968c1.398 0 2.33.932 2.33 2.33 0 1.399-.932 2.331-2.33 2.331h-27.968c-1.398 0-2.33-.932-2.33-2.331 0-1.398.932-2.33 2.33-2.33z" fill="#0c428c" fill-rule="nonzero"/><path d="m233.982 122.003h13.984c1.398 0 2.33.932 2.33 2.33 0 1.399-.932 2.331-2.33 2.331h-13.984c-1.398 0-2.331-.932-2.331-2.331 0-1.398.933-2.33 2.331-2.33z" fill="#0c428c" fill-rule="nonzero"/><circle cx="129.969" cy="253.938" fill="#ffca5d" r="27.658"/><circle cx="165.529" cy="246.036" fill="#f6b545" r="27.658"/><path d="m165.529 218.378c-15.409 0-27.658 12.249-27.658 27.658 0 15.41 12.249 27.658 27.658 27.658 15.41 0 27.658-12.248 27.658-27.658 0-15.409-12.248-27.658-27.658-27.658zm0 47.414c-11.063 0-19.756-8.693-19.756-19.756s8.693-19.756 19.756-19.756 19.756 8.693 19.756 19.756-8.693 19.756-19.756 19.756z" fill="#ffcb5b" fill-rule="nonzero"/><path d="m165.529 273.299c15.41.395 27.658-12.249 27.658-27.263h-.395c-1.975 0-3.556 1.581-3.951 3.556-.79 5.532-3.556 10.668-7.507 14.224-3.161 3.161-7.507 5.137-12.249 5.927-1.976 0-3.556 1.581-3.556 3.556z" fill="#f6b545" fill-rule="nonzero"/><path d="m165.529 218.773c-15.409-.395-27.658 12.249-27.658 27.263h.395c1.976 0 3.556-1.581 3.951-3.556.79-5.532 3.556-10.668 7.507-14.224 3.161-3.161 7.508-5.137 12.249-5.927 1.976 0 3.556-1.58 3.556-3.556z" fill="#ffe27a" fill-rule="nonzero"/><path d="m148.539 248.802c0-11.064 8.693-19.756 19.756-19.756 4.741 0 9.088 1.581 12.643 4.741-3.951-4.741-9.087-7.507-15.409-7.507-11.063 0-19.756 8.693-19.756 19.756 0 6.322 2.766 11.458 7.112 15.014-2.765-3.161-4.346-7.507-4.346-12.248z" fill="#f19920" fill-rule="nonzero"/><path d="m177.383 258.285c-.396 0-.791 0-1.186-.396-.79-.79-.79-1.975 0-2.765 2.371-2.371 3.556-5.927 3.556-9.088 0-1.185.79-1.975 1.976-1.975 1.185 0 1.975.79 1.975 1.975 0 4.346-1.58 8.693-4.346 11.853-.79.396-1.581.396-1.975.396z" fill="#ffcb5b" fill-rule="nonzero"/><path d="m165.529 257.889c-2.371 0-3.951-1.58-3.951-3.951v-15.804c0-2.371 1.581-3.951 3.951-3.951 2.371 0 3.951 1.581 3.951 3.951v15.804c0 2.371-1.58 3.951-3.951 3.951z" fill="#f19920" fill-rule="nonzero"/><path d="m180.148 269.348c-2.765-9.878-9.878-17.781-18.965-21.336-1.581-9.088-7.508-16.99-15.015-21.732-4.741 5.137-7.902 11.854-7.902 19.361 0 15.409 12.249 27.658 27.658 27.658 5.137.395 9.878-1.185 14.224-3.951z" fill="#f19920" fill-rule="nonzero"/><path d="m152.885 261.05c-2.765-3.556-4.741-7.902-4.741-12.643 0-5.532 2.371-10.668 6.322-14.224-.791-1.186-1.581-1.976-2.371-2.766-3.951 3.556-6.322 8.693-6.322 14.619 0 6.322 2.766 11.458 7.112 15.014z" fill="#e78825" fill-rule="nonzero"/><path d="m161.578 248.407v5.531c0 2.371 1.58 3.951 3.951 3.951 2.37 0 3.951-1.58 3.951-3.951v-.79c-2.371-1.976-5.136-3.556-7.902-4.741z" fill="#e78825" fill-rule="nonzero"/><path d="m180.148 269.348c-.79-2.766-1.58-5.137-3.161-7.507-3.161 2.37-7.112 3.951-11.458 3.951-11.063 0-19.756-8.693-19.756-19.756 0-5.927 2.371-11.064 6.322-14.62-1.975-1.975-3.951-3.556-6.322-4.741-4.741 5.136-7.902 11.853-7.902 19.36 0 15.41 12.249 27.659 27.658 27.659 5.532 0 10.273-1.58 14.619-4.346z" fill="#f6b545" fill-rule="nonzero"/><path d="m178.963 265.792c-2.766 1.975-6.322 3.161-9.878 3.951-1.976.395-3.556 1.975-3.556 3.951 5.531 0 10.273-1.581 14.619-4.346-.395-1.186-.79-2.371-1.185-3.556z" fill="#f19920" fill-rule="nonzero"/><path d="m145.773 226.675c-4.741 5.137-7.902 11.854-7.902 19.361h.395c1.976 0 3.556-1.581 3.951-3.556.79-5.532 3.556-10.273 7.112-13.829-1.185-.395-2.37-1.185-3.556-1.976z" fill="#ffcb5b" fill-rule="nonzero"/><circle cx="129.969" cy="253.938" fill="#f6b545" r="27.658"/><path d="m126.018 273.694c0 2.766.395 5.136 1.185 7.902h2.766c15.409 0 27.658-12.248 27.658-27.658 0-2.766-.395-5.136-1.186-7.902-.79 0-1.975 0-2.765 0-15.41 0-27.658 12.249-27.658 27.658z" fill="#f19920" fill-rule="nonzero"/><path d="m129.969 226.28c-15.41 0-27.659 12.249-27.659 27.658 0 15.41 12.249 27.659 27.659 27.659 15.409 0 27.658-12.249 27.658-27.659 0-15.409-12.249-27.658-27.658-27.658zm0 47.414c-11.064 0-19.756-8.693-19.756-19.756s8.692-19.756 19.756-19.756c11.063 0 19.755 8.693 19.755 19.756s-8.692 19.756-19.755 19.756z" fill="#ffcb5b" fill-rule="nonzero"/><path d="m129.969 281.201c15.409.395 27.658-12.248 27.658-27.263h-.395c-1.976 0-3.557 1.581-3.951 3.557-.791 5.531-3.557 10.668-7.508 14.224-3.161 3.161-7.507 5.136-12.248 5.927-1.976-.001-3.556 1.58-3.556 3.555z" fill="#f6b545" fill-rule="nonzero"/><path d="m129.969 226.675c-15.41-.395-27.659 12.249-27.659 27.263h.396c1.975 0 3.556-1.58 3.951-3.556.79-5.531 3.556-10.668 7.507-14.224 3.161-3.161 7.507-5.136 12.248-5.927 1.976 0 3.557-1.58 3.557-3.556z" fill="#ffe27a" fill-rule="nonzero"/><path d="m112.979 256.704c0-11.063 8.692-19.756 19.756-19.756 4.741 0 9.087 1.581 12.643 4.742-3.951-4.742-9.088-7.507-15.409-7.507-11.064 0-19.756 8.692-19.756 19.755 0 6.322 2.765 11.459 7.112 15.015-2.766-3.161-4.346-7.507-4.346-12.249z" fill="#f19920" fill-rule="nonzero"/><path d="m141.822 266.187c-.395 0-.79 0-1.185-.395-.79-.791-.79-1.976 0-2.766 2.371-2.371 3.556-5.927 3.556-9.088 0-1.185.79-1.975 1.976-1.975 1.185 0 1.975.79 1.975 1.975 0 4.346-1.581 8.693-4.346 11.854-.791.395-1.581.395-1.976.395z" fill="#ffcb5b" fill-rule="nonzero"/><path d="m129.969 265.792c-2.371 0-3.951-1.581-3.951-3.951v-15.805c0-2.37 1.58-3.951 3.951-3.951 2.37 0 3.951 1.581 3.951 3.951v15.805c0 2.37-1.581 3.951-3.951 3.951z" fill="#f19920" fill-rule="nonzero"/><path d="m148.144 246.431c.79 2.371 1.581 4.741 1.581 7.507 0 11.063-8.693 19.756-19.756 19.756-1.185 0-2.766 0-3.951-.395v.395c0 2.766.395 5.136 1.185 7.902h2.766c15.409 0 27.658-12.248 27.658-27.658 0-2.766-.395-5.136-1.185-7.902-.79 0-1.976 0-2.766 0-1.976 0-3.556 0-5.532.395z" fill="#f6b545" fill-rule="nonzero"/><circle cx="149.724" cy="277.645" fill="#f6b545" r="27.658"/><path d="m149.724 249.987c-15.409 0-27.658 12.249-27.658 27.658 0 15.41 12.249 27.659 27.658 27.659 15.41 0 27.659-12.249 27.659-27.659 0-15.409-12.249-27.658-27.659-27.658zm0 47.414c-11.063 0-19.755-8.692-19.755-19.756 0-11.063 8.692-19.756 19.755-19.756 11.064 0 19.756 8.693 19.756 19.756 0 11.064-8.692 19.756-19.756 19.756z" fill="#ffcb5b" fill-rule="nonzero"/><path d="m149.724 304.908c15.41.396 27.659-12.248 27.659-27.263h-.396c-1.975 0-3.556 1.581-3.951 3.556-.79 5.532-3.556 10.668-7.507 14.225-3.161 3.16-7.507 5.136-12.248 5.926-1.976 0-3.557 1.58-3.557 3.556z" fill="#f6b545" fill-rule="nonzero"/><path d="m149.724 250.382c-15.409-.395-27.658 12.249-27.658 27.263h.395c1.976 0 3.557-1.58 3.951-3.556.791-5.531 3.557-10.668 7.508-14.224 3.16-3.161 7.507-5.136 12.248-5.927 1.976 0 3.556-1.58 3.556-3.556z" fill="#ffe27a" fill-rule="nonzero"/><path d="m132.735 280.411c0-11.063 8.692-19.756 19.755-19.756 4.742 0 9.088 1.581 12.644 4.742-3.951-4.742-9.088-7.508-15.41-7.508-11.063 0-19.755 8.693-19.755 19.756 0 6.322 2.765 11.458 7.111 15.015-2.765-3.161-4.345-7.508-4.345-12.249z" fill="#f19920" fill-rule="nonzero"/><path d="m161.578 289.894c-.395 0-.79 0-1.186-.396-.79-.79-.79-1.975 0-2.765 2.371-2.371 3.557-5.927 3.557-9.088 0-1.185.79-1.976 1.975-1.976s1.976.791 1.976 1.976c0 4.346-1.581 8.692-4.347 11.853-.79.396-1.58.396-1.975.396z" fill="#ffcb5b" fill-rule="nonzero"/><path d="m149.724 289.499c-2.37 0-3.951-1.581-3.951-3.951v-15.805c0-2.371 1.581-3.951 3.951-3.951 2.371 0 3.951 1.58 3.951 3.951v15.804c.001 2.371-1.58 3.952-3.951 3.952z" fill="#f19920" fill-rule="nonzero"/></svg>