<svg clip-rule="evenodd" fill-rule="evenodd" stroke-linejoin="round" stroke-miterlimit="1.41421" viewBox="0 0 245 231" xmlns="http://www.w3.org/2000/svg"><path d="m172.526 4.673h-100.752c-8.564 0-15.113 6.548-15.113 15.112v191.43c0 8.564 6.549 15.112 15.113 15.112h100.752c8.564 0 15.113-6.548 15.113-15.112v-166.241-25.189c0-8.564-6.549-15.112-15.113-15.112z" fill="#595a66" fill-rule="nonzero"/><path d="m182.601 8.703v26.699c0 2.015-2.519 3.526-4.03 2.519l-6.045-3.023v15.113h10.075v161.204c0 5.541-4.534 10.075-10.075 10.075h-105.79c-3.022 0-5.541-1.008-8.06-2.015 3.023 4.03 7.557 7.052 13.098 7.052h100.752c8.564 0 15.113-6.548 15.113-15.112v-166.241-25.189c0-4.533-2.015-8.564-5.038-11.082z" fill="#494a52" fill-rule="nonzero"/><path d="m187.639 94.846v-19.647h-130.978v19.647c7.053 1.511 14.609 0 20.15-4.534 8.564 6.549 21.662 6.549 30.226 0 8.564 6.549 21.661 6.549 30.225 0 8.564 6.549 21.662 6.549 30.226 0 5.542 4.534 13.098 6.045 20.151 4.534z" fill="#494a52" fill-rule="nonzero"/><path d="m177.564 44.974v146.09c0 2.519-2.016 5.038-5.038 5.038h-100.752c-3.023 0-5.038-2.015-5.038-5.038v-146.09c0-2.519 2.016-5.038 5.038-5.038h100.752c3.022 0 5.038 2.015 5.038 5.038z" fill="#2567c5" fill-rule="nonzero"/><path d="m66.736 75.199v115.865c0 2.519 2.016 5.037 5.038 5.037v-96.218c0-4.03 2.015-7.556 5.037-9.571 8.564 6.549 21.662 6.549 30.226 0 8.564 6.549 21.661 6.549 30.225 0 8.564 6.549 21.662 6.549 30.226 0 3.023 2.519 6.549 3.526 10.075 4.534v-19.647z" fill="#0d428c" fill-rule="nonzero"/><circle cx="122.15" cy="211.215" fill="#35363e" r="5.037"/><g fill-rule="nonzero"><path d="m197.714 65.124h-151.128l25.188-30.226h100.752z" fill="#f6b546"/><path d="m172.526 34.898h-4.03l24.18 30.226h5.038z" fill="#f19920"/><path d="m107.037 65.124h-30.225l15.112-30.226h20.151z" fill="#fff"/><path d="m137.263 65.124h30.225l-15.112-30.226h-20.151z" fill="#fff"/><path d="m152.376 34.898h-3.527l13.602 30.226h5.037z" fill="#d4e3ee"/><path d="m108.045 34.898h4.03l-5.038 30.226h-5.037z" fill="#d4e3ee"/><path d="m46.586 65.124v15.113c8.564 6.548 21.662 6.548 30.226 0 8.564 6.548 21.661 6.548 30.225 0 8.564 6.548 21.662 6.548 30.226 0 8.564 6.548 21.661 6.548 30.225 0 8.564 6.548 21.662 6.548 30.226 0v-15.113z" fill="#f19920"/><path d="m137.263 65.124v15.113c8.564 6.548 21.661 6.548 30.225 0v-15.113z" fill="#d4e3ee"/><path d="m162.451 65.124v9.067c0 4.03-2.519 8.06-6.549 9.572-2.015.504-4.03 1.007-6.045 1.511 6.045.504 12.594-1.007 17.631-5.037v-15.113z" fill="#b0c4d9"/><path d="m76.812 65.124v15.113c8.564 6.548 21.661 6.548 30.225 0v-15.113z" fill="#d4e3ee"/><path d="m172.526 191.064h-25.188l25.188-25.188z" fill="#fff" fill-opacity=".180392"/><path d="m137.263 191.064 35.263-35.263v-10.075l-45.339 45.338z" fill="#fff" fill-opacity=".180392"/><path d="m61.699 194.087c0 4.533-2.015 9.067-5.038 12.09v-97.73c3.023 3.023 5.038 7.557 5.038 12.09z" fill="#6f707e"/><path d="m88.902 9.71c-4.534 0-9.068-2.015-12.09-5.037h80.601c-3.022 3.022-7.556 5.037-12.09 5.037z" fill="#6f707e"/><path d="m134.744 24.823h-25.188c-1.511 0-2.519-1.007-2.519-2.519 0-1.511 1.008-2.519 2.519-2.519h25.188c1.511 0 2.519 1.008 2.519 2.519 0 1.512-1.008 2.519-2.519 2.519z" fill="#35363e"/><path d="m99.481 19.785c1.511 0 2.518 1.008 2.518 2.519 0 1.512-1.007 2.519-2.518 2.519-1.512 0-2.519-1.007-2.519-2.519 0-1.511 1.007-2.519 2.519-2.519z" fill="#35363e"/><path d="m137.263 65.124h-5.038l-4.03-30.226h4.03z" fill="#f19920"/><path d="m76.812 65.124h-5.038l16.12-30.226h4.03z" fill="#f19920"/><path d="m102 65.124v9.067c0 4.03-2.519 8.06-6.549 9.572-2.015.504-4.03 1.007-6.045 1.511 6.045.504 12.594-1.007 17.631-5.037v-15.113z" fill="#b0c4d9"/><path d="m132.225 65.124v9.067c0 4.03-2.518 8.06-6.548 9.572-2.016.504-4.03 1.007-6.046 1.511 6.046.504 12.594-1.007 17.632-5.037v-15.113z" fill="#e27800"/><path d="m192.676 65.124v9.067c0 4.03-2.518 8.06-6.548 9.572-2.016.504-4.03 1.007-6.046 1.511 6.046.504 12.594-1.007 17.632-5.037v-15.113z" fill="#e27800"/><path d="m71.774 65.124v9.067c0 4.03-2.519 8.06-6.549 9.572-2.015.504-4.03 1.007-6.045 1.511 6.045.504 12.594-1.007 17.631-5.037v-15.113z" fill="#e27800"/></g><circle cx="107.037" cy="155.801" fill="#0d428c" r="5.037"/><circle cx="137.263" cy="155.801" fill="#0d428c" r="5.037"/><path d="m151.368 117.515c-1.007-1.511-2.519-2.015-4.03-2.015h-35.263c0-8.564-6.549-15.113-15.113-15.113-3.023 0-5.038 2.015-5.038 5.038 0 3.022 2.016 5.037 5.038 5.037 3.023 0 5.037 2.015 5.037 5.038v25.187c0 3.023 2.016 5.038 5.038 5.038h35.263c2.519 0 4.534-1.512 5.038-4.03l5.037-20.151c.001-1.51.001-3.021-1.007-4.029z" fill="#0d428c" fill-rule="nonzero"/></svg>