<svg clip-rule="evenodd" fill-rule="evenodd" stroke-linejoin="round" stroke-miterlimit="1.41421" viewBox="0 0 404 404" xmlns="http://www.w3.org/2000/svg"><circle cx="201.713" cy="201.687" fill="#fff" r="201.687"/><g fill-rule="nonzero"><path d="m276.659 265.211-75.157 46.289-75.157-46.289c-5.973-3.484-9.457-9.954-9.457-16.923v-133.391c0-4.479 2.987-8.461 7.466-9.456l17.421-4.978c19.909-5.475 39.818-7.964 60.723-7.964 21.402 0 42.307 2.987 62.714 8.959l14.434 3.982c4.479.996 7.466 4.977 7.466 9.457v133.391c-.996 6.969-4.48 12.942-10.453 16.923z" fill="#2567c5"/><path d="m136.798 245.302v-118.957c0-2.489 1.493-3.982 3.484-4.977l6.47-1.493c17.918-4.978 36.334-7.467 55.248-7.467 19.411 0 38.325 2.489 57.239 7.964l3.484.995c1.991.498 3.484 2.489 3.484 4.977v118.958c0 1.493-.996 3.483-2.489 4.479l-59.727 36.832c-1.494.995-3.484.995-5.475 0l-59.728-36.832c-.995-.995-1.99-2.488-1.99-4.479z" fill="#d3e2eb"/><path d="m146.752 135.802c0-2.489 1.493-3.982 3.484-4.977l6.47-1.494c17.919-4.977 36.335-7.465 55.249-7.465 18.416 0 36.832 2.488 54.252 7.466v-2.987c0-1.991-1.493-3.981-3.484-4.977l-3.484-.995c-18.914-5.476-37.828-7.965-57.239-7.965-18.914 0-37.33 2.489-55.248 7.467l-6.47 1.493c-1.991.995-3.484 2.986-3.484 4.977v118.957c0 1.493.995 3.484 2.488 4.48l7.466 4.479z" fill="#b0c4d8"/><path d="m266.207 126.345c0-.995-.498-1.991-.995-2.987l-125.926 125.926 24.389 14.932 102.532-102.035z" fill="#fff"/><path d="m139.286 249.782 7.466 4.479v-12.443z" fill="#d5e3ef"/><path d="m265.709 124.852c0-.498-.498-.996-.498-1.494l-4.479 4.48c1.991.498 3.483.995 5.475 1.493v-2.986c0-.498 0-.995-.498-1.493z" fill="#d5e3ef"/><path d="m266.207 245.302v-68.189l-93.075 93.076 25.882 15.927c1.493.995 3.483.995 5.475 0l59.727-36.832c.996-.498 1.991-1.991 1.991-3.982z" fill="#fff"/><path d="m286.116 113.902c-1.493-5.475-9.954-3.484-9.954 1.991v127.418c0 6.969-3.484 13.439-9.457 16.923l-55.746 34.344c-5.973 3.483-9.456 9.954-9.456 16.922l75.157-46.288c5.972-3.484 9.456-9.955 9.456-16.923v-133.392c0-.497 0-.497 0-.995z" fill="#0d428c"/><path d="m126.843 124.852v39.818c0 1.493-.995 2.489-2.489 2.489-1.493 0-2.488-.996-2.488-2.489v-39.818c0-1.494.995-2.489 2.488-2.489 1.494 0 2.489.995 2.489 2.489z" fill="#fff" fill-opacity=".184314"/><path d="m126.843 184.579v9.955c0 1.493-.995 2.489-2.489 2.489-1.493 0-2.488-.996-2.488-2.489v-9.955c0-1.493.995-2.488 2.488-2.488 1.494 0 2.489.995 2.489 2.488z" fill="#fff" fill-opacity=".184314"/><path d="m121.866 174.625c0-1.494.995-2.489 2.488-2.489 1.494 0 2.489.995 2.489 2.489 0 1.493-.995 2.488-2.489 2.488-1.493 0-2.488-.995-2.488-2.488z" fill="#fff" fill-opacity=".184314"/></g><circle cx="204" cy="193.088" fill="#f6b546" r="42.5"/><path d="m180.824 169.148c-.398 0-1.162-.398-1.56-.763-.764-.764-.764-1.926 0-2.69 3.486-3.088 7.736-5.81 12.351-7.338 1.162-.398 1.926 0 2.324 1.163.399 1.162 0 1.925-1.162 2.324-3.851 1.494-7.703 3.453-10.791 6.541-.398.763-.797.763-1.162.763z" fill="#fff" fill-opacity=".176471" fill-rule="nonzero"/><path d="m169.236 195.047c-1.162 0-1.925-.764-1.925-1.926 0-5.81 1.162-11.189 3.851-16.236.399-.764 1.561-1.162 2.69-.764.763.399 1.162 1.561.763 2.69-2.324 4.648-3.486 9.662-3.486 14.675.033.764-.731 1.561-1.893 1.561z" fill="#fff" fill-opacity=".176471" fill-rule="nonzero"/><path d="m227.574 157.926c4.649 6.574 7.338 14.676 7.338 23.574 0 23.574-18.926 42.5-42.5 42.5-8.898 0-17-2.689-23.574-7.338 7.736 11.19 20.486 18.926 35.162 18.926 23.574 0 42.5-18.926 42.5-42.5 0-14.676-7.338-27.791-18.926-35.162z" fill="#f19920" fill-rule="nonzero"/><path d="m204 211.648c-.863 0-1.693-.332-2.357-.962l-11.588-11.588c-1.295-1.295-1.295-3.387 0-4.682s3.386-1.295 4.681 0l9.231 9.23 20.818-20.818c1.295-1.295 3.387-1.295 4.682 0s1.295 3.387 0 4.682l-23.176 23.176c-.598.664-1.428.962-2.291.962z" fill="#f19920" fill-rule="nonzero"/><path d="m200.148 207.797c-.896 0-1.726-.365-2.357-.963l-11.588-11.588c-1.295-1.295-1.295-3.387 0-4.682 1.295-1.294 3.387-1.294 4.682 0l9.23 9.231 20.852-20.852c1.295-1.295 3.387-1.295 4.681 0 1.295 1.295 1.295 3.387 0 4.682l-23.175 23.209c-.598.631-1.461.963-2.325.963z" fill="#fff" fill-rule="nonzero"/></svg>