<?xml version="1.0" encoding="UTF-8" standalone="no"?><!DOCTYPE svg PUBLIC "-//W3C//DTD SVG 1.1//EN" "http://www.w3.org/Graphics/SVG/1.1/DTD/svg11.dtd"><svg width="100%" height="100%" viewBox="0 0 1684 1684" version="1.1" xmlns="http://www.w3.org/2000/svg" xmlns:xlink="http://www.w3.org/1999/xlink" xml:space="preserve" xmlns:serif="http://www.serif.com/" style="fill-rule:evenodd;clip-rule:evenodd;stroke-linejoin:round;stroke-miterlimit:2;"><circle cx="840.471" cy="840.363" r="840.362" style="fill:#fff;"/><path d="M1267.36,1200.73c0,36.877 -31.054,67.93 -67.93,67.93c-19.408,0 -36.877,-7.764 -50.464,-21.349l-217.378,-236.788c-7.764,-7.765 -7.764,-19.409 0,-27.173l50.464,-50.463c7.764,-7.765 19.408,-7.765 27.172,-0l236.787,219.321c13.585,11.645 21.349,31.054 21.349,48.522Z" style="fill:#b16228;fill-rule:nonzero;"/><path d="M937.302,977.039l38.426,-38.426l-57.64,-57.64l-38.426,38.426l57.64,57.64Z" style="fill:#b0c4d8;"/><path d="M947.111,948.415l9.704,9.704l19.408,-19.408l-58.226,-58.226l-38.818,38.818l29.114,29.112c11.645,-11.645 27.172,-11.645 38.818,0Z" style="fill:#98b4cd;fill-rule:nonzero;"/><path d="M704.5,414.673c-161.092,-0 -291.131,130.04 -291.131,291.131c-0,161.092 130.039,291.132 291.131,291.132c161.092,-0 291.131,-130.04 291.131,-291.132c0,-161.091 -130.038,-291.131 -291.131,-291.131Zm0,524.038c-128.098,0 -232.905,-104.807 -232.905,-232.905c0,-128.098 104.807,-232.907 232.905,-232.907c128.098,0 232.905,104.807 232.905,232.905c0,128.098 -104.807,232.907 -232.905,232.907Z" style="fill:#c4d7e5;fill-rule:nonzero;"/><circle cx="704.5" cy="705.804" r="232.905" style="fill:#1f6ac5;"/><path d="M678.707,778.925c-4.002,-0 -7.708,-1.631 -10.525,-4.299l-51.734,-51.734c-5.781,-5.782 -5.781,-15.12 0,-20.902c5.781,-5.781 15.12,-5.781 20.901,0l41.21,41.21l93.092,-93.092c5.781,-5.781 15.12,-5.781 20.901,-0c5.781,5.781 5.781,15.12 0,20.901l-103.468,103.617c-2.669,2.816 -6.523,4.299 -10.377,4.299Z" style="fill:#fff;fill-rule:nonzero;"/><path d="M589.989,732.977c9.704,-73.753 67.93,-131.98 141.684,-141.684l1.941,0c32.995,-3.881 34.935,-50.463 3.881,-56.285c-19.408,-3.881 -38.818,-3.881 -58.226,-1.941c-75.695,11.646 -135.862,71.813 -145.566,145.566c-3.882,19.409 -1.942,40.758 1.941,58.227c5.823,32.995 52.404,29.114 56.285,-3.882c-1.94,1.94 -1.94,-0.001 -1.94,-0.001Z" style="fill:#4f87d4;fill-rule:nonzero;"/><path d="M491.003,725.214c0,-128.098 104.807,-232.905 232.905,-232.905c60.168,0 112.572,23.291 155.271,58.226c-42.699,-48.522 -104.807,-77.634 -174.679,-77.634c-128.098,-0 -232.905,104.807 -232.905,232.905c0,69.872 31.054,131.979 77.634,174.679c-34.935,-42.7 -58.226,-95.103 -58.226,-155.271Z" style="fill:#09478f;fill-rule:nonzero;"/><path d="M704.5,996.937c161.093,0 291.131,-130.039 291.131,-291.131c-9.704,-0 -19.408,7.764 -19.408,19.408c-3.881,65.991 -32.995,126.157 -77.634,170.798c-44.641,46.58 -106.749,75.694 -174.679,81.517c-11.646,0 -19.41,9.704 -19.41,19.408Z" style="fill:#b0c9db;fill-rule:nonzero;"/><path d="M704.5,414.673c-161.092,-0 -291.131,130.04 -291.131,291.131c9.704,0 19.408,-7.764 19.408,-19.408c3.883,-64.049 31.055,-122.275 71.813,-164.975c46.581,-48.522 110.63,-81.517 180.502,-87.34c11.645,0 19.408,-9.704 19.408,-19.408Z" style="fill:#e2e7f0;fill-rule:nonzero;"/><path d="M1244.07,1150.27l-11.646,-9.704c9.705,11.646 15.527,27.173 15.527,42.7c0,25.231 -31.053,34.935 -48.522,17.468l-203.791,-203.793c-11.645,-11.645 -29.114,-11.645 -40.758,0l-19.408,19.408l211.555,227.083c11.646,11.645 27.173,21.349 42.7,23.291c21.349,1.941 42.699,-5.823 56.285,-19.408c13.585,-13.586 21.349,-34.935 19.408,-56.285c-0,-15.529 -9.704,-29.114 -21.35,-40.76Z" style="fill:#a35325;fill-rule:nonzero;"/><path d="M1044.15,1016.35c-1.941,0 -5.823,0 -7.764,-1.941l-48.522,-48.522c-3.881,-3.881 -3.881,-9.704 -0,-13.586c3.881,-3.881 9.704,-3.881 13.585,0l48.522,48.523c3.882,3.881 3.882,9.704 0,13.585c0.002,1.941 -3.881,1.941 -5.821,1.941Z" style="fill:#ca7529;fill-rule:nonzero;"/></svg>