<?xml version="1.0" encoding="UTF-8" standalone="no"?><!DOCTYPE svg PUBLIC "-//W3C//DTD SVG 1.1//EN" "http://www.w3.org/Graphics/SVG/1.1/DTD/svg11.dtd"><svg width="100%" height="100%" viewBox="0 0 130 100" version="1.1" xmlns="http://www.w3.org/2000/svg" xmlns:xlink="http://www.w3.org/1999/xlink" xml:space="preserve" xmlns:serif="http://www.serif.com/" style="fill-rule:evenodd;clip-rule:evenodd;stroke-linecap:round;stroke-miterlimit:10;"><path d="M109.084,50c0,-24.332 -19.753,-44.086 -44.084,-44.086c-24.331,-0 -44.084,19.754 -44.084,44.086c-0,24.332 19.753,44.086 44.084,44.086c24.331,0 44.084,-19.754 44.084,-44.086Z" style="fill:none;stroke:#1e68cb;stroke-width:2.5px;"/><path d="M93.946,55.918c0.122,-1.278 0.152,-1.549 0.215,-2.811c2.472,0.141 4.162,-1.658 4.292,-3.895c-2.084,-0.246 -3.181,0.742 -4.249,2.092c-0.03,-1.289 -0.029,-1.571 -0.129,-2.947c2.476,-0.19 3.874,-2.151 3.77,-4.331c-2.068,-0.021 -3.039,1.022 -3.965,2.454c-0.234,-1.562 -0.208,-1.405 -0.479,-2.765c2.509,-0.442 3.688,-2.671 3.229,-4.877c-2.148,0.313 -2.928,1.588 -3.598,3.246c-0.358,-1.272 -0.501,-1.808 -0.943,-3.085c2.38,-0.829 3.204,-3.171 2.447,-5.27c-2.445,0.719 -2.823,2.625 -3.086,3.546c-0.534,-1.248 -0.621,-1.462 -1.117,-2.49c2.294,-1.046 2.896,-3.383 2.053,-5.367c-1.991,0.708 -2.526,2.041 -2.878,3.756c-0.671,-1.181 -0.903,-1.594 -1.629,-2.727c2.209,-1.24 2.613,-3.669 1.527,-5.598c-1.985,0.969 -2.337,2.468 -2.425,4.274c-0.748,-1.022 -0.953,-1.308 -1.736,-2.286c2.049,-1.478 2.193,-3.858 1,-5.647c-1.864,1.096 -2.132,2.588 -2.106,4.342c-0.544,-0.6 -0.7,-0.777 -1.251,-1.359c-0.02,-2.054 -1.747,-3.892 -4.221,-3.835c-0.09,2.378 1.567,4.035 3.49,4.265c0.484,0.502 0.803,0.852 1.277,1.367c-0.839,-0.132 -2.841,-0.637 -4.543,1.323c1.539,1.501 3.886,1.791 5.723,0.072c0.734,0.917 0.8,1.011 1.538,2.006c-0.849,-0.192 -2.735,-0.79 -4.548,0.996c1.412,1.613 3.649,2.058 5.627,0.584c0.732,1.153 0.919,1.497 1.6,2.703c-1.578,-0.623 -3.072,-0.988 -4.81,0.389c1.216,1.743 3.457,2.481 5.597,1.151c0.53,1.106 0.648,1.399 1.143,2.582c-1.604,-0.773 -3.069,-1.141 -4.834,0.103c1.102,1.791 3.196,2.634 5.431,1.521c0.443,1.316 0.535,1.668 0.855,2.817c-1.373,-0.858 -2.758,-1.471 -4.694,-0.488c0.828,1.897 2.759,3.033 5.105,2.3c0.241,1.198 0.204,0.977 0.479,2.819c-1.284,-1.189 -2.562,-2.063 -4.707,-1.362c0.551,2.091 2.414,3.507 4.867,3.008c0.09,1.289 0.094,1.65 0.12,2.941c-0.629,-0.702 -1.867,-2.332 -4.477,-1.778c0.323,2.138 2.005,3.695 4.43,3.525c-0.078,1.387 -0.112,1.664 -0.26,3.058c-0.972,-1.422 -2.051,-2.591 -4.345,-2.333c0.08,1.533 0.868,2.849 2.205,3.5c0.546,0.265 1.181,0.419 1.897,0.434c-0.234,1.302 -0.284,1.514 -0.578,2.814c-0.8,-1.521 -1.74,-2.804 -4.046,-2.81c-0.135,2.166 1.184,4.049 3.624,4.378c-0.377,1.282 -0.498,1.614 -0.874,2.706c-0.739,-1.617 -1.64,-2.802 -3.778,-2.971c-0.281,2.037 0.741,3.999 3.143,4.62c-0.525,1.255 -0.625,1.466 -1.184,2.656c-0.642,-1.543 -1.448,-2.735 -3.527,-3.031c-1.2,5.631 7.121,7.496 9.118,2.87c-2.383,-1.201 -4.07,0.107 -4.906,0.638c0.647,-1.387 0.758,-1.607 1.331,-3.003c2.34,0.934 4.534,-0.332 5.306,-2.474c-2.353,-1.011 -3.921,0.279 -4.654,0.777c0.448,-1.341 0.505,-1.499 0.849,-2.678c2.365,0.629 4.374,-0.723 4.98,-2.915c-1.919,-0.656 -3.163,0.014 -4.488,1.035c0.256,-1.203 0.31,-1.418 0.513,-2.599c2.406,0.356 4.269,-1.23 4.616,-3.469c-1.99,-0.431 -3.143,0.383 -4.332,1.533" style="fill:#f1b84c;fill-rule:nonzero;"/><path d="M36.397,58.429c-0.164,-1.274 -0.201,-1.543 -0.305,-2.803c-2.465,0.219 -4.21,-1.527 -4.41,-3.758c2.075,-0.312 3.203,0.642 4.312,1.957c-0.012,-1.289 -0.021,-1.571 0.036,-2.949c-2.481,-0.113 -3.94,-2.03 -3.904,-4.212c2.067,-0.085 3.071,0.927 4.042,2.329c0.184,-1.568 0.163,-1.41 0.391,-2.778c-2.521,-0.364 -3.769,-2.555 -3.38,-4.774c2.158,0.246 2.977,1.496 3.698,3.132c0.319,-1.283 0.445,-1.823 0.845,-3.113c-2.405,-0.754 -3.302,-3.07 -2.61,-5.191c2.466,0.642 2.905,2.536 3.195,3.448c0.496,-1.264 0.576,-1.48 1.038,-2.524c-2.325,-0.974 -3,-3.29 -2.219,-5.3c2.012,0.645 2.59,1.962 2.995,3.664c0.633,-1.202 0.851,-1.621 1.542,-2.776c-2.247,-1.171 -2.727,-3.586 -1.7,-5.548c2.014,0.906 2.412,2.394 2.556,4.196c0.716,-1.044 0.911,-1.337 1.663,-2.34c-2.093,-1.412 -2.313,-3.787 -1.176,-5.612c1.899,1.037 2.212,2.519 2.24,4.273c0.527,-0.616 0.677,-0.798 1.211,-1.396c-0.048,-2.054 1.622,-3.946 4.097,-3.966c0.166,2.374 -1.439,4.082 -3.353,4.372c-0.471,0.517 -0.778,0.877 -1.235,1.406c0.834,-0.158 2.82,-0.725 4.583,1.181c-1.493,1.548 -3.83,1.912 -5.719,0.251c-0.705,0.939 -0.768,1.035 -1.474,2.053c0.843,-0.219 2.709,-0.875 4.577,0.853c-1.361,1.657 -3.584,2.172 -5.606,0.76c-0.695,1.176 -0.873,1.524 -1.516,2.752c1.56,-0.672 3.04,-1.083 4.821,0.238c-1.162,1.78 -3.38,2.588 -5.558,1.325c-0.496,1.122 -0.603,1.419 -1.062,2.618c1.579,-0.823 3.033,-1.237 4.836,-0.05c-1.046,1.825 -3.114,2.734 -5.383,1.691c-0.4,1.329 -0.482,1.684 -0.765,2.842c1.345,-0.9 2.711,-1.556 4.676,-0.634c-0.768,1.922 -2.662,3.118 -5.029,2.459c-0.206,1.204 -0.176,0.982 -0.392,2.832c1.247,-1.229 2.497,-2.142 4.661,-1.508c-0.485,2.107 -2.301,3.581 -4.771,3.158c-0.048,1.291 -0.042,1.652 -0.027,2.944c0.608,-0.722 1.793,-2.39 4.419,-1.918c-0.254,2.148 -1.887,3.756 -4.316,3.662c0.12,1.384 0.162,1.66 0.356,3.049c0.926,-1.452 1.968,-2.655 4.269,-2.468c-0.031,1.534 -0.779,2.875 -2.097,3.567c-0.536,0.282 -1.166,0.456 -1.88,0.493c0.275,1.294 0.33,1.504 0.665,2.795c0.754,-1.546 1.653,-2.857 3.956,-2.936c0.204,2.161 -1.055,4.084 -3.484,4.49c0.417,1.269 0.547,1.597 0.957,2.677c0.689,-1.639 1.551,-2.852 3.684,-3.088c0.344,2.027 -0.615,4.02 -2.996,4.716c0.563,1.238 0.67,1.446 1.265,2.618c0.595,-1.563 1.361,-2.779 3.431,-3.14c1.375,5.591 -6.884,7.715 -9.023,3.154c2.342,-1.275 4.071,-0.021 4.922,0.484c-0.689,-1.366 -0.807,-1.582 -1.423,-2.959c-2.309,1.006 -4.543,-0.19 -5.382,-2.308c2.32,-1.084 3.928,0.157 4.676,0.632c-0.49,-1.327 -0.552,-1.483 -0.932,-2.65c-2.343,0.702 -4.395,-0.587 -5.068,-2.759c1.898,-0.715 3.162,-0.085 4.518,0.895c-0.294,-1.195 -0.354,-1.408 -0.594,-2.582c-2.394,0.431 -4.307,-1.096 -4.722,-3.323c1.975,-0.493 3.152,0.285 4.378,1.397" style="fill:#f1b84c;fill-rule:nonzero;"/><g><path d="M43.997,54.67c-1.638,0 -3.105,-0.265 -4.403,-0.797c-1.297,-0.532 -2.334,-1.319 -3.11,-2.361c-0.777,-1.042 -1.186,-2.297 -1.229,-3.765l5.807,0c0.085,0.83 0.372,1.462 0.861,1.898c0.49,0.436 1.128,0.654 1.915,0.654c0.808,0 1.446,-0.186 1.914,-0.558c0.468,-0.372 0.702,-0.888 0.702,-1.547c-0,-0.553 -0.186,-1.011 -0.558,-1.372c-0.373,-0.362 -0.83,-0.66 -1.372,-0.894c-0.543,-0.233 -1.314,-0.499 -2.313,-0.797c-1.447,-0.447 -2.627,-0.893 -3.542,-1.34c-0.914,-0.447 -1.701,-1.106 -2.361,-1.978c-0.659,-0.872 -0.989,-2.01 -0.989,-3.414c0,-2.085 0.755,-3.717 2.265,-4.897c1.511,-1.181 3.478,-1.771 5.903,-1.771c2.467,-0 4.456,0.59 5.966,1.771c1.51,1.18 2.318,2.823 2.425,4.929l-5.903,-0c-0.042,-0.723 -0.308,-1.292 -0.797,-1.707c-0.489,-0.415 -1.117,-0.622 -1.883,-0.622c-0.659,-0 -1.191,0.175 -1.595,0.526c-0.404,0.351 -0.606,0.856 -0.606,1.516c-0,0.723 0.34,1.287 1.021,1.691c0.68,0.404 1.744,0.84 3.19,1.308c1.447,0.489 2.622,0.957 3.526,1.404c0.904,0.446 1.685,1.095 2.345,1.946c0.659,0.851 0.989,1.946 0.989,3.286c-0,1.276 -0.324,2.435 -0.973,3.478c-0.649,1.042 -1.59,1.871 -2.824,2.488c-1.233,0.617 -2.69,0.925 -4.371,0.925Z" style="fill-rule:nonzero;"/><path d="M60.971,36.421l-0,4.53l7.306,0l-0,4.212l-7.306,-0l-0,4.913l8.263,0l-0,4.371l-13.719,0l-0,-22.397l13.719,-0l-0,4.371l-8.263,-0Z" style="fill-rule:nonzero;"/><path d="M83.368,54.67c-2.106,0 -4.036,-0.489 -5.791,-1.467c-1.755,-0.979 -3.148,-2.345 -4.179,-4.1c-1.032,-1.755 -1.548,-3.728 -1.548,-5.918c0,-2.191 0.516,-4.159 1.548,-5.903c1.031,-1.744 2.424,-3.105 4.179,-4.084c1.755,-0.978 3.685,-1.467 5.791,-1.467c2.106,-0 4.036,0.489 5.791,1.467c1.754,0.979 3.137,2.34 4.147,4.084c1.01,1.744 1.516,3.712 1.516,5.903c-0,2.19 -0.511,4.163 -1.532,5.918c-1.021,1.755 -2.403,3.121 -4.147,4.1c-1.745,0.978 -3.669,1.467 -5.775,1.467Zm-0,-4.977c1.786,0 3.217,-0.595 4.291,-1.786c1.074,-1.192 1.611,-2.766 1.611,-4.722c0,-1.978 -0.537,-3.558 -1.611,-4.738c-1.074,-1.181 -2.505,-1.771 -4.291,-1.771c-1.808,0 -3.249,0.585 -4.323,1.755c-1.074,1.17 -1.611,2.754 -1.611,4.754c-0,1.978 0.537,3.557 1.611,4.738c1.074,1.18 2.515,1.77 4.323,1.77Z" style="fill-rule:nonzero;"/></g><path d="M129.63,75.22l-12.372,-0l0,-14.409l-8.314,-4.687l20.686,-0l-4.294,9.711l4.294,9.385Z" style="fill:#1e68cb;fill-rule:nonzero;"/><path d="M0.37,75.22l12.372,-0l-0,-14.409l8.314,-4.687l-20.686,-0l4.294,9.711l-4.294,9.385Z" style="fill:#1e68cb;fill-rule:nonzero;"/><rect x="15.028" y="61.931" width="99.946" height="19.094" style="fill:#1e68cb;"/><g><path d="M29.852,68.108l0,2.252l3.632,0l0,2.094l-3.632,0l0,2.443l4.108,-0l0,2.173l-6.82,-0l-0,-11.135l6.82,0l0,2.173l-4.108,0Z" style="fill:#fff;fill-rule:nonzero;"/><path d="M44.127,77.07l-2.268,-3.411l-1.999,3.411l-3.077,-0l3.569,-5.663l-3.648,-5.472l3.156,0l2.237,3.363l1.967,-3.363l3.077,0l-3.537,5.615l3.679,5.52l-3.156,-0Z" style="fill:#fff;fill-rule:nonzero;"/><path d="M58.719,69.52c0,0.645 -0.148,1.234 -0.444,1.768c-0.296,0.534 -0.751,0.965 -1.364,1.293c-0.613,0.328 -1.375,0.492 -2.284,0.492l-1.681,-0l-0,3.997l-2.713,-0l0,-11.135l4.394,0c0.888,0 1.639,0.154 2.252,0.46c0.613,0.307 1.073,0.73 1.38,1.269c0.307,0.539 0.46,1.158 0.46,1.856Zm-4.298,1.396c0.518,-0 0.904,-0.122 1.158,-0.365c0.253,-0.243 0.38,-0.587 0.38,-1.031c0,-0.444 -0.127,-0.788 -0.38,-1.031c-0.254,-0.243 -0.64,-0.365 -1.158,-0.365l-1.475,-0l-0,2.792l1.475,-0Z" style="fill:#fff;fill-rule:nonzero;"/><path d="M64.429,68.108l0,2.252l3.632,0l0,2.094l-3.632,0l0,2.443l4.108,-0l-0,2.173l-6.82,-0l-0,-11.135l6.82,0l-0,2.173l-4.108,0Z" style="fill:#fff;fill-rule:nonzero;"/><path d="M77.562,77.07l-2.316,-4.204l-0.65,0l-0,4.204l-2.712,-0l-0,-11.135l4.552,0c0.877,0 1.626,0.154 2.244,0.46c0.619,0.307 1.081,0.727 1.388,1.261c0.307,0.534 0.46,1.129 0.46,1.784c-0,0.741 -0.209,1.402 -0.627,1.983c-0.417,0.582 -1.033,0.994 -1.847,1.237l2.569,4.41l-3.061,-0Zm-2.966,-6.123l1.681,0c0.497,0 0.87,-0.121 1.118,-0.365c0.249,-0.243 0.373,-0.586 0.373,-1.031c0,-0.422 -0.124,-0.756 -0.373,-0.999c-0.248,-0.243 -0.621,-0.365 -1.118,-0.365l-1.681,0l-0,2.76Z" style="fill:#fff;fill-rule:nonzero;"/><path d="M91.821,65.935l-0,2.173l-2.95,0l-0,8.962l-2.712,-0l-0,-8.962l-2.951,0l0,-2.173l8.613,0Z" style="fill:#fff;fill-rule:nonzero;"/><path d="M98.8,77.181c-0.814,-0 -1.544,-0.133 -2.189,-0.397c-0.645,-0.264 -1.161,-0.656 -1.547,-1.174c-0.385,-0.518 -0.589,-1.142 -0.61,-1.871l2.887,-0c0.042,0.412 0.185,0.727 0.428,0.944c0.243,0.216 0.56,0.325 0.951,0.325c0.402,-0 0.719,-0.093 0.952,-0.278c0.233,-0.185 0.349,-0.441 0.349,-0.769c0,-0.275 -0.093,-0.502 -0.278,-0.682c-0.185,-0.18 -0.412,-0.328 -0.682,-0.444c-0.269,-0.117 -0.653,-0.249 -1.149,-0.397c-0.72,-0.222 -1.306,-0.444 -1.761,-0.666c-0.455,-0.222 -0.846,-0.55 -1.174,-0.983c-0.328,-0.434 -0.491,-1 -0.491,-1.697c-0,-1.037 0.375,-1.848 1.126,-2.435c0.75,-0.587 1.729,-0.88 2.934,-0.88c1.227,-0 2.215,0.293 2.966,0.88c0.751,0.587 1.153,1.404 1.205,2.45l-2.934,0c-0.021,-0.359 -0.153,-0.642 -0.396,-0.848c-0.244,-0.206 -0.556,-0.309 -0.936,-0.309c-0.328,-0 -0.592,0.087 -0.793,0.261c-0.201,0.175 -0.302,0.426 -0.302,0.754c0,0.359 0.17,0.639 0.508,0.84c0.338,0.201 0.867,0.418 1.586,0.651c0.719,0.243 1.303,0.475 1.753,0.697c0.449,0.222 0.838,0.545 1.165,0.968c0.328,0.423 0.492,0.967 0.492,1.634c0,0.634 -0.161,1.21 -0.484,1.728c-0.322,0.519 -0.79,0.931 -1.403,1.238c-0.614,0.306 -1.338,0.46 -2.173,0.46Z" style="fill:#fff;fill-rule:nonzero;"/></g></svg>