<svg clip-rule="evenodd" fill-rule="evenodd" stroke-linejoin="round" stroke-miterlimit="1.41421" viewBox="0 0 404 404" xmlns="http://www.w3.org/2000/svg"><circle cx="201.713" cy="201.687" fill="#fff" r="201.687"/><path d="m254.777 274.124c-4.973 3.481-9.948 6.466-15.419 8.953l9.948 21.886c1.492 3.481 5.471 5.969 9.451 5.969 4.476 0 7.958-3.482 7.958-7.959 0-.994 0-2.487-.498-3.481z" fill="#b06328" fill-rule="nonzero"/><path d="m149.327 274.124-11.44 25.367c-.498 1.492-.498 2.487-.498 3.979 0 4.477 3.482 7.959 7.959 7.959 3.979 0 7.958-2.487 9.45-5.969l9.949-21.886c-5.471-2.487-10.446-5.471-15.42-9.45z" fill="#b06328" fill-rule="nonzero"/><path d="m212 117.441h-19.896v-9.948c0-5.472 4.477-9.948 9.949-9.948 5.471 0 9.948 4.476 9.948 9.948v9.948z" fill="#b06328" fill-rule="nonzero"/><path d="m212 117.441h-9.948v-9.948c0-2.985 1.99-4.974 4.974-4.974 2.985 0 4.974 1.99 4.974 4.974z" fill="#9f5223" fill-rule="nonzero"/><circle cx="202.052" cy="202" fill="#2567c5" r="89.533"/><g fill-rule="nonzero"><path d="m254.777 274.124c-4.973 3.481-9.948 6.466-15.419 8.953l4.476 9.948c2.487-.995 4.974-2.487 6.964-3.482 2.487-1.492 5.969-.497 6.964 2.487l3.482 7.462c.497.994.497 1.989.497 3.481 0 3.482-2.487 6.964-5.969 7.959.995 0 1.492.497 2.487.497 4.477 0 7.958-3.481 7.958-7.958 0-.995 0-2.487-.497-3.482z" fill="#9f5223"/><path d="m149.327 274.124-1.989 4.476c1.989 1.493 3.979 3.482 5.969 4.974 1.989 1.493 2.487 3.98 1.492 5.969l-4.974 10.943c-1.492 3.482-4.974 5.969-9.451 5.969-.994 0-1.99 0-2.487-.497.995 2.984 3.98 5.471 7.462 5.471 3.979 0 7.958-2.487 9.45-5.969l9.949-21.886c-5.472-2.487-10.447-5.471-15.421-9.45z" fill="#9f5223"/><path d="m289.596 182.601c-.498-3.482-1.493-6.466-2.487-9.451l-86.549 23.876c-2.487.498-3.979 3.482-3.482 5.969.498 1.492.995 2.487 2.487 2.985.995.994 2.487.994 3.979.994z" fill="#114590"/><path d="m202.052 132.363c-38.3 0-69.637 31.337-69.637 69.637s31.337 69.637 69.637 69.637 69.637-31.337 69.637-69.637-31.337-69.637-69.637-69.637zm0 119.378c-27.357 0-49.741-22.384-49.741-49.741s22.384-49.741 49.741-49.741c27.358 0 49.741 22.384 49.741 49.741s-22.383 49.741-49.741 49.741z" fill="#eceff9"/><path d="m202.052 172.156c-16.414 0-29.844 13.43-29.844 29.844s13.43 29.844 29.844 29.844c16.415 0 29.844-13.43 29.844-29.844s-13.429-29.844-29.844-29.844zm0 44.766c-8.456 0-14.922-6.466-14.922-14.922s6.466-14.922 14.922-14.922 14.922 6.466 14.922 14.922-6.466 14.922-14.922 14.922z" fill="#eceff9"/><path d="m271.689 132.363 14.425 3.482c3.481.995 6.963 0 9.45-2.487l15.917-15.917-19.896-4.974-4.974-19.896-15.917 15.917c-2.487 2.487-3.481 5.969-2.487 9.45z" fill="#f6b545"/><path d="m285.119 135.845 19.896-19.896-10.943-2.985-19.896 19.897z" fill="#f19920"/><path d="m202.052 206.974c-1.492 0-2.487-.498-3.481-1.492-1.99-1.99-1.99-4.974 0-6.964l99.481-99.481c1.989-1.99 4.973-1.99 6.963 0s1.99 4.974 0 6.964l-99.481 99.481c-.995.995-1.99 1.492-3.482 1.492z" fill="#7f4122"/><path d="m267.71 178.622-19.399 5.471c.995 2.985 1.99 6.467 2.487 9.451l19.399-5.471c-.497-2.985-1.492-6.467-2.487-9.451z" fill="#c4d7e5"/><path d="m231.896 199.015c-.497-3.481-1.492-6.466-2.486-9.45l-14.923 3.979c1.493 2.487 2.487 5.471 2.487 8.456v.995z" fill="#c4d7e5"/><path d="m202.052 206.974c1.492 0 2.487-.498 3.482-1.492l99.481-99.481c1.99-1.99 1.99-4.974 0-6.964l-106.444 106.445c.994.995 1.989 1.492 3.481 1.492z" fill="#73371b"/></g></svg>