<?xml version="1.0" encoding="UTF-8" standalone="no"?><!DOCTYPE svg PUBLIC "-//W3C//DTD SVG 1.1//EN" "http://www.w3.org/Graphics/SVG/1.1/DTD/svg11.dtd"><svg width="100%" height="100%" viewBox="0 0 100 100" version="1.1" xmlns="http://www.w3.org/2000/svg" xmlns:xlink="http://www.w3.org/1999/xlink" xml:space="preserve" xmlns:serif="http://www.serif.com/" style="fill-rule:evenodd;clip-rule:evenodd;stroke-linejoin:round;stroke-miterlimit:2;"><ellipse cx="50.019" cy="50" rx="50.019" ry="50" style="fill:#2fbd7b;"/><path d="M40.944,27.002c-0.765,-1.849 -2.783,-2.833 -4.711,-2.306l-8.746,2.385c-1.73,0.478 -2.932,2.048 -2.932,3.837c-0,24.589 19.938,44.527 44.527,44.527c1.789,0 3.359,-1.202 3.837,-2.932l2.385,-8.746c0.527,-1.928 -0.457,-3.946 -2.306,-4.711l-9.542,-3.976c-1.62,-0.676 -3.498,-0.209 -4.601,1.153l-4.016,4.9c-6.997,-3.31 -12.662,-8.975 -15.972,-15.972l4.9,-4.006c1.362,-1.113 1.829,-2.981 1.153,-4.602l-3.976,-9.541l0,-0.01Z" style="fill:#fff;fill-rule:nonzero;"/></svg>