<svg xmlns="http://www.w3.org/2000/svg" xmlns:xlink="http://www.w3.org/1999/xlink" width="793" zoomAndPan="magnify" viewBox="0 0 595.5 842.249979" height="1122" preserveAspectRatio="xMidYMid meet" version="1.0"><defs><g/></defs><g fill="#086aeb" fill-opacity="1"><g transform="translate(164.678619, 434.448357)"><g><path d="M 102.328125 -41.421875 L 121.640625 0 L 141.140625 0 L 75.59375 -140.734375 L 65.546875 -140.734375 L 6.03125 0 L 15.28125 0 L 32.96875 -41.421875 Z M 98.109375 -50.46875 L 36.796875 -50.46875 L 65.75 -118.21875 L 66.546875 -118.21875 Z M 98.109375 -50.46875 "/></g></g></g><g fill="#000000" fill-opacity="1"><g transform="translate(244.197277, 470.518303)"><g><path d="M 44.101562 -141.011719 C 44.390625 -141.011719 45.84375 -143.042969 46.421875 -144.492188 C 46.859375 -145.363281 46.859375 -145.507812 46.132812 -144.78125 C 45.699219 -144.492188 45.117188 -143.476562 44.683594 -142.605469 C 44.101562 -141.738281 43.957031 -141.011719 44.101562 -141.011719 Z M 60.207031 -103.003906 C 59.914062 -103.003906 57.304688 -98.503906 57.304688 -97.78125 C 57.304688 -97.488281 56.578125 -96.183594 55.5625 -94.878906 C 54.546875 -93.570312 53.386719 -91.542969 53.097656 -90.234375 C 52.660156 -89.074219 52.226562 -88.058594 51.9375 -87.914062 C 51.644531 -87.914062 50.777344 -86.753906 50.050781 -85.011719 C 48.597656 -82.257812 48.164062 -80.515625 48.890625 -79.933594 C 49.46875 -79.355469 49.90625 -79.789062 49.761719 -80.804688 C 49.46875 -81.675781 49.46875 -81.675781 49.90625 -81.242188 C 50.195312 -80.804688 50.628906 -81.242188 51.5 -83.273438 C 52.226562 -84.722656 54.402344 -88.785156 56.289062 -92.410156 C 59.769531 -98.792969 60.496094 -100.246094 59.480469 -99.664062 C 59.042969 -99.375 58.898438 -99.519531 59.335938 -100.390625 C 59.480469 -100.679688 59.914062 -100.824219 60.207031 -100.824219 C 60.496094 -100.679688 60.785156 -100.824219 60.785156 -100.972656 C 60.785156 -101.261719 60.640625 -101.40625 60.496094 -101.40625 C 60.207031 -101.40625 60.207031 -101.839844 60.207031 -102.277344 C 60.351562 -102.710938 60.351562 -103.003906 60.207031 -103.003906 Z M 96.183594 -98.503906 C 96.039062 -98.359375 95.894531 -97.925781 95.894531 -97.632812 C 95.894531 -96.328125 96.617188 -97.34375 97.054688 -99.230469 C 97.488281 -100.246094 97.78125 -101.695312 97.925781 -102.132812 C 98.070312 -102.710938 97.925781 -103.003906 97.78125 -103.003906 C 97.34375 -103.003906 96.617188 -100.679688 96.617188 -99.230469 C 96.472656 -98.941406 96.328125 -98.648438 96.183594 -98.503906 Z M 92.558594 -78.628906 C 93.136719 -81.675781 93.136719 -82.257812 93.570312 -83.996094 C 94.007812 -85.738281 94.007812 -86.464844 93.425781 -86.027344 C 93.136719 -85.738281 91.542969 -78.339844 91.542969 -77.46875 C 91.542969 -76.308594 92.265625 -77.035156 92.558594 -78.628906 Z M 95.023438 -89.800781 C 95.457031 -90.960938 96.039062 -95.023438 95.75 -94.734375 C 95.167969 -94.152344 94.152344 -89.945312 94.441406 -89.511719 C 94.585938 -89.21875 94.878906 -89.363281 95.023438 -89.800781 Z M 84.289062 -40.476562 C 84.140625 -40.183594 84.140625 -39.75 84.433594 -39.75 C 85.011719 -39.75 85.011719 -40.039062 86.027344 -44.972656 C 86.753906 -48.890625 86.753906 -49.324219 86.320312 -49.324219 C 86.171875 -49.324219 85.59375 -47.4375 85.15625 -45.261719 C 84.722656 -42.941406 84.289062 -40.910156 84.289062 -40.476562 Z M 98.070312 -103.871094 C 98.359375 -103.871094 98.503906 -104.164062 98.503906 -104.597656 C 98.503906 -105.03125 98.648438 -105.757812 98.941406 -106.046875 C 99.375 -106.628906 101.40625 -113.445312 103.871094 -122.007812 C 104.308594 -123.601562 105.179688 -126.359375 105.757812 -128.101562 C 106.339844 -129.839844 107.5 -133.46875 108.371094 -136.078125 C 109.09375 -138.542969 110.253906 -142.316406 110.980469 -144.058594 C 112.140625 -147.539062 112.433594 -149.714844 111.707031 -148.410156 C 111.269531 -147.976562 105.613281 -131 104.742188 -127.664062 C 104.597656 -126.792969 103.148438 -122.730469 101.839844 -118.523438 C 99.664062 -111.707031 97.632812 -104.886719 97.632812 -104.164062 C 97.632812 -104.015625 97.78125 -103.871094 98.070312 -103.871094 Z M 29.738281 -84.140625 C 29.738281 -84.289062 29.449219 -84.433594 29.160156 -84.433594 C 28.578125 -84.433594 28 -83.273438 28 -82.257812 C 28 -81.820312 29.738281 -83.5625 29.738281 -84.140625 Z M 88.203125 -60.207031 C 88.058594 -59.191406 87.480469 -56.578125 87.042969 -54.402344 C 86.609375 -52.515625 86.320312 -50.628906 86.320312 -50.484375 C 86.320312 -49.90625 87.1875 -51.210938 87.335938 -52.226562 C 87.480469 -53.242188 88.058594 -55.851562 88.640625 -58.609375 C 89.363281 -61.800781 89.363281 -62.382812 88.929688 -62.382812 C 88.785156 -62.382812 88.347656 -61.367188 88.203125 -60.207031 Z M 1.160156 -1.449219 C 1.742188 -1.449219 2.175781 -1.160156 2.175781 -0.871094 C 2.464844 0.144531 7.253906 2.464844 9.71875 2.902344 C 12.476562 3.335938 13.054688 3.335938 13.054688 2.757812 C 13.054688 2.320312 13.636719 2.175781 14.652344 2.175781 C 15.378906 2.175781 16.828125 1.886719 17.699219 1.742188 C 19.003906 1.304688 19.148438 1.160156 19.441406 -0.871094 C 19.585938 -1.886719 20.019531 -3.480469 20.308594 -4.207031 C 20.601562 -4.933594 21.617188 -8.414062 22.488281 -11.75 C 23.355469 -15.085938 24.371094 -18.277344 24.515625 -18.714844 C 24.664062 -19.148438 25.242188 -20.746094 25.824219 -22.488281 C 26.402344 -24.082031 26.984375 -25.679688 27.128906 -26.113281 C 28 -28 29.738281 -33.367188 29.738281 -33.945312 C 29.738281 -34.238281 30.03125 -35.109375 30.320312 -35.6875 C 30.753906 -36.414062 31.046875 -37.140625 31.046875 -37.574219 C 31.046875 -38.007812 31.335938 -38.589844 31.625 -39.167969 C 31.917969 -39.605469 32.929688 -41.78125 33.65625 -43.957031 C 34.382812 -46.132812 35.253906 -48.308594 35.542969 -48.746094 C 36.558594 -50.921875 40.332031 -59.625 41.199219 -62.089844 C 41.925781 -63.976562 42.070312 -64.847656 41.636719 -64.992188 C 41.492188 -65.136719 41.347656 -65.429688 41.492188 -65.71875 C 41.636719 -66.152344 41.78125 -66.152344 41.925781 -65.863281 C 42.363281 -65.429688 43.085938 -66.296875 44.101562 -68.328125 C 44.539062 -69.34375 44.539062 -69.488281 43.8125 -69.488281 C 43.230469 -69.488281 43.230469 -69.488281 43.957031 -69.78125 C 44.683594 -70.070312 45.554688 -71.519531 47.003906 -74.277344 C 49.035156 -78.628906 49.324219 -79.5 48.453125 -79.210938 C 48.164062 -79.210938 47.148438 -77.324219 45.988281 -75.003906 C 44.828125 -72.535156 43.957031 -71.085938 43.8125 -71.375 C 43.523438 -71.8125 43.375 -71.667969 43.085938 -71.085938 C 42.941406 -70.652344 42.363281 -69.78125 41.925781 -68.910156 C 41.347656 -68.328125 40.183594 -65.863281 39.460938 -63.6875 C 38.734375 -61.511719 37.71875 -59.191406 37.285156 -58.609375 C 36.847656 -57.882812 35.832031 -56 34.960938 -54.546875 C 32.640625 -50.777344 32.785156 -51.792969 35.109375 -56.144531 C 36.269531 -58.175781 37.574219 -61.222656 38.300781 -63.105469 C 39.023438 -64.992188 39.894531 -67.023438 40.332031 -67.75 C 40.765625 -68.472656 41.054688 -69.34375 41.054688 -69.636719 C 41.054688 -69.925781 42.070312 -71.667969 43.085938 -73.550781 C 44.246094 -75.4375 45.117188 -77.324219 45.117188 -77.613281 C 45.117188 -78.050781 45.40625 -78.917969 45.988281 -79.644531 C 46.421875 -80.226562 47.4375 -82.402344 48.308594 -84.140625 C 50.777344 -89.511719 58.609375 -103.871094 63.105469 -111.125 C 79.355469 -137.238281 101.117188 -166.109375 113.59375 -177.714844 C 119.976562 -183.664062 121.714844 -184.386719 116.640625 -179.308594 C 114.316406 -176.84375 111.851562 -174.378906 111.269531 -173.796875 C 110.691406 -173.21875 107.933594 -170.027344 105.179688 -166.6875 C 102.277344 -163.207031 99.808594 -160.304688 99.664062 -160.015625 C 99.375 -159.871094 97.925781 -158.128906 96.472656 -156.242188 C 95.023438 -154.210938 93.28125 -152.035156 92.410156 -151.167969 C 91.6875 -150.296875 91.105469 -149.425781 91.105469 -149.136719 C 91.105469 -148.699219 81.964844 -136.367188 80.371094 -134.628906 C 79.644531 -133.902344 78.773438 -132.597656 78.339844 -131.726562 C 77.90625 -130.855469 77.179688 -129.550781 76.453125 -128.824219 C 75.292969 -127.519531 73.84375 -125.199219 71.519531 -121.136719 C 70.652344 -119.539062 69.488281 -117.800781 68.910156 -117.21875 C 67.460938 -115.914062 64.992188 -111.996094 64.121094 -109.820312 C 63.6875 -108.804688 62.816406 -107.355469 62.382812 -106.628906 C 61.367188 -105.179688 60.496094 -101.40625 61.222656 -101.40625 C 61.367188 -101.40625 62.527344 -103.148438 63.6875 -105.179688 C 64.703125 -107.355469 66.878906 -110.691406 68.183594 -112.578125 C 69.636719 -114.609375 72.246094 -118.667969 74.132812 -121.570312 C 86.898438 -141.738281 105.902344 -166.109375 117.507812 -177.132812 C 120.265625 -179.746094 120.847656 -180.035156 120.847656 -179.308594 C 120.847656 -178.003906 119.105469 -170.171875 118.378906 -168.285156 C 117.945312 -167.414062 117.800781 -166.253906 117.945312 -165.671875 C 118.234375 -163.933594 115.769531 -155.226562 111.851562 -143.914062 C 107.933594 -132.597656 102.855469 -116.203125 101.839844 -112.285156 C 101.695312 -111.269531 101.261719 -109.53125 100.824219 -108.660156 C 100.535156 -107.644531 100.390625 -106.773438 100.535156 -106.484375 C 100.679688 -106.339844 100.535156 -105.902344 100.101562 -105.613281 C 99.808594 -105.324219 99.230469 -103.4375 99.085938 -101.40625 C 98.648438 -99.375 98.214844 -96.910156 97.78125 -95.894531 C 97.054688 -93.570312 96.617188 -91.25 96.617188 -89.363281 C 96.472656 -88.496094 96.183594 -87.1875 95.75 -86.609375 C 95.457031 -85.882812 95.167969 -85.15625 95.457031 -85.011719 C 95.894531 -84.867188 95.457031 -82.402344 95.023438 -82.402344 C 94.878906 -82.402344 94.734375 -81.675781 94.734375 -80.660156 C 94.734375 -79.644531 94.441406 -78.628906 94.296875 -78.628906 C 94.007812 -78.484375 93.863281 -77.324219 93.863281 -76.164062 C 93.71875 -74.710938 93.425781 -73.84375 92.992188 -73.550781 C 92.410156 -73.117188 92.410156 -72.972656 92.703125 -72.972656 C 93.136719 -72.972656 93.28125 -72.535156 93.136719 -71.085938 C 92.558594 -68.039062 92.265625 -67.3125 91.832031 -67.894531 C 91.6875 -68.328125 91.542969 -67.75 91.542969 -66.296875 C 91.542969 -62.382812 89.511719 -52.515625 88.785156 -52.515625 C 88.496094 -52.515625 88.496094 -51.792969 88.640625 -50.777344 C 88.929688 -49.613281 88.785156 -49.324219 88.496094 -49.46875 C 88.058594 -49.761719 87.769531 -48.164062 87.914062 -46.132812 C 87.914062 -44.972656 86.171875 -36.269531 85.59375 -34.527344 C 85.15625 -33.65625 84.867188 -32.640625 84.867188 -32.207031 C 84.867188 -31.191406 83.707031 -28.578125 83.417969 -28.871094 C 83.273438 -29.015625 83.417969 -30.753906 83.851562 -32.785156 C 84.578125 -37.140625 84.722656 -38.734375 84.140625 -38.445312 C 83.5625 -38.152344 82.257812 -31.191406 82.402344 -29.304688 C 82.546875 -28.144531 82.691406 -27.707031 83.417969 -27.5625 C 83.851562 -27.5625 84.867188 -26.839844 85.59375 -25.96875 C 86.320312 -25.097656 87.042969 -24.515625 87.1875 -24.664062 C 87.480469 -24.808594 87.480469 -25.097656 87.335938 -25.242188 C 86.898438 -25.824219 87.625 -25.679688 88.496094 -24.953125 C 88.929688 -24.515625 89.363281 -24.082031 89.363281 -23.792969 C 89.363281 -23.5 89.945312 -23.210938 90.816406 -22.921875 C 91.6875 -22.632812 92.410156 -22.632812 92.410156 -22.921875 C 92.410156 -23.066406 92.703125 -23.066406 92.992188 -22.921875 C 94.296875 -22.488281 95.894531 -23.9375 96.183594 -25.96875 C 96.617188 -28.578125 97.925781 -32.207031 100.535156 -37.574219 C 102.855469 -42.652344 104.886719 -47.730469 104.742188 -48.308594 C 104.597656 -48.453125 104.886719 -48.746094 105.324219 -49.035156 C 105.902344 -49.46875 106.046875 -49.90625 105.757812 -50.628906 C 105.613281 -51.210938 105.757812 -51.644531 105.902344 -51.792969 C 106.195312 -51.9375 106.339844 -52.660156 106.339844 -53.242188 C 106.339844 -53.96875 106.484375 -54.113281 106.773438 -53.675781 C 107.210938 -53.097656 107.210938 -53.242188 107.5 -53.820312 C 107.644531 -54.113281 107.644531 -54.546875 107.5 -54.691406 C 107.355469 -54.835938 107.5 -55.128906 107.933594 -55.417969 C 108.222656 -55.5625 108.804688 -56.578125 109.238281 -57.738281 C 109.53125 -58.753906 110.546875 -60.929688 111.417969 -62.671875 C 112.285156 -64.265625 113.445312 -66.878906 114.171875 -68.472656 C 115.769531 -72.246094 122.730469 -84.867188 126.214844 -90.378906 C 127.808594 -92.847656 129.113281 -94.878906 129.113281 -95.023438 C 129.113281 -95.167969 130.710938 -97.054688 132.453125 -99.375 C 134.335938 -101.550781 135.789062 -103.582031 135.789062 -103.726562 C 135.789062 -103.871094 136.222656 -104.308594 136.804688 -104.742188 C 137.820312 -105.324219 137.964844 -105.324219 138.109375 -104.742188 C 138.398438 -103.871094 138.109375 -93.28125 137.820312 -92.847656 C 137.675781 -92.703125 137.238281 -89.65625 136.804688 -86.027344 C 136.515625 -82.402344 135.789062 -77.46875 135.5 -74.859375 C 134.773438 -69.925781 135.0625 -68.621094 135.933594 -70.359375 C 136.515625 -71.085938 136.660156 -70.941406 136.660156 -68.472656 C 136.660156 -66.878906 136.660156 -63.25 136.515625 -60.207031 C 136.515625 -57.160156 136.367188 -53.820312 136.367188 -52.953125 C 136.367188 -50.777344 135.933594 -50.777344 135.5 -52.808594 C 135.207031 -54.546875 134.335938 -54.984375 134.335938 -53.53125 C 134.335938 -52.226562 135.644531 -49.613281 136.222656 -49.613281 C 136.367188 -49.613281 136.660156 -49.46875 136.660156 -49.035156 C 136.660156 -48.308594 141.300781 -43.957031 141.738281 -44.246094 C 141.882812 -44.390625 142.605469 -44.101562 143.332031 -43.523438 C 145.074219 -42.507812 147.976562 -41.347656 148.410156 -41.636719 C 148.699219 -41.78125 148.988281 -41.636719 149.136719 -41.347656 C 149.714844 -40.476562 152.90625 -41.054688 156.242188 -42.363281 C 157.984375 -43.085938 159.582031 -43.8125 159.871094 -43.8125 C 160.160156 -43.8125 160.304688 -43.957031 160.304688 -44.246094 C 160.304688 -44.683594 161.03125 -45.554688 162.046875 -46.132812 C 163.640625 -47.4375 168.140625 -52.808594 168.140625 -53.675781 C 168.140625 -53.820312 167.558594 -54.691406 166.980469 -55.417969 C 165.527344 -57.015625 164.949219 -57.015625 162.046875 -54.835938 C 159 -52.515625 147.539062 -47.003906 146.667969 -47.4375 C 146.523438 -47.585938 146.523438 -48.164062 146.523438 -48.746094 C 146.667969 -49.324219 146.667969 -49.613281 146.378906 -49.613281 C 146.234375 -49.613281 146.089844 -51.792969 146.234375 -54.402344 C 146.234375 -58.320312 146.234375 -59.191406 145.652344 -59.769531 C 144.78125 -60.496094 144.636719 -61.800781 145.363281 -62.089844 C 146.089844 -62.527344 146.667969 -65.136719 146.667969 -68.621094 C 146.8125 -70.359375 146.960938 -72.535156 147.105469 -73.261719 C 147.394531 -74.132812 147.25 -75.003906 146.960938 -75.4375 C 146.523438 -76.019531 146.667969 -76.308594 147.105469 -76.453125 C 147.683594 -76.890625 147.976562 -79.933594 148.84375 -90.816406 C 149.714844 -103.003906 149.425781 -106.195312 147.105469 -109.675781 L 145.652344 -111.851562 L 143.476562 -111.5625 L 141.445312 -111.269531 L 141.738281 -112.433594 C 141.882812 -113.445312 141.882812 -113.59375 139.851562 -114.027344 C 138.398438 -114.171875 137.53125 -114.316406 137.382812 -114.027344 C 137.238281 -113.738281 137.09375 -113.738281 136.804688 -114.027344 C 136.367188 -114.609375 133.46875 -113.15625 131.582031 -111.269531 C 126.503906 -106.339844 118.234375 -95.75 118.234375 -94.296875 C 118.234375 -93.863281 117.945312 -93.425781 117.65625 -93.28125 C 116.640625 -92.992188 107.789062 -77.613281 107.789062 -76.453125 C 107.789062 -76.019531 107.355469 -75.582031 107.0625 -75.292969 C 106.628906 -75.148438 106.339844 -74.710938 106.339844 -74.566406 C 106.339844 -74.421875 105.46875 -72.683594 104.453125 -70.503906 C 103.292969 -68.472656 102.566406 -67.460938 102.710938 -68.183594 C 102.855469 -68.765625 102.710938 -69.488281 102.566406 -69.636719 C 102.277344 -69.78125 101.988281 -70.359375 101.988281 -70.941406 C 101.988281 -71.519531 102.277344 -71.8125 102.710938 -71.667969 C 103.726562 -71.519531 103.871094 -72.390625 107.210938 -86.609375 C 108.660156 -92.703125 109.964844 -97.925781 110.109375 -98.359375 C 110.253906 -98.648438 110.109375 -99.085938 109.964844 -99.230469 C 109.675781 -99.375 109.386719 -99.957031 109.386719 -100.246094 C 109.386719 -100.679688 109.675781 -100.972656 109.820312 -100.824219 C 110.109375 -100.679688 110.546875 -100.972656 110.691406 -101.261719 C 111.125 -102.132812 114.460938 -113.300781 115.476562 -117.507812 C 115.769531 -118.960938 116.203125 -120.265625 116.347656 -120.554688 C 116.492188 -120.699219 116.640625 -121.425781 116.785156 -122.007812 C 116.785156 -122.878906 117.507812 -125.054688 121.28125 -137.238281 C 122.152344 -139.558594 123.167969 -143.042969 123.746094 -144.929688 C 124.183594 -146.667969 125.199219 -150.296875 126.070312 -152.761719 C 130.128906 -166.835938 131.582031 -172.925781 131.582031 -177.570312 C 131.582031 -180.324219 131.4375 -180.90625 130.277344 -183.082031 C 128.96875 -185.402344 128.96875 -185.402344 127.085938 -185.402344 C 125.488281 -185.402344 125.199219 -185.402344 125.199219 -186.128906 C 125.199219 -187.433594 124.761719 -187.871094 122.585938 -188.304688 C 120.699219 -188.738281 120.410156 -188.59375 117.800781 -187.578125 C 110.402344 -184.242188 97.054688 -169.445312 78.050781 -143.765625 C 69.34375 -131.726562 65.28125 -126.070312 63.398438 -122.878906 C 62.382812 -121.28125 61.074219 -118.960938 60.351562 -117.800781 C 59.625 -116.640625 59.191406 -115.625 59.480469 -115.625 C 59.769531 -115.625 59.914062 -115.476562 59.769531 -115.332031 C 59.625 -115.042969 59.335938 -114.898438 59.191406 -115.042969 C 58.609375 -115.332031 57.59375 -113.445312 58.027344 -112.867188 C 58.175781 -112.722656 58.027344 -112.578125 57.738281 -112.578125 C 57.449219 -112.578125 57.160156 -112.433594 57.015625 -112.140625 C 56.867188 -111.851562 57.015625 -111.707031 57.304688 -111.851562 C 57.59375 -111.996094 57.449219 -111.417969 56.867188 -110.546875 C 56.289062 -109.53125 55.851562 -108.949219 55.417969 -109.238281 C 55.128906 -109.386719 55.128906 -109.238281 55.273438 -108.804688 C 55.417969 -108.515625 54.835938 -107.0625 53.96875 -105.613281 C 53.242188 -104.164062 52.515625 -102.710938 52.515625 -102.421875 C 52.515625 -102.132812 52.226562 -101.695312 51.9375 -101.261719 C 50.195312 -99.957031 40.476562 -81.097656 38.734375 -76.164062 C 38.300781 -75.003906 37.71875 -73.84375 37.574219 -73.550781 C 37.429688 -73.40625 37.140625 -72.972656 37.140625 -72.535156 C 37.140625 -72.101562 36.847656 -71.667969 36.558594 -71.375 C 35.976562 -70.796875 32.785156 -64.558594 32.785156 -63.832031 C 32.785156 -63.6875 32.351562 -62.527344 31.769531 -61.367188 C 28 -54.257812 26.113281 -49.613281 26.546875 -49.179688 C 26.984375 -48.890625 27.273438 -49.324219 28 -50.484375 C 28.433594 -51.5 29.449219 -53.53125 30.320312 -55.273438 C 31.191406 -56.867188 32.0625 -58.898438 32.351562 -59.769531 C 32.785156 -60.640625 33.078125 -61.511719 33.222656 -61.800781 C 33.511719 -61.945312 35.398438 -66.007812 37.574219 -70.796875 C 39.894531 -75.582031 42.214844 -80.804688 42.941406 -82.257812 C 44.683594 -85.882812 55.128906 -104.308594 55.417969 -104.164062 C 55.5625 -104.015625 47.003906 -88.640625 46.421875 -87.769531 C 45.699219 -87.042969 42.214844 -79.789062 40.476562 -75.582031 C 39.460938 -73.117188 37.71875 -69.34375 36.558594 -67.023438 C 33.511719 -60.929688 30.320312 -53.820312 28.871094 -50.195312 C 25.96875 -42.796875 24.953125 -40.476562 24.371094 -39.605469 C 24.082031 -39.167969 23.5 -38.152344 23.210938 -37.285156 C 22.777344 -36.414062 22.488281 -35.832031 22.488281 -36.125 C 22.195312 -36.558594 24.226562 -41.78125 26.113281 -46.421875 C 26.984375 -48.308594 26.984375 -48.890625 26.257812 -48.890625 C 25.679688 -48.890625 21.617188 -39.023438 21.179688 -36.992188 C 21.179688 -36.703125 21.035156 -36.125 20.890625 -35.832031 C 20.164062 -34.382812 14.363281 -18.570312 14.21875 -18.132812 C 14.070312 -17.699219 13.636719 -16.683594 13.203125 -15.667969 C 12.621094 -14.652344 12.042969 -13.054688 11.75 -12.1875 C 11.460938 -11.316406 11.027344 -10.589844 10.878906 -10.589844 C 10.589844 -10.589844 10.589844 -11.027344 10.878906 -11.460938 C 11.027344 -11.894531 11.460938 -14.21875 11.75 -16.539062 C 12.042969 -18.714844 12.476562 -21.90625 12.910156 -23.355469 C 13.203125 -24.953125 13.636719 -26.695312 13.636719 -27.128906 C 13.78125 -27.707031 14.363281 -29.160156 14.796875 -30.464844 C 15.667969 -32.351562 15.667969 -32.929688 15.234375 -33.222656 C 14.796875 -33.367188 14.796875 -33.511719 15.234375 -33.511719 C 15.523438 -33.511719 15.667969 -33.800781 15.667969 -34.238281 C 15.523438 -34.671875 15.667969 -35.109375 15.957031 -35.542969 C 16.539062 -36.125 18.425781 -42.363281 18.425781 -43.667969 C 18.425781 -44.101562 18.570312 -44.828125 18.714844 -45.261719 C 19.441406 -46.277344 20.457031 -50.050781 20.890625 -52.226562 C 21.035156 -53.242188 21.179688 -53.96875 21.472656 -53.96875 C 21.617188 -53.96875 21.90625 -54.691406 22.050781 -55.417969 C 22.339844 -56.722656 25.824219 -66.589844 28.289062 -73.550781 C 29.015625 -75.582031 30.320312 -78.917969 31.046875 -81.097656 C 31.769531 -83.273438 32.785156 -85.738281 33.222656 -86.609375 C 34.09375 -88.203125 34.382812 -89.21875 34.382812 -89.511719 C 34.382812 -89.65625 34.816406 -90.378906 35.109375 -91.105469 C 35.542969 -91.832031 35.832031 -92.558594 35.6875 -92.703125 C 35.398438 -93.136719 36.558594 -96.472656 36.992188 -96.472656 C 37.285156 -96.472656 37.71875 -97.34375 38.152344 -98.359375 C 38.445312 -99.230469 39.316406 -101.117188 39.894531 -102.277344 C 40.476562 -103.4375 41.636719 -106.046875 42.363281 -107.933594 C 44.828125 -114.027344 45.40625 -115.042969 53.96875 -131.582031 C 59.769531 -142.898438 66.152344 -154.066406 68.621094 -157.40625 C 70.070312 -159.433594 72.101562 -162.191406 73.117188 -163.789062 C 73.988281 -165.382812 76.019531 -167.851562 77.324219 -169.445312 C 80.804688 -173.652344 80.515625 -175.25 75.875 -177.570312 C 74.421875 -178.296875 73.117188 -178.730469 72.828125 -178.585938 C 72.828125 -178.441406 71.957031 -178.296875 70.941406 -178.441406 C 69.488281 -178.441406 69.054688 -178.296875 66.878906 -176.410156 C 63.832031 -173.652344 58.609375 -167.703125 58.609375 -166.835938 C 58.609375 -166.109375 57.160156 -163.351562 55.851562 -161.757812 C 55.417969 -161.175781 54.402344 -159.433594 53.53125 -157.984375 C 52.660156 -156.535156 51.066406 -153.921875 50.050781 -152.035156 C 49.035156 -150.296875 48.164062 -148.554688 48.308594 -148.265625 C 48.308594 -148.121094 48.890625 -148.554688 49.46875 -149.570312 C 49.90625 -150.441406 50.484375 -151.167969 50.484375 -151.167969 C 50.628906 -151.167969 49.613281 -149.28125 48.308594 -146.8125 C 45.554688 -142.027344 41.054688 -133.46875 41.054688 -133.175781 C 41.054688 -133.175781 40.621094 -132.160156 40.039062 -130.855469 C 39.460938 -129.695312 38.878906 -128.679688 38.878906 -128.535156 C 38.878906 -128.390625 38.734375 -127.664062 38.300781 -126.9375 C 31.480469 -113.011719 23.9375 -95.894531 20.601562 -86.898438 C 16.539062 -75.726562 12.621094 -64.847656 11.171875 -59.914062 C 9.285156 -54.113281 5.804688 -41.636719 5.222656 -39.023438 C 4.933594 -38.007812 4.496094 -36.125 4.207031 -34.671875 C 2.464844 -28.722656 0.433594 -15.085938 0.289062 -8.996094 L 0.289062 -5.65625 L -0.144531 -10.300781 C -0.289062 -13.925781 -0.289062 -15.957031 0.144531 -18.425781 C 0.726562 -21.472656 0.726562 -22.488281 0.144531 -22.050781 C -0.433594 -21.472656 -1.304688 -14.070312 -1.304688 -9.863281 C -1.304688 -5.804688 -1.160156 -4.496094 -0.433594 -3.191406 C 0.144531 -2.03125 0.582031 -1.449219 1.160156 -1.449219 Z M 136.949219 -71.667969 C 136.804688 -71.375 136.660156 -71.519531 136.660156 -71.957031 C 136.660156 -72.390625 136.804688 -72.683594 136.804688 -72.535156 C 137.09375 -72.390625 137.09375 -71.957031 136.949219 -71.667969 Z M 138.691406 -61.367188 C 139.125 -62.816406 139.125 -62.816406 139.125 -60.496094 C 139.125 -59.191406 138.980469 -57.160156 138.835938 -56 L 138.542969 -53.820312 L 138.398438 -56.867188 C 138.398438 -58.464844 138.542969 -60.496094 138.691406 -61.367188 Z M 99.664062 -94.007812 C 99.808594 -94.585938 99.957031 -95.894531 100.101562 -96.910156 C 100.246094 -98.070312 100.679688 -98.648438 100.972656 -98.648438 C 101.40625 -98.648438 101.40625 -99.085938 101.261719 -99.957031 C 101.117188 -100.824219 101.261719 -101.117188 101.40625 -100.679688 C 101.839844 -100.390625 101.988281 -100.535156 102.277344 -101.117188 C 103.726562 -103.871094 104.308594 -107.210938 103.148438 -106.773438 C 102.855469 -106.628906 103.003906 -106.773438 103.4375 -107.0625 C 103.871094 -107.355469 104.164062 -107.789062 104.164062 -108.078125 C 104.164062 -108.371094 104.308594 -108.660156 104.597656 -108.660156 C 105.46875 -109.238281 103.726562 -101.839844 102.855469 -100.824219 C 102.277344 -100.101562 101.117188 -96.328125 101.117188 -94.878906 C 101.117188 -94.296875 100.824219 -93.28125 100.535156 -92.703125 C 99.808594 -91.6875 99.808594 -91.6875 100.101562 -93.136719 C 100.246094 -94.296875 100.246094 -94.441406 99.808594 -93.71875 C 99.375 -92.992188 99.375 -93.136719 99.664062 -94.007812 Z M 103.148438 -84.433594 C 103.003906 -83.996094 103.003906 -84.140625 103.003906 -84.578125 C 102.855469 -85.011719 103.003906 -85.304688 103.148438 -85.15625 C 103.292969 -85.011719 103.292969 -84.722656 103.148438 -84.433594 Z M 96.039062 -79.210938 C 96.183594 -80.949219 97.054688 -84.433594 98.214844 -88.785156 C 98.503906 -89.945312 98.792969 -90.234375 99.085938 -89.945312 C 99.230469 -89.511719 99.375 -89.65625 99.375 -90.234375 C 99.375 -90.671875 99.664062 -90.527344 99.957031 -89.511719 L 100.535156 -88.203125 L 101.117188 -89.363281 C 101.550781 -90.527344 101.550781 -90.527344 101.261719 -88.929688 C 100.972656 -87.042969 99.375 -83.707031 99.085938 -84.433594 C 98.792969 -85.15625 97.632812 -84.140625 97.632812 -83.125 C 97.632812 -82.691406 97.199219 -81.097656 96.765625 -79.644531 L 95.894531 -77.179688 Z M 97.925781 -66.589844 C 97.78125 -66.296875 97.632812 -66.296875 97.632812 -66.878906 C 97.632812 -67.3125 97.78125 -67.460938 97.925781 -67.3125 C 98.070312 -67.167969 98.070312 -66.878906 97.925781 -66.589844 Z M 95.75 -76.597656 C 95.894531 -76.453125 95.894531 -75.875 95.75 -75.726562 C 95.601562 -75.4375 95.457031 -75.582031 95.457031 -76.164062 C 95.457031 -76.742188 95.601562 -76.890625 95.75 -76.597656 Z M 94.441406 -69.78125 C 94.585938 -69.636719 94.585938 -69.199219 94.441406 -68.910156 C 94.296875 -68.621094 94.152344 -68.765625 94.152344 -69.199219 C 94.152344 -69.636719 94.296875 -69.925781 94.441406 -69.78125 Z M 93.136719 -62.960938 C 93.28125 -62.816406 93.28125 -62.527344 93.136719 -62.238281 C 92.992188 -61.945312 92.847656 -62.089844 92.847656 -62.527344 C 92.847656 -62.960938 92.992188 -63.105469 93.136719 -62.960938 Z M 87.625 -35.542969 C 87.480469 -35.832031 87.914062 -36.414062 88.203125 -36.847656 C 88.496094 -37.285156 88.785156 -37.429688 88.785156 -37.285156 C 88.785156 -36.558594 87.625 -34.816406 87.625 -35.542969 Z M 93.28125 -53.820312 C 92.847656 -52.953125 92.121094 -51.355469 91.832031 -50.195312 C 91.542969 -49.035156 91.105469 -48.164062 90.960938 -48.164062 C 90.378906 -48.308594 89.511719 -43.523438 89.945312 -43.085938 C 90.378906 -42.652344 90.671875 -43.230469 90.816406 -44.972656 C 91.105469 -46.859375 91.542969 -47.4375 91.542969 -45.84375 C 91.6875 -43.8125 91.394531 -42.796875 90.527344 -40.476562 C 89.511719 -38.007812 89.074219 -37.574219 89.511719 -39.460938 C 89.65625 -40.183594 89.511719 -40.476562 89.363281 -40.332031 C 89.074219 -40.332031 88.929688 -39.75 88.929688 -39.460938 C 88.929688 -39.023438 88.640625 -38.589844 88.496094 -38.445312 C 88.203125 -38.300781 88.058594 -38.589844 88.203125 -39.316406 C 88.347656 -39.894531 89.21875 -44.683594 90.234375 -49.90625 C 91.25 -55.128906 92.121094 -59.914062 92.265625 -60.496094 L 92.558594 -61.800781 L 92.847656 -60.640625 C 93.136719 -58.609375 93.863281 -59.335938 94.007812 -61.945312 C 94.007812 -63.25 94.296875 -64.558594 94.585938 -64.847656 C 94.734375 -65.136719 95.023438 -66.445312 95.167969 -67.75 C 95.3125 -69.636719 95.601562 -70.503906 96.328125 -71.085938 C 96.765625 -71.519531 97.199219 -72.101562 97.199219 -72.246094 C 97.199219 -72.535156 97.34375 -72.683594 97.34375 -72.535156 C 97.488281 -72.535156 97.488281 -71.667969 97.199219 -70.796875 C 97.054688 -69.925781 96.183594 -66.152344 95.457031 -62.238281 C 94.734375 -58.027344 93.863281 -54.691406 93.28125 -53.820312 Z M 97.054688 -62.238281 C 96.910156 -61.945312 96.765625 -62.089844 96.765625 -62.527344 C 96.765625 -62.960938 96.910156 -63.105469 97.054688 -62.960938 C 97.199219 -62.816406 97.199219 -62.527344 97.054688 -62.238281 Z M 95.457031 -52.808594 C 95.023438 -51.210938 94.878906 -51.066406 94.441406 -51.5 C 94.296875 -51.644531 95.601562 -56.722656 96.039062 -57.015625 C 96.472656 -57.449219 96.039062 -55.273438 95.457031 -52.808594 Z M 97.199219 -60.351562 L 96.328125 -59.335938 L 96.328125 -60.207031 C 96.328125 -60.785156 96.765625 -61.367188 97.199219 -61.511719 C 97.632812 -61.800781 98.070312 -61.800781 98.070312 -61.511719 C 98.070312 -61.367188 97.632812 -60.785156 97.199219 -60.351562 Z M 101.839844 -78.628906 C 101.695312 -77.613281 101.40625 -76.308594 101.261719 -75.582031 C 100.972656 -74.421875 100.824219 -73.261719 100.679688 -72.390625 C 100.679688 -72.101562 100.246094 -71.8125 99.808594 -71.667969 C 99.230469 -71.519531 98.941406 -71.230469 98.941406 -70.503906 L 99.085938 -69.636719 L 99.375 -70.652344 C 99.808594 -71.519531 99.808594 -71.519531 99.664062 -70.359375 C 99.664062 -69.78125 99.375 -69.34375 99.085938 -69.34375 C 98.941406 -69.34375 98.648438 -69.199219 98.359375 -68.910156 C 98.214844 -68.621094 98.214844 -69.054688 98.214844 -69.78125 C 98.359375 -70.652344 98.792969 -73.117188 99.230469 -75.292969 C 99.957031 -80.371094 101.261719 -85.304688 101.40625 -84.289062 C 101.550781 -83.996094 101.261719 -82.546875 100.972656 -81.097656 C 100.535156 -79.789062 100.246094 -78.339844 100.390625 -77.90625 C 100.535156 -77.179688 100.535156 -77.179688 100.824219 -77.90625 C 101.839844 -80.226562 101.988281 -80.226562 101.839844 -78.628906 Z M 110.109375 -72.101562 C 110.691406 -72.972656 111.125 -73.84375 110.980469 -73.84375 C 110.546875 -74.277344 112.433594 -77.613281 113.445312 -78.484375 C 113.882812 -79.066406 114.171875 -79.5 114.171875 -79.644531 C 114.027344 -79.789062 114.171875 -80.226562 114.460938 -80.804688 C 115.625 -82.980469 116.929688 -85.738281 116.929688 -86.171875 C 116.929688 -87.625 125.054688 -99.519531 126.359375 -99.957031 C 126.648438 -100.101562 127.808594 -101.40625 128.96875 -102.855469 C 131 -105.757812 136.367188 -110.835938 136.949219 -110.402344 C 137.09375 -110.253906 135.933594 -108.949219 134.484375 -107.644531 C 131.4375 -104.886719 125.488281 -97.632812 125.777344 -97.054688 C 125.921875 -96.765625 127.085938 -98.070312 128.390625 -99.957031 C 132.015625 -104.597656 137.964844 -110.109375 137.964844 -108.660156 C 137.964844 -108.515625 136.804688 -107.355469 135.5 -106.046875 C 132.308594 -102.710938 125.199219 -92.992188 125.199219 -91.976562 C 125.199219 -91.6875 124.472656 -90.671875 123.746094 -89.65625 C 122.878906 -88.640625 121.425781 -86.171875 120.410156 -84.289062 C 119.394531 -82.257812 118.234375 -80.515625 117.945312 -80.371094 C 117.21875 -80.082031 112.722656 -72.246094 112.867188 -71.519531 C 112.867188 -71.230469 112.722656 -71.085938 112.433594 -71.085938 C 112.285156 -71.085938 112.140625 -70.796875 112.140625 -70.503906 C 112.285156 -69.488281 112.140625 -69.054688 110.980469 -68.039062 C 110.402344 -67.460938 109.820312 -66.589844 109.820312 -66.152344 C 109.820312 -65.71875 109.53125 -65.136719 109.238281 -64.703125 C 108.515625 -64.121094 108.515625 -64.265625 108.660156 -66.296875 L 108.949219 -68.472656 L 107.789062 -66.445312 C 107.355469 -65.429688 106.195312 -63.105469 105.324219 -61.511719 C 104.453125 -59.914062 103.726562 -58.753906 103.726562 -58.898438 C 103.726562 -59.480469 109.09375 -70.652344 110.109375 -72.101562 Z M 102.421875 -65.863281 C 102.710938 -65.863281 102.855469 -65.71875 102.855469 -65.574219 C 102.855469 -65.28125 102.710938 -64.992188 102.421875 -64.847656 C 102.277344 -64.703125 101.988281 -64.992188 101.988281 -65.28125 C 101.988281 -65.574219 102.277344 -65.863281 102.421875 -65.863281 Z M 101.988281 -81.242188 C 101.839844 -81.242188 101.695312 -81.53125 101.839844 -81.820312 C 101.988281 -82.257812 102.132812 -82.402344 102.277344 -82.402344 C 102.421875 -82.402344 102.421875 -82.257812 102.421875 -81.820312 C 102.421875 -81.53125 102.277344 -81.242188 101.988281 -81.242188 Z M 103.148438 -77.035156 C 102.710938 -77.035156 102.421875 -77.035156 102.566406 -77.179688 C 102.710938 -77.324219 103.148438 -77.324219 103.4375 -77.179688 C 103.726562 -77.035156 103.726562 -77.035156 103.148438 -77.035156 Z M 104.886719 -97.78125 C 104.742188 -97.488281 104.742188 -97.632812 104.597656 -98.070312 C 104.597656 -98.503906 104.742188 -98.648438 104.886719 -98.503906 C 105.03125 -98.503906 105.03125 -98.070312 104.886719 -97.78125 Z M 105.179688 -110.109375 C 104.886719 -109.238281 104.742188 -109.238281 104.453125 -109.820312 C 104.015625 -110.835938 104.164062 -112.140625 104.597656 -111.996094 C 104.886719 -111.851562 105.03125 -111.996094 105.179688 -112.140625 C 105.324219 -112.433594 105.46875 -112.433594 105.46875 -111.851562 C 105.46875 -111.417969 105.324219 -110.691406 105.179688 -110.109375 Z M 105.757812 -100.972656 C 105.613281 -100.679688 105.613281 -100.679688 105.613281 -101.261719 C 105.46875 -101.695312 105.613281 -101.839844 105.757812 -101.695312 C 105.902344 -101.550781 105.902344 -101.261719 105.757812 -100.972656 Z M 106.339844 -98.070312 C 106.195312 -97.632812 106.046875 -97.488281 106.046875 -97.925781 C 106.046875 -98.214844 106.195312 -98.792969 106.339844 -99.230469 C 106.628906 -99.808594 106.773438 -99.808594 106.773438 -99.519531 C 106.773438 -99.085938 106.628906 -98.503906 106.339844 -98.070312 Z M 106.339844 -113.882812 C 106.046875 -113.738281 106.046875 -114.027344 106.195312 -114.753906 C 106.628906 -116.203125 106.773438 -116.347656 106.773438 -115.1875 C 106.773438 -114.609375 106.628906 -114.027344 106.339844 -113.882812 Z M 106.339844 -117.65625 C 106.046875 -117.21875 106.046875 -117.363281 106.195312 -118.234375 C 106.628906 -119.683594 106.773438 -119.976562 106.773438 -118.960938 C 106.773438 -118.523438 106.628906 -117.945312 106.339844 -117.65625 Z M 107.0625 -116.785156 C 106.917969 -116.492188 106.917969 -116.492188 106.917969 -117.074219 C 106.917969 -117.363281 106.917969 -117.65625 107.0625 -117.507812 C 107.210938 -117.363281 107.210938 -117.074219 107.0625 -116.785156 Z M 107.933594 -121.714844 C 107.644531 -121.714844 107.5 -122.007812 107.644531 -122.730469 C 107.789062 -123.457031 107.933594 -123.457031 108.222656 -123.167969 C 108.371094 -122.878906 108.515625 -122.441406 108.515625 -122.152344 C 108.515625 -121.863281 108.371094 -121.714844 107.933594 -121.714844 Z M 111.417969 -130.566406 C 111.125 -129.550781 109.820312 -128.96875 109.820312 -129.839844 C 109.820312 -130.710938 110.402344 -131.4375 110.835938 -131.292969 C 110.980469 -131.144531 111.269531 -131.292969 111.269531 -131.4375 C 111.269531 -131.726562 111.269531 -131.871094 111.417969 -131.726562 C 111.5625 -131.582031 111.5625 -131.144531 111.417969 -130.566406 Z M 100.679688 -165.820312 C 104.308594 -169.878906 105.03125 -170.605469 105.03125 -170.316406 C 105.03125 -170.171875 103.726562 -168.574219 101.988281 -166.542969 C 100.246094 -164.65625 98.792969 -163.0625 98.648438 -163.0625 C 98.503906 -163.0625 99.519531 -164.222656 100.679688 -165.820312 Z M 92.847656 -156.097656 C 93.570312 -157.113281 94.296875 -157.984375 94.441406 -157.984375 C 94.441406 -157.984375 94.007812 -157.113281 93.28125 -156.097656 C 92.558594 -155.226562 91.832031 -154.359375 91.6875 -154.359375 C 91.542969 -154.359375 92.121094 -155.226562 92.847656 -156.097656 Z M 87.1875 -150.730469 C 87.480469 -151.167969 87.914062 -151.457031 87.914062 -151.457031 C 88.058594 -151.3125 87.769531 -150.875 87.335938 -150.441406 C 86.609375 -149.859375 86.609375 -149.859375 87.1875 -150.730469 Z M 85.882812 -149.136719 C 86.027344 -149.425781 86.464844 -149.714844 86.609375 -149.714844 C 86.753906 -149.714844 86.609375 -149.425781 86.320312 -149.136719 C 85.882812 -148.699219 85.59375 -148.410156 85.449219 -148.410156 C 85.304688 -148.410156 85.59375 -148.699219 85.882812 -149.136719 Z M 83.996094 -146.523438 C 84.722656 -147.105469 84.722656 -146.960938 83.996094 -146.234375 C 83.707031 -145.796875 83.417969 -145.363281 83.273438 -145.363281 C 83.273438 -145.21875 83.125 -145.363281 83.125 -145.507812 C 83.125 -145.796875 83.5625 -146.234375 83.996094 -146.523438 Z M 86.320312 -147.539062 C 89.21875 -151.167969 88.640625 -149.859375 85.59375 -145.796875 C 83.996094 -143.621094 82.402344 -141.738281 81.964844 -141.300781 C 81.242188 -140.574219 84.140625 -144.78125 86.320312 -147.539062 Z M 79.644531 -141.15625 C 80.371094 -142.171875 81.097656 -142.898438 81.242188 -142.898438 C 81.386719 -142.898438 80.804688 -142.171875 80.082031 -141.15625 C 79.355469 -140.140625 78.628906 -139.414062 78.484375 -139.414062 C 78.339844 -139.414062 78.917969 -140.140625 79.644531 -141.15625 Z M 69.34375 -126.503906 C 70.214844 -127.664062 70.652344 -127.808594 70.070312 -126.792969 C 69.78125 -126.359375 69.34375 -125.921875 69.054688 -125.632812 C 68.910156 -125.632812 68.910156 -125.921875 69.34375 -126.503906 Z M 67.605469 -124.039062 C 68.472656 -125.34375 68.910156 -125.488281 68.328125 -124.328125 C 68.039062 -123.890625 67.605469 -123.457031 67.3125 -123.3125 C 67.167969 -123.167969 67.167969 -123.457031 67.605469 -124.039062 Z M 64.992188 -120.265625 C 66.445312 -122.585938 67.460938 -123.601562 66.152344 -121.425781 C 65.71875 -120.554688 64.992188 -119.394531 64.558594 -118.960938 C 64.121094 -118.523438 64.414062 -119.105469 64.992188 -120.265625 Z M 61.800781 -118.960938 C 61.945312 -119.105469 62.089844 -118.960938 61.945312 -118.667969 C 61.65625 -117.945312 61.367188 -117.800781 61.367188 -118.378906 C 61.367188 -118.667969 61.511719 -118.960938 61.800781 -118.960938 Z M 57.160156 -107.355469 C 58.027344 -108.949219 58.753906 -110.109375 58.898438 -110.109375 C 59.042969 -110.109375 58.464844 -108.949219 57.59375 -107.355469 C 56.722656 -105.902344 55.851562 -104.597656 55.851562 -104.597656 C 55.707031 -104.597656 56.289062 -105.902344 57.160156 -107.355469 Z M 49.46875 -90.089844 C 56.144531 -102.710938 57.015625 -104.308594 58.898438 -107.355469 C 59.914062 -108.804688 61.800781 -111.851562 63.105469 -114.171875 C 64.414062 -116.347656 66.152344 -119.105469 66.878906 -120.121094 C 71.519531 -126.9375 73.988281 -130.710938 74.710938 -131.871094 C 75.003906 -132.597656 75.875 -133.757812 76.453125 -134.335938 C 77.035156 -134.917969 77.757812 -136.078125 78.195312 -136.804688 C 78.484375 -137.53125 79.355469 -138.542969 79.933594 -138.980469 C 80.660156 -139.558594 80.082031 -138.542969 78.484375 -136.222656 C 77.035156 -134.191406 74.859375 -131 73.695312 -129.261719 C 72.535156 -127.375 70.070312 -123.601562 68.039062 -120.699219 C 66.152344 -117.800781 62.671875 -112.140625 60.207031 -108.222656 C 57.882812 -104.164062 53.386719 -96.039062 50.050781 -90.234375 C 46.859375 -84.289062 44.246094 -79.644531 44.246094 -79.789062 C 44.246094 -79.933594 46.570312 -84.578125 49.46875 -90.089844 Z M 43.8125 -78.917969 C 43.957031 -79.210938 44.246094 -79.355469 44.246094 -79.066406 C 44.246094 -78.917969 43.957031 -78.484375 43.8125 -78.195312 C 43.523438 -77.757812 43.375 -77.757812 43.375 -77.90625 C 43.375 -78.195312 43.523438 -78.628906 43.8125 -78.917969 Z M 51.9375 -153.777344 C 52.515625 -154.503906 52.515625 -154.503906 52.082031 -153.632812 C 51.355469 -152.328125 51.210938 -152.183594 51.210938 -152.617188 C 51.210938 -152.90625 51.5 -153.34375 51.9375 -153.777344 Z M 3.773438 -4.789062 C 3.625 -4.351562 3.625 -4.640625 3.625 -5.367188 C 3.625 -6.238281 3.625 -6.527344 3.773438 -6.09375 C 3.917969 -5.804688 3.917969 -5.078125 3.773438 -4.789062 Z M 11.171875 -9.429688 C 11.316406 -9.140625 11.171875 -8.996094 10.878906 -8.996094 C 10.734375 -8.996094 10.445312 -9.140625 10.445312 -9.429688 C 10.445312 -9.574219 10.589844 -9.71875 10.589844 -9.71875 C 10.734375 -9.71875 11.027344 -9.574219 11.171875 -9.429688 Z M 10.445312 -22.488281 C 10.15625 -21.90625 9.863281 -20.019531 9.863281 -18.425781 C 9.71875 -14.363281 8.703125 -7.6875 8.269531 -7.253906 C 7.980469 -6.964844 7.832031 -6.09375 7.832031 -5.222656 C 7.6875 -2.175781 7.109375 -1.886719 6.820312 -4.789062 C 6.238281 -8.996094 6.238281 -11.605469 7.109375 -16.25 C 7.398438 -18.570312 7.6875 -20.746094 7.542969 -21.035156 C 7.398438 -21.324219 7.6875 -21.761719 8.269531 -22.050781 C 8.703125 -22.195312 9.429688 -23.066406 9.863281 -23.9375 C 10.589844 -25.242188 10.734375 -25.242188 10.878906 -24.515625 C 10.878906 -23.9375 10.734375 -23.066406 10.445312 -22.488281 Z M 42.652344 -117.21875 C 42.214844 -116.929688 42.070312 -116.929688 41.78125 -117.21875 C 41.492188 -117.65625 42.363281 -118.234375 42.796875 -117.945312 C 42.941406 -117.800781 42.796875 -117.363281 42.652344 -117.21875 Z M 42.941406 -119.832031 C 43.085938 -119.976562 43.375 -119.832031 43.375 -119.683594 C 43.375 -119.394531 43.085938 -119.25 42.941406 -119.25 C 42.363281 -119.25 42.363281 -119.539062 42.941406 -119.832031 Z M 43.375 -115.625 C 43.085938 -115.332031 42.941406 -115.1875 42.941406 -115.476562 C 42.941406 -115.625 43.085938 -116.203125 43.375 -116.492188 C 43.523438 -116.785156 43.8125 -116.929688 43.8125 -116.640625 C 43.8125 -116.492188 43.523438 -115.914062 43.375 -115.625 Z M 48.597656 -130.128906 C 49.035156 -130.710938 49.46875 -131.144531 49.46875 -131 C 49.46875 -130.855469 49.035156 -130.128906 48.597656 -129.261719 C 48.164062 -128.390625 47.730469 -127.953125 47.730469 -128.246094 C 47.730469 -128.679688 48.164062 -129.40625 48.597656 -130.128906 Z M 46.859375 -136.804688 C 47.003906 -136.949219 47.148438 -136.804688 47.003906 -136.367188 C 46.714844 -135.789062 46.421875 -135.644531 46.421875 -136.222656 C 46.421875 -136.367188 46.570312 -136.660156 46.859375 -136.804688 Z M 45.261719 -134.335938 C 45.40625 -134.773438 45.699219 -134.917969 45.84375 -134.773438 C 45.988281 -134.773438 45.84375 -134.484375 45.554688 -134.191406 C 45.117188 -133.757812 45.117188 -133.757812 45.261719 -134.335938 Z M 45.554688 -123.601562 C 45.554688 -123.3125 45.261719 -123.167969 45.117188 -123.167969 C 44.539062 -123.167969 44.539062 -123.457031 45.117188 -123.746094 C 45.261719 -123.890625 45.554688 -123.890625 45.554688 -123.601562 Z M 44.972656 -133.175781 C 45.117188 -133.175781 44.972656 -132.597656 44.828125 -132.160156 C 44.539062 -131.726562 43.8125 -130.128906 43.085938 -128.824219 C 42.363281 -127.519531 41.636719 -126.359375 41.492188 -126.359375 C 41.347656 -126.359375 41.054688 -126.359375 41.054688 -126.503906 C 41.054688 -127.085938 44.828125 -133.46875 44.972656 -133.175781 Z M 38.300781 -120.410156 C 38.589844 -121.425781 39.894531 -122.878906 39.894531 -122.152344 C 39.894531 -122.007812 39.460938 -121.28125 38.878906 -120.554688 C 38.007812 -119.539062 38.007812 -119.539062 38.300781 -120.410156 Z M 39.316406 -109.386719 C 39.316406 -108.515625 38.734375 -107.933594 38.300781 -108.371094 C 38.300781 -108.660156 38.445312 -109.09375 38.734375 -109.53125 C 39.316406 -110.253906 39.316406 -110.253906 39.316406 -109.386719 Z M 34.382812 -111.707031 C 35.253906 -111.707031 35.109375 -110.691406 34.382812 -110.402344 C 33.800781 -110.253906 33.65625 -109.820312 33.800781 -109.238281 C 33.945312 -108.804688 33.945312 -108.222656 33.800781 -107.933594 C 33.222656 -107.210938 32.351562 -107.355469 32.351562 -108.078125 C 32.351562 -109.386719 33.65625 -111.707031 34.382812 -111.707031 Z M 31.335938 -105.613281 C 31.480469 -106.195312 31.769531 -106.628906 31.917969 -106.628906 C 32.0625 -106.628906 32.207031 -106.195312 32.0625 -105.757812 C 31.769531 -104.597656 31.191406 -104.453125 31.335938 -105.613281 Z M 28.289062 -98.503906 C 28.433594 -98.503906 28.433594 -98.070312 28.289062 -97.78125 C 28.144531 -97.488281 28 -97.632812 28 -98.070312 C 28 -98.503906 28.144531 -98.648438 28.289062 -98.503906 Z M 24.515625 -94.296875 C 24.664062 -94.734375 24.953125 -94.734375 24.953125 -94.585938 C 24.953125 -94.296875 24.664062 -93.863281 24.515625 -93.570312 C 24.226562 -93.28125 24.082031 -93.136719 24.082031 -93.28125 C 24.082031 -93.570312 24.226562 -94.007812 24.515625 -94.296875 Z M 15.378906 -63.105469 C 14.941406 -63.25 15.234375 -64.703125 16.539062 -68.472656 C 17.554688 -71.375 18.425781 -73.988281 18.714844 -74.421875 C 18.859375 -74.859375 19.730469 -77.035156 20.308594 -79.355469 C 21.472656 -83.273438 23.648438 -87.769531 23.648438 -86.320312 C 23.648438 -85.15625 24.226562 -85.59375 24.808594 -87.042969 C 25.53125 -88.496094 25.242188 -89.363281 24.515625 -88.347656 C 24.082031 -87.914062 24.082031 -87.914062 24.082031 -88.640625 C 24.082031 -89.65625 26.695312 -96.039062 27.417969 -96.765625 C 28 -97.199219 28 -97.199219 27.707031 -96.328125 C 27.273438 -94.878906 28.289062 -95.75 29.015625 -97.632812 C 29.59375 -98.941406 29.738281 -99.085938 29.160156 -99.230469 C 28.144531 -99.664062 29.59375 -102.710938 31.335938 -103.871094 L 32.640625 -104.742188 L 31.335938 -103.4375 C 30.175781 -102.132812 29.886719 -101.40625 30.609375 -101.40625 C 30.753906 -101.40625 30.03125 -99.230469 29.015625 -96.472656 C 25.96875 -88.496094 25.242188 -86.320312 25.53125 -85.882812 C 25.679688 -85.304688 23.355469 -78.917969 21.90625 -76.308594 C 20.746094 -73.988281 19.148438 -69.78125 19.441406 -69.488281 C 19.730469 -69.054688 17.554688 -62.238281 16.394531 -59.914062 C 16.101562 -59.042969 15.667969 -58.464844 15.523438 -58.464844 C 14.941406 -58.464844 14.796875 -59.480469 15.234375 -60.929688 C 15.667969 -62.382812 15.667969 -62.816406 15.378906 -63.105469 Z M 14.363281 -67.3125 C 14.652344 -67.75 14.796875 -67.894531 14.796875 -67.460938 C 14.796875 -67.167969 14.652344 -66.589844 14.363281 -66.296875 C 13.925781 -65.574219 13.925781 -66.152344 14.363281 -67.3125 Z M 14.507812 -61.800781 C 14.941406 -61.945312 14.941406 -61.074219 14.507812 -60.207031 C 14.507812 -59.769531 14.21875 -59.625 13.925781 -59.625 C 13.492188 -59.625 13.925781 -61.511719 14.507812 -61.800781 Z M 11.605469 -58.609375 C 11.75 -58.609375 11.75 -58.175781 11.605469 -57.882812 C 11.460938 -57.59375 11.316406 -57.738281 11.316406 -58.175781 C 11.316406 -58.609375 11.460938 -58.753906 11.605469 -58.609375 Z M 11.171875 -57.015625 C 11.316406 -57.015625 11.316406 -56.578125 11.171875 -56.289062 C 11.027344 -56 10.878906 -56.144531 10.878906 -56.578125 C 10.878906 -57.015625 11.027344 -57.160156 11.171875 -57.015625 Z M 8.125 -46.859375 C 8.269531 -46.714844 8.269531 -46.277344 8.125 -46.132812 C 7.980469 -45.699219 7.832031 -45.84375 7.832031 -46.277344 C 7.832031 -46.714844 7.980469 -47.003906 8.125 -46.859375 Z M 3.191406 -12.765625 C 3.335938 -20.308594 4.0625 -24.664062 5.222656 -24.953125 C 5.804688 -25.097656 6.09375 -25.386719 6.09375 -25.679688 C 6.09375 -26.546875 5.367188 -26.546875 5.078125 -25.824219 C 4.640625 -24.808594 4.933594 -27.128906 5.65625 -30.753906 C 7.542969 -39.894531 12.1875 -56.433594 12.910156 -57.160156 C 13.054688 -57.304688 13.054688 -56.722656 12.910156 -56 C 12.621094 -54.835938 12.621094 -54.691406 13.203125 -55.128906 C 13.636719 -55.417969 14.070312 -56.289062 14.21875 -57.015625 C 14.507812 -57.882812 14.652344 -58.320312 14.941406 -58.027344 C 15.234375 -57.738281 15.085938 -57.015625 14.796875 -56 C 13.78125 -53.242188 13.492188 -52.082031 13.925781 -52.082031 C 14.21875 -52.082031 14.21875 -51.5 13.925781 -50.777344 C 13.636719 -50.050781 13.054688 -48.164062 12.476562 -46.570312 C 11.894531 -44.972656 10.878906 -42.214844 10.300781 -40.765625 C 8.996094 -37.574219 8.125 -30.753906 8.996094 -30.753906 C 9.71875 -30.753906 10.589844 -32.785156 10.589844 -34.09375 C 10.445312 -34.671875 10.878906 -35.976562 11.316406 -36.703125 C 11.75 -37.574219 11.894531 -38.300781 11.75 -38.589844 C 11.460938 -38.734375 11.460938 -39.460938 11.605469 -40.039062 C 11.894531 -41.054688 12.042969 -41.054688 12.332031 -40.332031 C 12.621094 -39.75 12.621094 -39.894531 12.476562 -40.765625 C 12.1875 -41.925781 13.347656 -46.859375 14.21875 -47.730469 C 14.507812 -48.019531 14.796875 -48.453125 14.507812 -48.597656 C 14.363281 -48.746094 14.507812 -48.890625 14.796875 -48.890625 C 15.085938 -48.890625 15.234375 -49.179688 15.234375 -49.613281 C 15.234375 -50.050781 15.667969 -50.628906 16.101562 -51.066406 C 17.117188 -52.082031 18.132812 -57.160156 17.554688 -57.59375 C 17.117188 -57.738281 17.117188 -58.320312 17.699219 -59.335938 C 17.988281 -60.207031 18.425781 -61.65625 18.570312 -62.527344 C 18.714844 -63.398438 19.292969 -65.136719 19.730469 -66.296875 C 20.019531 -67.460938 21.324219 -70.796875 22.339844 -73.84375 C 23.355469 -76.742188 24.226562 -79.210938 24.371094 -79.210938 C 24.371094 -79.355469 24.953125 -78.917969 25.679688 -78.339844 C 26.402344 -77.757812 26.695312 -77.324219 26.402344 -77.324219 C 25.96875 -77.324219 25.386719 -75.726562 24.664062 -72.828125 C 24.371094 -71.957031 24.371094 -71.957031 25.097656 -72.828125 C 25.53125 -73.261719 25.824219 -73.84375 25.824219 -74.132812 C 25.824219 -74.566406 26.257812 -75.582031 26.695312 -76.453125 C 27.855469 -78.628906 28.433594 -81.820312 27.5625 -81.675781 C 27.273438 -81.53125 26.839844 -81.964844 26.695312 -82.691406 C 26.257812 -83.851562 26.402344 -84.140625 27.417969 -86.609375 C 27.5625 -87.042969 27.707031 -87.625 27.707031 -87.769531 C 27.707031 -87.914062 28.144531 -88.203125 28.722656 -88.640625 C 29.160156 -88.929688 29.304688 -89.074219 28.871094 -88.929688 C 28.433594 -88.785156 28.433594 -88.929688 28.578125 -89.945312 C 28.871094 -91.394531 30.175781 -92.992188 30.175781 -91.976562 C 30.175781 -91.832031 30.320312 -91.542969 30.609375 -91.542969 C 30.902344 -91.542969 31.046875 -91.832031 31.046875 -92.121094 C 31.046875 -92.558594 30.902344 -92.703125 30.609375 -92.703125 C 30.320312 -92.703125 30.175781 -92.992188 30.175781 -93.28125 C 30.175781 -93.71875 30.320312 -93.863281 30.609375 -93.71875 C 31.046875 -93.570312 31.046875 -93.71875 30.902344 -94.296875 C 30.753906 -94.734375 31.046875 -95.75 31.625 -96.910156 C 32.351562 -98.070312 32.785156 -98.503906 32.785156 -98.214844 C 32.785156 -96.910156 33.511719 -97.488281 34.382812 -99.085938 C 35.109375 -100.972656 35.109375 -101.261719 34.382812 -100.824219 C 33.222656 -100.535156 34.238281 -101.839844 35.542969 -102.421875 C 36.992188 -103.148438 36.992188 -103.148438 36.125 -104.015625 C 35.542969 -104.453125 35.542969 -104.597656 36.125 -105.613281 L 36.703125 -106.773438 L 36.703125 -105.03125 L 36.847656 -103.292969 L 37.574219 -104.742188 C 38.007812 -105.613281 38.878906 -107.210938 39.460938 -108.222656 C 39.894531 -109.386719 40.476562 -110.109375 40.476562 -109.964844 C 40.765625 -109.820312 40.039062 -108.222656 37.429688 -103.292969 C 36.414062 -101.261719 35.398438 -99.230469 35.253906 -98.792969 C 35.109375 -98.359375 34.671875 -97.925781 34.382812 -97.925781 C 34.09375 -97.925781 34.09375 -97.78125 34.382812 -97.488281 C 35.109375 -97.199219 34.527344 -93.71875 33.222656 -91.6875 L 32.351562 -90.234375 L 32.640625 -91.976562 C 32.785156 -93.28125 32.640625 -94.007812 32.207031 -94.585938 C 31.625 -95.167969 31.480469 -95.3125 31.480469 -94.585938 C 31.480469 -94.296875 31.625 -93.863281 31.917969 -93.863281 C 32.496094 -93.863281 32.0625 -92.121094 31.046875 -90.234375 C 30.03125 -88.203125 30.175781 -87.335938 31.335938 -88.640625 C 31.917969 -89.363281 31.917969 -89.363281 31.769531 -88.640625 C 31.625 -88.203125 31.480469 -87.769531 31.480469 -87.625 C 31.480469 -87.335938 31.191406 -87.1875 30.902344 -87.335938 C 30.609375 -87.335938 30.175781 -87.042969 29.886719 -86.320312 C 29.160156 -85.011719 29.59375 -84.289062 30.175781 -85.304688 C 31.046875 -86.171875 30.609375 -85.011719 26.113281 -72.828125 C 24.371094 -68.039062 23.066406 -63.6875 23.066406 -63.398438 C 23.066406 -62.960938 22.921875 -62.382812 22.632812 -62.089844 C 22.488281 -61.800781 21.617188 -59.769531 20.890625 -57.449219 C 19.875 -54.835938 19.292969 -53.386719 18.859375 -53.386719 C 18.425781 -53.386719 18.132812 -53.242188 17.988281 -52.808594 C 17.84375 -52.515625 17.988281 -52.371094 18.425781 -52.515625 C 19.441406 -52.808594 19.441406 -52.515625 18.570312 -50.339844 C 18.277344 -49.46875 17.699219 -47.585938 17.265625 -46.277344 C 16.972656 -44.972656 15.957031 -41.78125 15.085938 -39.023438 C 13.203125 -33.222656 11.75 -28.289062 11.75 -27.128906 C 11.75 -26.546875 9.574219 -25.386719 8.996094 -25.824219 C 8.996094 -25.96875 8.996094 -26.839844 8.996094 -28 C 9.285156 -29.449219 9.140625 -29.886719 8.558594 -29.886719 C 7.6875 -29.886719 6.527344 -25.96875 6.382812 -22.488281 C 6.238281 -20.746094 5.949219 -18.859375 5.511719 -18.277344 C 5.222656 -17.554688 4.640625 -16.25 4.351562 -15.085938 C 4.0625 -14.070312 3.625 -11.75 3.480469 -10.011719 C 3.191406 -7.542969 3.191406 -8.125 3.191406 -12.765625 Z M 3.191406 -12.765625 "/></g></g></g></svg>