<svg xmlns="http://www.w3.org/2000/svg" xmlns:xlink="http://www.w3.org/1999/xlink" width="500" zoomAndPan="magnify" viewBox="0 0 375 374.999991" height="500" preserveAspectRatio="xMidYMid meet" version="1.0"><defs><g/></defs><g fill="#ffffff" fill-opacity="1"><g transform="translate(105.858189, 219.947616)"><g><path d="M 8.640625 -3.5 L 10.265625 0 L 11.90625 0 L 6.375 -11.875 L 5.53125 -11.875 L 0.515625 0 L 1.296875 0 L 2.78125 -3.5 Z M 8.28125 -4.265625 L 3.109375 -4.265625 L 5.546875 -9.984375 L 5.609375 -9.984375 Z M 8.28125 -4.265625 "/></g></g></g><g fill="#ffffff" fill-opacity="1"><g transform="translate(118.280028, 219.947616)"><g><path d="M 2.71875 -11.875 L 2.71875 0 L 4.265625 0 L 4.265625 -11.875 Z M 2.71875 -11.875 "/></g></g></g><g fill="#ffffff" fill-opacity="1"><g transform="translate(125.254585, 219.947616)"><g><path d="M 11.609375 -11.875 L 11.609375 -2.796875 L 11.53125 -2.796875 L 2.125 -12.078125 L 2.03125 -12.078125 L 2.03125 0 L 2.8125 0 L 2.8125 -9.078125 L 2.890625 -9.078125 L 12.296875 0.203125 L 12.390625 0.203125 L 12.390625 -11.875 Z M 11.609375 -11.875 "/></g></g></g><g fill="#ffffff" fill-opacity="1"><g transform="translate(139.678857, 219.947616)"><g><path d="M 8.640625 -3.5 L 10.265625 0 L 11.90625 0 L 6.375 -11.875 L 5.53125 -11.875 L 0.515625 0 L 1.296875 0 L 2.78125 -3.5 Z M 8.28125 -4.265625 L 3.109375 -4.265625 L 5.546875 -9.984375 L 5.609375 -9.984375 Z M 8.28125 -4.265625 "/></g></g></g><g fill="#ffffff" fill-opacity="1"><g transform="translate(152.100696, 219.947616)"><g/></g></g><g fill="#ffffff" fill-opacity="1"><g transform="translate(158.040104, 219.947616)"><g><path d="M 3.1875 -11.875 L 2.03125 -11.875 L 2.03125 0 L 2.78125 0 L 2.78125 -9.6875 L 2.84375 -9.6875 L 8.09375 0.203125 L 8.40625 0.203125 L 13.765625 -9.625 L 13.828125 -9.625 L 13.828125 0 L 15.375 0 L 15.375 -11.875 L 14.203125 -11.875 L 8.703125 -1.6875 L 8.640625 -1.6875 Z M 3.1875 -11.875 "/></g></g></g><g fill="#ffffff" fill-opacity="1"><g transform="translate(175.451045, 219.947616)"><g><path d="M 8.640625 -3.5 L 10.265625 0 L 11.90625 0 L 6.375 -11.875 L 5.53125 -11.875 L 0.515625 0 L 1.296875 0 L 2.78125 -3.5 Z M 8.28125 -4.265625 L 3.109375 -4.265625 L 5.546875 -9.984375 L 5.609375 -9.984375 Z M 8.28125 -4.265625 "/></g></g></g><g fill="#ffffff" fill-opacity="1"><g transform="translate(187.872884, 219.947616)"><g><path d="M 2.03125 -11.875 L 2.03125 0 L 3.578125 0 L 3.578125 -5.25 L 4.328125 -5.25 C 4.640625 -5.25 4.898438 -5.21875 5.109375 -5.15625 C 5.328125 -5.101562 5.519531 -5.007812 5.6875 -4.875 C 5.851562 -4.738281 6.007812 -4.5625 6.15625 -4.34375 C 6.300781 -4.125 6.476562 -3.859375 6.6875 -3.546875 L 8.03125 -1.5625 C 8.195312 -1.300781 8.359375 -1.0625 8.515625 -0.84375 C 8.679688 -0.632812 8.859375 -0.453125 9.046875 -0.296875 C 9.242188 -0.140625 9.460938 -0.0195312 9.703125 0.0625 C 9.953125 0.15625 10.25 0.203125 10.59375 0.203125 C 10.84375 0.203125 11.046875 0.191406 11.203125 0.171875 C 11.359375 0.148438 11.515625 0.09375 11.671875 0 L 11.671875 -0.625 C 11.617188 -0.613281 11.5625 -0.601562 11.5 -0.59375 C 11.445312 -0.59375 11.390625 -0.59375 11.328125 -0.59375 C 11.097656 -0.59375 10.890625 -0.625 10.703125 -0.6875 C 10.523438 -0.757812 10.351562 -0.859375 10.1875 -0.984375 C 10.03125 -1.117188 9.878906 -1.28125 9.734375 -1.46875 C 9.585938 -1.65625 9.4375 -1.867188 9.28125 -2.109375 C 8.800781 -2.796875 8.429688 -3.34375 8.171875 -3.75 C 7.910156 -4.164062 7.703125 -4.488281 7.546875 -4.71875 C 7.398438 -4.945312 7.28125 -5.109375 7.1875 -5.203125 C 7.09375 -5.304688 6.976562 -5.394531 6.84375 -5.46875 L 6.671875 -5.546875 L 6.671875 -5.609375 C 7.210938 -5.648438 7.675781 -5.769531 8.0625 -5.96875 C 8.457031 -6.175781 8.78125 -6.429688 9.03125 -6.734375 C 9.28125 -7.035156 9.457031 -7.363281 9.5625 -7.71875 C 9.675781 -8.082031 9.734375 -8.429688 9.734375 -8.765625 C 9.734375 -9.078125 9.675781 -9.410156 9.5625 -9.765625 C 9.445312 -10.128906 9.242188 -10.46875 8.953125 -10.78125 C 8.660156 -11.09375 8.265625 -11.351562 7.765625 -11.5625 C 7.273438 -11.769531 6.648438 -11.875 5.890625 -11.875 Z M 3.578125 -11.125 L 5.296875 -11.125 C 5.722656 -11.125 6.109375 -11.0625 6.453125 -10.9375 C 6.796875 -10.820312 7.09375 -10.648438 7.34375 -10.421875 C 7.59375 -10.203125 7.78125 -9.941406 7.90625 -9.640625 C 8.039062 -9.335938 8.109375 -9.003906 8.109375 -8.640625 C 8.109375 -8.328125 8.046875 -8.015625 7.921875 -7.703125 C 7.804688 -7.398438 7.628906 -7.117188 7.390625 -6.859375 C 7.160156 -6.609375 6.867188 -6.398438 6.515625 -6.234375 C 6.171875 -6.078125 5.773438 -6 5.328125 -6 L 3.578125 -6 Z M 3.578125 -11.125 "/></g></g></g><g fill="#ffffff" fill-opacity="1"><g transform="translate(200.057149, 219.947616)"><g><path d="M 2.03125 0 L 3.578125 0 L 3.578125 -4.171875 L 5.5 -6.234375 L 10.015625 0 L 11.78125 0 L 6.484375 -7.28125 L 10.796875 -11.875 L 9.9375 -11.875 L 3.578125 -5.1875 L 3.578125 -11.875 L 2.03125 -11.875 Z M 2.03125 0 "/></g></g></g><g fill="#ffffff" fill-opacity="1"><g transform="translate(212.343232, 219.947616)"><g><path d="M 2.03125 -11.875 L 2.03125 0 L 9.703125 0 L 9.703125 -0.9375 L 3.578125 -0.9375 L 3.578125 -5.90625 L 8.84375 -5.90625 L 8.84375 -6.6875 L 3.578125 -6.6875 L 3.578125 -10.9375 L 9.703125 -10.9375 L 9.703125 -11.875 Z M 2.03125 -11.875 "/></g></g></g><g fill="#ffffff" fill-opacity="1"><g transform="translate(222.559009, 219.947616)"><g><path d="M 6.4375 0 L 6.4375 -10.9375 L 10.984375 -10.9375 L 10.984375 -11.875 L 0.34375 -11.875 L 0.34375 -10.9375 L 4.890625 -10.9375 L 4.890625 0 Z M 6.4375 0 "/></g></g></g><g fill="#ffffff" fill-opacity="1"><g transform="translate(233.877817, 219.947616)"><g><path d="M 2.71875 -11.875 L 2.71875 0 L 4.265625 0 L 4.265625 -11.875 Z M 2.71875 -11.875 "/></g></g></g><g fill="#ffffff" fill-opacity="1"><g transform="translate(240.852374, 219.947616)"><g><path d="M 11.609375 -11.875 L 11.609375 -2.796875 L 11.53125 -2.796875 L 2.125 -12.078125 L 2.03125 -12.078125 L 2.03125 0 L 2.8125 0 L 2.8125 -9.078125 L 2.890625 -9.078125 L 12.296875 0.203125 L 12.390625 0.203125 L 12.390625 -11.875 Z M 11.609375 -11.875 "/></g></g></g><g fill="#ffffff" fill-opacity="1"><g transform="translate(255.276654, 219.947616)"><g><path d="M 12.84375 -5.296875 L 9.484375 -5.296875 L 9.484375 -4.59375 L 11.390625 -4.59375 L 11.390625 -1.53125 C 10.878906 -1.195312 10.359375 -0.953125 9.828125 -0.796875 C 9.296875 -0.640625 8.691406 -0.5625 8.015625 -0.5625 C 7.117188 -0.5625 6.335938 -0.695312 5.671875 -0.96875 C 5.003906 -1.238281 4.445312 -1.613281 4 -2.09375 C 3.5625 -2.570312 3.234375 -3.140625 3.015625 -3.796875 C 2.796875 -4.460938 2.6875 -5.191406 2.6875 -5.984375 C 2.6875 -6.765625 2.789062 -7.484375 3 -8.140625 C 3.207031 -8.796875 3.519531 -9.359375 3.9375 -9.828125 C 4.351562 -10.304688 4.863281 -10.675781 5.46875 -10.9375 C 6.070312 -11.195312 6.773438 -11.328125 7.578125 -11.328125 C 8.109375 -11.328125 8.609375 -11.269531 9.078125 -11.15625 C 9.546875 -11.050781 9.957031 -10.90625 10.3125 -10.71875 C 10.675781 -10.539062 10.972656 -10.332031 11.203125 -10.09375 C 11.441406 -9.863281 11.59375 -9.632812 11.65625 -9.40625 L 12.875 -9.40625 C 12.769531 -9.65625 12.597656 -9.929688 12.359375 -10.234375 C 12.117188 -10.546875 11.785156 -10.835938 11.359375 -11.109375 C 10.941406 -11.378906 10.425781 -11.609375 9.8125 -11.796875 C 9.195312 -11.984375 8.472656 -12.078125 7.640625 -12.078125 C 6.671875 -12.078125 5.78125 -11.941406 4.96875 -11.671875 C 4.164062 -11.398438 3.46875 -11.007812 2.875 -10.5 C 2.289062 -9.988281 1.832031 -9.363281 1.5 -8.625 C 1.175781 -7.882812 1.015625 -7.046875 1.015625 -6.109375 C 1.015625 -5.304688 1.140625 -4.523438 1.390625 -3.765625 C 1.648438 -3.015625 2.039062 -2.34375 2.5625 -1.75 C 3.09375 -1.15625 3.765625 -0.679688 4.578125 -0.328125 C 5.390625 0.0234375 6.363281 0.203125 7.5 0.203125 C 8.34375 0.203125 9.09375 0.109375 9.75 -0.078125 C 10.40625 -0.265625 10.953125 -0.472656 11.390625 -0.703125 L 11.390625 0 L 12.84375 0 Z M 12.84375 -5.296875 "/></g></g></g><g fill="#ffffff" fill-opacity="1"><g transform="translate(140.290946, 181.191493)"><g><path d="M 35.515625 -14.375 L 42.203125 0 L 48.96875 0 L 26.234375 -48.828125 L 22.75 -48.828125 L 2.09375 0 L 5.296875 0 L 11.4375 -14.375 Z M 34.046875 -17.515625 L 12.765625 -17.515625 L 22.8125 -41.015625 L 23.09375 -41.015625 Z M 34.046875 -17.515625 "/></g></g></g><g fill="#000000" fill-opacity="1"><g transform="translate(171.815231, 194.564856)"><g><path d="M 15.351562 -49.085938 C 15.453125 -49.085938 15.957031 -49.792969 16.160156 -50.296875 C 16.3125 -50.601562 16.3125 -50.652344 16.058594 -50.398438 C 15.90625 -50.296875 15.707031 -49.945312 15.554688 -49.640625 C 15.351562 -49.339844 15.300781 -49.085938 15.351562 -49.085938 Z M 20.957031 -35.855469 C 20.855469 -35.855469 19.949219 -34.289062 19.949219 -34.039062 C 19.949219 -33.9375 19.695312 -33.480469 19.339844 -33.027344 C 18.988281 -32.574219 18.585938 -31.867188 18.484375 -31.410156 C 18.332031 -31.007812 18.179688 -30.652344 18.078125 -30.601562 C 17.976562 -30.601562 17.675781 -30.199219 17.421875 -29.59375 C 16.917969 -28.632812 16.765625 -28.027344 17.019531 -27.824219 C 17.222656 -27.625 17.371094 -27.777344 17.320312 -28.128906 C 17.222656 -28.433594 17.222656 -28.433594 17.371094 -28.28125 C 17.472656 -28.128906 17.625 -28.28125 17.929688 -28.988281 C 18.179688 -29.492188 18.9375 -30.90625 19.59375 -32.167969 C 20.804688 -34.390625 21.058594 -34.894531 20.707031 -34.695312 C 20.554688 -34.59375 20.503906 -34.644531 20.65625 -34.945312 C 20.707031 -35.046875 20.855469 -35.097656 20.957031 -35.097656 C 21.058594 -35.046875 21.160156 -35.097656 21.160156 -35.148438 C 21.160156 -35.25 21.109375 -35.300781 21.058594 -35.300781 C 20.957031 -35.300781 20.957031 -35.453125 20.957031 -35.601562 C 21.007812 -35.753906 21.007812 -35.855469 20.957031 -35.855469 Z M 33.480469 -34.289062 C 33.429688 -34.238281 33.382812 -34.089844 33.382812 -33.988281 C 33.382812 -33.53125 33.632812 -33.886719 33.785156 -34.542969 C 33.9375 -34.894531 34.039062 -35.402344 34.089844 -35.550781 C 34.136719 -35.753906 34.089844 -35.855469 34.039062 -35.855469 C 33.886719 -35.855469 33.632812 -35.046875 33.632812 -34.542969 C 33.582031 -34.441406 33.53125 -34.339844 33.480469 -34.289062 Z M 32.21875 -27.371094 C 32.421875 -28.433594 32.421875 -28.632812 32.574219 -29.238281 C 32.722656 -29.847656 32.722656 -30.097656 32.523438 -29.945312 C 32.421875 -29.847656 31.867188 -27.269531 31.867188 -26.96875 C 31.867188 -26.5625 32.117188 -26.816406 32.21875 -27.371094 Z M 33.078125 -31.261719 C 33.230469 -31.664062 33.429688 -33.078125 33.332031 -32.976562 C 33.128906 -32.773438 32.773438 -31.308594 32.875 -31.160156 C 32.925781 -31.058594 33.027344 -31.109375 33.078125 -31.261719 Z M 29.339844 -14.089844 C 29.289062 -13.988281 29.289062 -13.835938 29.390625 -13.835938 C 29.59375 -13.835938 29.59375 -13.9375 29.945312 -15.65625 C 30.199219 -17.019531 30.199219 -17.171875 30.046875 -17.171875 C 29.996094 -17.171875 29.796875 -16.515625 29.644531 -15.757812 C 29.492188 -14.949219 29.339844 -14.242188 29.339844 -14.089844 Z M 34.136719 -36.160156 C 34.238281 -36.160156 34.289062 -36.257812 34.289062 -36.410156 C 34.289062 -36.5625 34.339844 -36.816406 34.441406 -36.917969 C 34.59375 -37.117188 35.300781 -39.492188 36.160156 -42.472656 C 36.308594 -43.027344 36.613281 -43.984375 36.816406 -44.59375 C 37.015625 -45.199219 37.421875 -46.460938 37.722656 -47.371094 C 37.976562 -48.226562 38.378906 -49.542969 38.632812 -50.148438 C 39.035156 -51.359375 39.136719 -52.117188 38.886719 -51.664062 C 38.734375 -51.511719 36.765625 -45.601562 36.460938 -44.441406 C 36.410156 -44.136719 35.90625 -42.722656 35.453125 -41.257812 C 34.695312 -38.886719 33.988281 -36.511719 33.988281 -36.257812 C 33.988281 -36.210938 34.039062 -36.160156 34.136719 -36.160156 Z M 10.351562 -29.289062 C 10.351562 -29.339844 10.25 -29.390625 10.152344 -29.390625 C 9.949219 -29.390625 9.746094 -28.988281 9.746094 -28.632812 C 9.746094 -28.484375 10.351562 -29.089844 10.351562 -29.289062 Z M 30.703125 -20.957031 C 30.652344 -20.605469 30.453125 -19.695312 30.300781 -18.9375 C 30.148438 -18.28125 30.046875 -17.625 30.046875 -17.574219 C 30.046875 -17.371094 30.351562 -17.828125 30.402344 -18.179688 C 30.453125 -18.535156 30.652344 -19.441406 30.855469 -20.402344 C 31.109375 -21.511719 31.109375 -21.714844 30.957031 -21.714844 C 30.90625 -21.714844 30.753906 -21.363281 30.703125 -20.957031 Z M 0.402344 -0.503906 C 0.605469 -0.503906 0.757812 -0.402344 0.757812 -0.304688 C 0.859375 0.0507812 2.523438 0.859375 3.382812 1.011719 C 4.34375 1.160156 4.546875 1.160156 4.546875 0.960938 C 4.546875 0.808594 4.746094 0.757812 5.101562 0.757812 C 5.351562 0.757812 5.859375 0.65625 6.160156 0.605469 C 6.617188 0.453125 6.667969 0.402344 6.765625 -0.304688 C 6.816406 -0.65625 6.96875 -1.210938 7.070312 -1.464844 C 7.171875 -1.71875 7.523438 -2.929688 7.828125 -4.089844 C 8.128906 -5.253906 8.484375 -6.363281 8.535156 -6.515625 C 8.585938 -6.667969 8.789062 -7.222656 8.988281 -7.828125 C 9.191406 -8.382812 9.394531 -8.9375 9.445312 -9.089844 C 9.746094 -9.746094 10.351562 -11.613281 10.351562 -11.816406 C 10.351562 -11.917969 10.453125 -12.222656 10.554688 -12.421875 C 10.707031 -12.675781 10.808594 -12.929688 10.808594 -13.078125 C 10.808594 -13.230469 10.90625 -13.433594 11.007812 -13.636719 C 11.109375 -13.785156 11.464844 -14.542969 11.714844 -15.300781 C 11.96875 -16.058594 12.273438 -16.816406 12.371094 -16.96875 C 12.726562 -17.726562 14.039062 -20.753906 14.34375 -21.613281 C 14.59375 -22.269531 14.644531 -22.574219 14.492188 -22.625 C 14.441406 -22.675781 14.394531 -22.777344 14.441406 -22.875 C 14.492188 -23.027344 14.542969 -23.027344 14.59375 -22.925781 C 14.746094 -22.777344 15 -23.078125 15.351562 -23.785156 C 15.503906 -24.140625 15.503906 -24.191406 15.25 -24.191406 C 15.050781 -24.191406 15.050781 -24.191406 15.300781 -24.289062 C 15.554688 -24.390625 15.855469 -24.898438 16.363281 -25.855469 C 17.070312 -27.371094 17.171875 -27.675781 16.867188 -27.574219 C 16.765625 -27.574219 16.414062 -26.917969 16.007812 -26.109375 C 15.605469 -25.25 15.300781 -24.746094 15.25 -24.847656 C 15.148438 -24.996094 15.101562 -24.949219 15 -24.746094 C 14.949219 -24.59375 14.746094 -24.289062 14.59375 -23.988281 C 14.394531 -23.785156 13.988281 -22.925781 13.734375 -22.167969 C 13.484375 -21.414062 13.128906 -20.605469 12.980469 -20.402344 C 12.828125 -20.148438 12.472656 -19.492188 12.171875 -18.988281 C 11.363281 -17.675781 11.414062 -18.027344 12.222656 -19.542969 C 12.625 -20.25 13.078125 -21.3125 13.332031 -21.96875 C 13.585938 -22.625 13.886719 -23.332031 14.039062 -23.582031 C 14.191406 -23.835938 14.292969 -24.140625 14.292969 -24.242188 C 14.292969 -24.339844 14.644531 -24.949219 15 -25.605469 C 15.402344 -26.261719 15.707031 -26.917969 15.707031 -27.019531 C 15.707031 -27.167969 15.808594 -27.472656 16.007812 -27.726562 C 16.160156 -27.925781 16.515625 -28.683594 16.816406 -29.289062 C 17.675781 -31.160156 20.402344 -36.160156 21.96875 -38.683594 C 27.625 -47.773438 35.199219 -57.824219 39.542969 -61.863281 C 41.765625 -63.933594 42.371094 -64.1875 40.601562 -62.417969 C 39.792969 -61.558594 38.9375 -60.703125 38.734375 -60.5 C 38.53125 -60.296875 37.574219 -59.1875 36.613281 -58.023438 C 35.601562 -56.8125 34.746094 -55.804688 34.695312 -55.703125 C 34.59375 -55.652344 34.089844 -55.046875 33.582031 -54.390625 C 33.078125 -53.683594 32.472656 -52.925781 32.167969 -52.621094 C 31.917969 -52.320312 31.714844 -52.015625 31.714844 -51.914062 C 31.714844 -51.761719 28.53125 -47.472656 27.976562 -46.863281 C 27.726562 -46.613281 27.421875 -46.15625 27.269531 -45.855469 C 27.117188 -45.550781 26.867188 -45.097656 26.613281 -44.84375 C 26.210938 -44.390625 25.703125 -43.582031 24.898438 -42.167969 C 24.59375 -41.613281 24.191406 -41.007812 23.988281 -40.804688 C 23.484375 -40.351562 22.625 -38.988281 22.320312 -38.230469 C 22.167969 -37.875 21.867188 -37.371094 21.714844 -37.117188 C 21.363281 -36.613281 21.058594 -35.300781 21.3125 -35.300781 C 21.363281 -35.300781 21.765625 -35.90625 22.167969 -36.613281 C 22.523438 -37.371094 23.28125 -38.53125 23.734375 -39.1875 C 24.242188 -39.894531 25.148438 -41.308594 25.804688 -42.320312 C 30.25 -49.339844 36.867188 -57.824219 40.90625 -61.660156 C 41.863281 -62.570312 42.066406 -62.671875 42.066406 -62.417969 C 42.066406 -61.964844 41.460938 -59.238281 41.207031 -58.582031 C 41.058594 -58.277344 41.007812 -57.875 41.058594 -57.671875 C 41.15625 -57.066406 40.300781 -54.035156 38.9375 -50.097656 C 37.574219 -46.15625 35.804688 -40.449219 35.453125 -39.085938 C 35.402344 -38.734375 35.25 -38.128906 35.097656 -37.824219 C 34.996094 -37.472656 34.945312 -37.167969 34.996094 -37.066406 C 35.046875 -37.015625 34.996094 -36.867188 34.84375 -36.765625 C 34.746094 -36.664062 34.542969 -36.007812 34.492188 -35.300781 C 34.339844 -34.59375 34.1875 -33.734375 34.039062 -33.382812 C 33.785156 -32.574219 33.632812 -31.765625 33.632812 -31.109375 C 33.582031 -30.804688 33.480469 -30.351562 33.332031 -30.148438 C 33.230469 -29.894531 33.128906 -29.644531 33.230469 -29.59375 C 33.382812 -29.542969 33.230469 -28.683594 33.078125 -28.683594 C 33.027344 -28.683594 32.976562 -28.433594 32.976562 -28.078125 C 32.976562 -27.726562 32.875 -27.371094 32.824219 -27.371094 C 32.722656 -27.320312 32.675781 -26.917969 32.675781 -26.511719 C 32.625 -26.007812 32.523438 -25.703125 32.371094 -25.605469 C 32.167969 -25.453125 32.167969 -25.402344 32.269531 -25.402344 C 32.421875 -25.402344 32.472656 -25.25 32.421875 -24.746094 C 32.21875 -23.683594 32.117188 -23.433594 31.96875 -23.632812 C 31.917969 -23.785156 31.867188 -23.582031 31.867188 -23.078125 C 31.867188 -21.714844 31.160156 -18.28125 30.90625 -18.28125 C 30.804688 -18.28125 30.804688 -18.027344 30.855469 -17.675781 C 30.957031 -17.269531 30.90625 -17.171875 30.804688 -17.222656 C 30.652344 -17.320312 30.554688 -16.765625 30.601562 -16.058594 C 30.601562 -15.65625 29.996094 -12.625 29.796875 -12.019531 C 29.644531 -11.714844 29.542969 -11.363281 29.542969 -11.210938 C 29.542969 -10.859375 29.140625 -9.949219 29.039062 -10.050781 C 28.988281 -10.101562 29.039062 -10.707031 29.1875 -11.414062 C 29.441406 -12.929688 29.492188 -13.484375 29.289062 -13.382812 C 29.089844 -13.28125 28.632812 -10.859375 28.683594 -10.199219 C 28.734375 -9.796875 28.785156 -9.644531 29.039062 -9.59375 C 29.1875 -9.59375 29.542969 -9.34375 29.796875 -9.039062 C 30.046875 -8.738281 30.300781 -8.535156 30.351562 -8.585938 C 30.453125 -8.636719 30.453125 -8.738281 30.402344 -8.789062 C 30.25 -8.988281 30.503906 -8.9375 30.804688 -8.6875 C 30.957031 -8.535156 31.109375 -8.382812 31.109375 -8.28125 C 31.109375 -8.179688 31.308594 -8.082031 31.613281 -7.980469 C 31.917969 -7.878906 32.167969 -7.878906 32.167969 -7.980469 C 32.167969 -8.03125 32.269531 -8.03125 32.371094 -7.980469 C 32.824219 -7.828125 33.382812 -8.332031 33.480469 -9.039062 C 33.632812 -9.949219 34.089844 -11.210938 34.996094 -13.078125 C 35.804688 -14.847656 36.511719 -16.613281 36.460938 -16.816406 C 36.410156 -16.867188 36.511719 -16.96875 36.664062 -17.070312 C 36.867188 -17.222656 36.917969 -17.371094 36.816406 -17.625 C 36.765625 -17.828125 36.816406 -17.976562 36.867188 -18.027344 C 36.964844 -18.078125 37.015625 -18.332031 37.015625 -18.535156 C 37.015625 -18.785156 37.066406 -18.835938 37.167969 -18.683594 C 37.320312 -18.484375 37.320312 -18.535156 37.421875 -18.734375 C 37.472656 -18.835938 37.472656 -18.988281 37.421875 -19.039062 C 37.371094 -19.089844 37.421875 -19.191406 37.574219 -19.292969 C 37.671875 -19.339844 37.875 -19.695312 38.027344 -20.097656 C 38.128906 -20.453125 38.480469 -21.210938 38.785156 -21.816406 C 39.085938 -22.371094 39.492188 -23.28125 39.742188 -23.835938 C 40.300781 -25.148438 42.722656 -29.542969 43.9375 -31.460938 C 44.492188 -32.320312 44.945312 -33.027344 44.945312 -33.078125 C 44.945312 -33.128906 45.5 -33.785156 46.105469 -34.59375 C 46.765625 -35.351562 47.269531 -36.058594 47.269531 -36.109375 C 47.269531 -36.160156 47.421875 -36.308594 47.621094 -36.460938 C 47.976562 -36.664062 48.027344 -36.664062 48.078125 -36.460938 C 48.175781 -36.160156 48.078125 -32.472656 47.976562 -32.320312 C 47.925781 -32.269531 47.773438 -31.210938 47.621094 -29.945312 C 47.519531 -28.683594 47.269531 -26.96875 47.167969 -26.058594 C 46.914062 -24.339844 47.015625 -23.886719 47.320312 -24.492188 C 47.519531 -24.746094 47.570312 -24.695312 47.570312 -23.835938 C 47.570312 -23.28125 47.570312 -22.019531 47.519531 -20.957031 C 47.519531 -19.898438 47.472656 -18.734375 47.472656 -18.433594 C 47.472656 -17.675781 47.320312 -17.675781 47.167969 -18.382812 C 47.066406 -18.988281 46.765625 -19.140625 46.765625 -18.636719 C 46.765625 -18.179688 47.21875 -17.269531 47.421875 -17.269531 C 47.472656 -17.269531 47.570312 -17.222656 47.570312 -17.070312 C 47.570312 -16.816406 49.1875 -15.300781 49.339844 -15.402344 C 49.390625 -15.453125 49.640625 -15.351562 49.894531 -15.148438 C 50.5 -14.796875 51.511719 -14.394531 51.664062 -14.492188 C 51.761719 -14.542969 51.863281 -14.492188 51.914062 -14.394531 C 52.117188 -14.089844 53.226562 -14.292969 54.390625 -14.746094 C 54.996094 -15 55.550781 -15.25 55.652344 -15.25 C 55.753906 -15.25 55.804688 -15.300781 55.804688 -15.402344 C 55.804688 -15.554688 56.054688 -15.855469 56.410156 -16.058594 C 56.964844 -16.515625 58.53125 -18.382812 58.53125 -18.683594 C 58.53125 -18.734375 58.328125 -19.039062 58.125 -19.292969 C 57.621094 -19.847656 57.417969 -19.847656 56.410156 -19.089844 C 55.347656 -18.28125 51.359375 -16.363281 51.054688 -16.515625 C 51.003906 -16.5625 51.003906 -16.765625 51.003906 -16.96875 C 51.054688 -17.171875 51.054688 -17.269531 50.957031 -17.269531 C 50.90625 -17.269531 50.855469 -18.027344 50.90625 -18.9375 C 50.90625 -20.300781 50.90625 -20.605469 50.703125 -20.804688 C 50.398438 -21.058594 50.347656 -21.511719 50.601562 -21.613281 C 50.855469 -21.765625 51.054688 -22.675781 51.054688 -23.886719 C 51.105469 -24.492188 51.15625 -25.25 51.207031 -25.503906 C 51.308594 -25.804688 51.257812 -26.109375 51.15625 -26.261719 C 51.003906 -26.460938 51.054688 -26.5625 51.207031 -26.613281 C 51.410156 -26.765625 51.511719 -27.824219 51.8125 -31.613281 C 52.117188 -35.855469 52.015625 -36.964844 51.207031 -38.179688 L 50.703125 -38.9375 L 49.945312 -38.835938 L 49.238281 -38.734375 L 49.339844 -39.136719 C 49.390625 -39.492188 49.390625 -39.542969 48.683594 -39.695312 C 48.175781 -39.742188 47.875 -39.792969 47.824219 -39.695312 C 47.773438 -39.59375 47.722656 -39.59375 47.621094 -39.695312 C 47.472656 -39.894531 46.460938 -39.390625 45.804688 -38.734375 C 44.035156 -37.015625 41.15625 -33.332031 41.15625 -32.824219 C 41.15625 -32.675781 41.058594 -32.523438 40.957031 -32.472656 C 40.601562 -32.371094 37.523438 -27.019531 37.523438 -26.613281 C 37.523438 -26.460938 37.371094 -26.3125 37.269531 -26.210938 C 37.117188 -26.160156 37.015625 -26.007812 37.015625 -25.957031 C 37.015625 -25.90625 36.714844 -25.300781 36.359375 -24.542969 C 35.957031 -23.835938 35.703125 -23.484375 35.753906 -23.734375 C 35.804688 -23.9375 35.753906 -24.191406 35.703125 -24.242188 C 35.601562 -24.289062 35.503906 -24.492188 35.503906 -24.695312 C 35.503906 -24.898438 35.601562 -24.996094 35.753906 -24.949219 C 36.109375 -24.898438 36.160156 -25.199219 37.320312 -30.148438 C 37.824219 -32.269531 38.28125 -34.089844 38.328125 -34.238281 C 38.378906 -34.339844 38.328125 -34.492188 38.28125 -34.542969 C 38.179688 -34.59375 38.078125 -34.796875 38.078125 -34.894531 C 38.078125 -35.046875 38.179688 -35.148438 38.230469 -35.097656 C 38.328125 -35.046875 38.480469 -35.148438 38.53125 -35.25 C 38.683594 -35.550781 39.84375 -39.441406 40.199219 -40.90625 C 40.300781 -41.410156 40.449219 -41.863281 40.5 -41.964844 C 40.550781 -42.015625 40.601562 -42.269531 40.652344 -42.472656 C 40.652344 -42.773438 40.90625 -43.53125 42.21875 -47.773438 C 42.523438 -48.582031 42.875 -49.792969 43.078125 -50.449219 C 43.230469 -51.054688 43.582031 -52.320312 43.886719 -53.175781 C 45.300781 -58.074219 45.804688 -60.195312 45.804688 -61.8125 C 45.804688 -62.773438 45.753906 -62.972656 45.351562 -63.730469 C 44.894531 -64.539062 44.894531 -64.539062 44.238281 -64.539062 C 43.683594 -64.539062 43.582031 -64.539062 43.582031 -64.792969 C 43.582031 -65.246094 43.429688 -65.398438 42.671875 -65.550781 C 42.015625 -65.703125 41.914062 -65.652344 41.007812 -65.296875 C 38.429688 -64.136719 33.785156 -58.984375 27.167969 -50.046875 C 24.140625 -45.855469 22.726562 -43.886719 22.070312 -42.773438 C 21.714844 -42.21875 21.261719 -41.410156 21.007812 -41.007812 C 20.753906 -40.601562 20.605469 -40.25 20.707031 -40.25 C 20.804688 -40.25 20.855469 -40.199219 20.804688 -40.148438 C 20.753906 -40.046875 20.65625 -39.996094 20.605469 -40.046875 C 20.402344 -40.148438 20.046875 -39.492188 20.199219 -39.289062 C 20.25 -39.238281 20.199219 -39.1875 20.097656 -39.1875 C 20 -39.1875 19.898438 -39.136719 19.847656 -39.035156 C 19.796875 -38.9375 19.847656 -38.886719 19.949219 -38.9375 C 20.046875 -38.988281 20 -38.785156 19.796875 -38.480469 C 19.59375 -38.128906 19.441406 -37.925781 19.292969 -38.027344 C 19.191406 -38.078125 19.191406 -38.027344 19.242188 -37.875 C 19.292969 -37.773438 19.089844 -37.269531 18.785156 -36.765625 C 18.535156 -36.257812 18.28125 -35.753906 18.28125 -35.652344 C 18.28125 -35.550781 18.179688 -35.402344 18.078125 -35.25 C 17.472656 -34.796875 14.089844 -28.230469 13.484375 -26.511719 C 13.332031 -26.109375 13.128906 -25.703125 13.078125 -25.605469 C 13.027344 -25.554688 12.929688 -25.402344 12.929688 -25.25 C 12.929688 -25.097656 12.828125 -24.949219 12.726562 -24.847656 C 12.523438 -24.644531 11.414062 -22.472656 11.414062 -22.21875 C 11.414062 -22.167969 11.261719 -21.765625 11.058594 -21.363281 C 9.746094 -18.886719 9.089844 -17.269531 9.242188 -17.121094 C 9.394531 -17.019531 9.496094 -17.171875 9.746094 -17.574219 C 9.898438 -17.929688 10.25 -18.636719 10.554688 -19.242188 C 10.859375 -19.796875 11.160156 -20.503906 11.261719 -20.804688 C 11.414062 -21.109375 11.515625 -21.414062 11.566406 -21.511719 C 11.664062 -21.5625 12.320312 -22.976562 13.078125 -24.644531 C 13.886719 -26.3125 14.695312 -28.128906 14.949219 -28.632812 C 15.554688 -29.894531 19.191406 -36.308594 19.292969 -36.257812 C 19.339844 -36.210938 16.363281 -30.855469 16.160156 -30.554688 C 15.90625 -30.300781 14.695312 -27.777344 14.089844 -26.3125 C 13.734375 -25.453125 13.128906 -24.140625 12.726562 -23.332031 C 11.664062 -21.210938 10.554688 -18.734375 10.050781 -17.472656 C 9.039062 -14.898438 8.6875 -14.089844 8.484375 -13.785156 C 8.382812 -13.636719 8.179688 -13.28125 8.082031 -12.980469 C 7.929688 -12.675781 7.828125 -12.472656 7.828125 -12.574219 C 7.726562 -12.726562 8.433594 -14.542969 9.089844 -16.160156 C 9.394531 -16.816406 9.394531 -17.019531 9.140625 -17.019531 C 8.9375 -17.019531 7.523438 -13.585938 7.375 -12.878906 C 7.375 -12.777344 7.324219 -12.574219 7.273438 -12.472656 C 7.019531 -11.96875 5 -6.464844 4.949219 -6.3125 C 4.898438 -6.160156 4.746094 -5.808594 4.59375 -5.453125 C 4.394531 -5.101562 4.191406 -4.546875 4.089844 -4.242188 C 3.988281 -3.9375 3.839844 -3.6875 3.789062 -3.6875 C 3.6875 -3.6875 3.6875 -3.839844 3.789062 -3.988281 C 3.839844 -4.140625 3.988281 -4.949219 4.089844 -5.757812 C 4.191406 -6.515625 4.34375 -7.625 4.496094 -8.128906 C 4.59375 -8.6875 4.746094 -9.292969 4.746094 -9.445312 C 4.796875 -9.644531 5 -10.152344 5.152344 -10.605469 C 5.453125 -11.261719 5.453125 -11.464844 5.300781 -11.566406 C 5.152344 -11.613281 5.152344 -11.664062 5.300781 -11.664062 C 5.402344 -11.664062 5.453125 -11.765625 5.453125 -11.917969 C 5.402344 -12.070312 5.453125 -12.222656 5.554688 -12.371094 C 5.757812 -12.574219 6.414062 -14.746094 6.414062 -15.199219 C 6.414062 -15.351562 6.464844 -15.605469 6.515625 -15.757812 C 6.765625 -16.109375 7.121094 -17.421875 7.273438 -18.179688 C 7.324219 -18.535156 7.375 -18.785156 7.472656 -18.785156 C 7.523438 -18.785156 7.625 -19.039062 7.675781 -19.292969 C 7.777344 -19.746094 8.988281 -23.179688 9.847656 -25.605469 C 10.101562 -26.3125 10.554688 -27.472656 10.808594 -28.230469 C 11.058594 -28.988281 11.414062 -29.847656 11.566406 -30.148438 C 11.867188 -30.703125 11.96875 -31.058594 11.96875 -31.160156 C 11.96875 -31.210938 12.121094 -31.460938 12.222656 -31.714844 C 12.371094 -31.96875 12.472656 -32.21875 12.421875 -32.269531 C 12.320312 -32.421875 12.726562 -33.582031 12.878906 -33.582031 C 12.980469 -33.582031 13.128906 -33.886719 13.28125 -34.238281 C 13.382812 -34.542969 13.6875 -35.199219 13.886719 -35.601562 C 14.089844 -36.007812 14.492188 -36.917969 14.746094 -37.574219 C 15.605469 -39.695312 15.808594 -40.046875 18.785156 -45.804688 C 20.804688 -49.742188 23.027344 -53.632812 23.886719 -54.792969 C 24.390625 -55.5 25.097656 -56.460938 25.453125 -57.015625 C 25.753906 -57.570312 26.460938 -58.429688 26.917969 -58.984375 C 28.128906 -60.449219 28.027344 -61.003906 26.410156 -61.8125 C 25.90625 -62.066406 25.453125 -62.21875 25.351562 -62.167969 C 25.351562 -62.117188 25.046875 -62.066406 24.695312 -62.117188 C 24.191406 -62.117188 24.039062 -62.066406 23.28125 -61.410156 C 22.21875 -60.449219 20.402344 -58.378906 20.402344 -58.074219 C 20.402344 -57.824219 19.898438 -56.863281 19.441406 -56.308594 C 19.292969 -56.105469 18.9375 -55.5 18.636719 -54.996094 C 18.332031 -54.492188 17.777344 -53.582031 17.421875 -52.925781 C 17.070312 -52.320312 16.765625 -51.710938 16.816406 -51.613281 C 16.816406 -51.5625 17.019531 -51.710938 17.222656 -52.066406 C 17.371094 -52.371094 17.574219 -52.621094 17.574219 -52.621094 C 17.625 -52.621094 17.269531 -51.964844 16.816406 -51.105469 C 15.855469 -49.441406 14.292969 -46.460938 14.292969 -46.359375 C 14.292969 -46.359375 14.140625 -46.007812 13.9375 -45.550781 C 13.734375 -45.148438 13.535156 -44.792969 13.535156 -44.742188 C 13.535156 -44.691406 13.484375 -44.441406 13.332031 -44.1875 C 10.957031 -39.339844 8.332031 -33.382812 7.171875 -30.25 C 5.757812 -26.363281 4.394531 -22.574219 3.886719 -20.855469 C 3.230469 -18.835938 2.019531 -14.492188 1.816406 -13.585938 C 1.71875 -13.230469 1.566406 -12.574219 1.464844 -12.070312 C 0.859375 -10 0.152344 -5.253906 0.101562 -3.132812 L 0.101562 -1.96875 L -0.0507812 -3.585938 C -0.101562 -4.847656 -0.101562 -5.554688 0.0507812 -6.414062 C 0.253906 -7.472656 0.253906 -7.828125 0.0507812 -7.675781 C -0.152344 -7.472656 -0.453125 -4.898438 -0.453125 -3.433594 C -0.453125 -2.019531 -0.402344 -1.566406 -0.152344 -1.109375 C 0.0507812 -0.707031 0.203125 -0.503906 0.402344 -0.503906 Z M 47.671875 -24.949219 C 47.621094 -24.847656 47.570312 -24.898438 47.570312 -25.046875 C 47.570312 -25.199219 47.621094 -25.300781 47.621094 -25.25 C 47.722656 -25.199219 47.722656 -25.046875 47.671875 -24.949219 Z M 48.277344 -21.363281 C 48.429688 -21.867188 48.429688 -21.867188 48.429688 -21.058594 C 48.429688 -20.605469 48.378906 -19.898438 48.328125 -19.492188 L 48.226562 -18.734375 L 48.175781 -19.796875 C 48.175781 -20.351562 48.226562 -21.058594 48.277344 -21.363281 Z M 34.695312 -32.722656 C 34.746094 -32.925781 34.796875 -33.382812 34.84375 -33.734375 C 34.894531 -34.136719 35.046875 -34.339844 35.148438 -34.339844 C 35.300781 -34.339844 35.300781 -34.492188 35.25 -34.796875 C 35.199219 -35.097656 35.25 -35.199219 35.300781 -35.046875 C 35.453125 -34.945312 35.503906 -34.996094 35.601562 -35.199219 C 36.109375 -36.160156 36.308594 -37.320312 35.90625 -37.167969 C 35.804688 -37.117188 35.855469 -37.167969 36.007812 -37.269531 C 36.160156 -37.371094 36.257812 -37.523438 36.257812 -37.625 C 36.257812 -37.722656 36.308594 -37.824219 36.410156 -37.824219 C 36.714844 -38.027344 36.109375 -35.453125 35.804688 -35.097656 C 35.601562 -34.84375 35.199219 -33.53125 35.199219 -33.027344 C 35.199219 -32.824219 35.097656 -32.472656 34.996094 -32.269531 C 34.746094 -31.917969 34.746094 -31.917969 34.84375 -32.421875 C 34.894531 -32.824219 34.894531 -32.875 34.746094 -32.625 C 34.59375 -32.371094 34.59375 -32.421875 34.695312 -32.722656 Z M 35.90625 -29.390625 C 35.855469 -29.238281 35.855469 -29.289062 35.855469 -29.441406 C 35.804688 -29.59375 35.855469 -29.695312 35.90625 -29.644531 C 35.957031 -29.59375 35.957031 -29.492188 35.90625 -29.390625 Z M 33.429688 -27.574219 C 33.480469 -28.179688 33.785156 -29.390625 34.1875 -30.90625 C 34.289062 -31.308594 34.390625 -31.410156 34.492188 -31.308594 C 34.542969 -31.160156 34.59375 -31.210938 34.59375 -31.410156 C 34.59375 -31.5625 34.695312 -31.511719 34.796875 -31.160156 L 34.996094 -30.703125 L 35.199219 -31.109375 C 35.351562 -31.511719 35.351562 -31.511719 35.25 -30.957031 C 35.148438 -30.300781 34.59375 -29.140625 34.492188 -29.390625 C 34.390625 -29.644531 33.988281 -29.289062 33.988281 -28.9375 C 33.988281 -28.785156 33.835938 -28.230469 33.683594 -27.726562 L 33.382812 -26.867188 Z M 34.089844 -23.179688 C 34.039062 -23.078125 33.988281 -23.078125 33.988281 -23.28125 C 33.988281 -23.433594 34.039062 -23.484375 34.089844 -23.433594 C 34.136719 -23.382812 34.136719 -23.28125 34.089844 -23.179688 Z M 33.332031 -26.664062 C 33.382812 -26.613281 33.382812 -26.410156 33.332031 -26.363281 C 33.28125 -26.261719 33.230469 -26.3125 33.230469 -26.511719 C 33.230469 -26.714844 33.28125 -26.765625 33.332031 -26.664062 Z M 32.875 -24.289062 C 32.925781 -24.242188 32.925781 -24.089844 32.875 -23.988281 C 32.824219 -23.886719 32.773438 -23.9375 32.773438 -24.089844 C 32.773438 -24.242188 32.824219 -24.339844 32.875 -24.289062 Z M 32.421875 -21.917969 C 32.472656 -21.867188 32.472656 -21.765625 32.421875 -21.664062 C 32.371094 -21.5625 32.320312 -21.613281 32.320312 -21.765625 C 32.320312 -21.917969 32.371094 -21.96875 32.421875 -21.917969 Z M 30.503906 -12.371094 C 30.453125 -12.472656 30.601562 -12.675781 30.703125 -12.828125 C 30.804688 -12.980469 30.90625 -13.027344 30.90625 -12.980469 C 30.90625 -12.726562 30.503906 -12.121094 30.503906 -12.371094 Z M 32.472656 -18.734375 C 32.320312 -18.433594 32.066406 -17.878906 31.96875 -17.472656 C 31.867188 -17.070312 31.714844 -16.765625 31.664062 -16.765625 C 31.460938 -16.816406 31.160156 -15.148438 31.308594 -15 C 31.460938 -14.847656 31.5625 -15.050781 31.613281 -15.65625 C 31.714844 -16.3125 31.867188 -16.515625 31.867188 -15.957031 C 31.917969 -15.25 31.816406 -14.898438 31.511719 -14.089844 C 31.160156 -13.230469 31.007812 -13.078125 31.160156 -13.734375 C 31.210938 -13.988281 31.160156 -14.089844 31.109375 -14.039062 C 31.007812 -14.039062 30.957031 -13.835938 30.957031 -13.734375 C 30.957031 -13.585938 30.855469 -13.433594 30.804688 -13.382812 C 30.703125 -13.332031 30.652344 -13.433594 30.703125 -13.6875 C 30.753906 -13.886719 31.058594 -15.554688 31.410156 -17.371094 C 31.765625 -19.191406 32.066406 -20.855469 32.117188 -21.058594 L 32.21875 -21.511719 L 32.320312 -21.109375 C 32.421875 -20.402344 32.675781 -20.65625 32.722656 -21.5625 C 32.722656 -22.019531 32.824219 -22.472656 32.925781 -22.574219 C 32.976562 -22.675781 33.078125 -23.128906 33.128906 -23.582031 C 33.179688 -24.242188 33.28125 -24.542969 33.53125 -24.746094 C 33.683594 -24.898438 33.835938 -25.097656 33.835938 -25.148438 C 33.835938 -25.25 33.886719 -25.300781 33.886719 -25.25 C 33.9375 -25.25 33.9375 -24.949219 33.835938 -24.644531 C 33.785156 -24.339844 33.480469 -23.027344 33.230469 -21.664062 C 32.976562 -20.199219 32.675781 -19.039062 32.472656 -18.734375 Z M 33.785156 -21.664062 C 33.734375 -21.5625 33.683594 -21.613281 33.683594 -21.765625 C 33.683594 -21.917969 33.734375 -21.96875 33.785156 -21.917969 C 33.835938 -21.867188 33.835938 -21.765625 33.785156 -21.664062 Z M 33.230469 -18.382812 C 33.078125 -17.828125 33.027344 -17.777344 32.875 -17.929688 C 32.824219 -17.976562 33.28125 -19.746094 33.429688 -19.847656 C 33.582031 -20 33.429688 -19.242188 33.230469 -18.382812 Z M 33.835938 -21.007812 L 33.53125 -20.65625 L 33.53125 -20.957031 C 33.53125 -21.160156 33.683594 -21.363281 33.835938 -21.414062 C 33.988281 -21.511719 34.136719 -21.511719 34.136719 -21.414062 C 34.136719 -21.363281 33.988281 -21.160156 33.835938 -21.007812 Z M 35.453125 -27.371094 C 35.402344 -27.019531 35.300781 -26.5625 35.25 -26.3125 C 35.148438 -25.90625 35.097656 -25.503906 35.046875 -25.199219 C 35.046875 -25.097656 34.894531 -24.996094 34.746094 -24.949219 C 34.542969 -24.898438 34.441406 -24.796875 34.441406 -24.542969 L 34.492188 -24.242188 L 34.59375 -24.59375 C 34.746094 -24.898438 34.746094 -24.898438 34.695312 -24.492188 C 34.695312 -24.289062 34.59375 -24.140625 34.492188 -24.140625 C 34.441406 -24.140625 34.339844 -24.089844 34.238281 -23.988281 C 34.1875 -23.886719 34.1875 -24.039062 34.1875 -24.289062 C 34.238281 -24.59375 34.390625 -25.453125 34.542969 -26.210938 C 34.796875 -27.976562 35.25 -29.695312 35.300781 -29.339844 C 35.351562 -29.238281 35.25 -28.734375 35.148438 -28.230469 C 34.996094 -27.777344 34.894531 -27.269531 34.945312 -27.117188 C 34.996094 -26.867188 34.996094 -26.867188 35.097656 -27.117188 C 35.453125 -27.925781 35.503906 -27.925781 35.453125 -27.371094 Z M 38.328125 -25.097656 C 38.53125 -25.402344 38.683594 -25.703125 38.632812 -25.703125 C 38.480469 -25.855469 39.136719 -27.019531 39.492188 -27.320312 C 39.644531 -27.523438 39.742188 -27.675781 39.742188 -27.726562 C 39.695312 -27.777344 39.742188 -27.925781 39.84375 -28.128906 C 40.25 -28.886719 40.703125 -29.847656 40.703125 -29.996094 C 40.703125 -30.503906 43.53125 -34.644531 43.984375 -34.796875 C 44.085938 -34.84375 44.492188 -35.300781 44.894531 -35.804688 C 45.601562 -36.816406 47.472656 -38.582031 47.671875 -38.429688 C 47.722656 -38.378906 47.320312 -37.925781 46.8125 -37.472656 C 45.753906 -36.511719 43.683594 -33.988281 43.785156 -33.785156 C 43.835938 -33.683594 44.238281 -34.136719 44.691406 -34.796875 C 45.957031 -36.410156 48.027344 -38.328125 48.027344 -37.824219 C 48.027344 -37.773438 47.621094 -37.371094 47.167969 -36.917969 C 46.058594 -35.753906 43.582031 -32.371094 43.582031 -32.015625 C 43.582031 -31.917969 43.328125 -31.5625 43.078125 -31.210938 C 42.773438 -30.855469 42.269531 -29.996094 41.914062 -29.339844 C 41.5625 -28.632812 41.15625 -28.027344 41.058594 -27.976562 C 40.804688 -27.875 39.238281 -25.148438 39.289062 -24.898438 C 39.289062 -24.796875 39.238281 -24.746094 39.136719 -24.746094 C 39.085938 -24.746094 39.035156 -24.644531 39.035156 -24.542969 C 39.085938 -24.191406 39.035156 -24.039062 38.632812 -23.683594 C 38.429688 -23.484375 38.230469 -23.179688 38.230469 -23.027344 C 38.230469 -22.875 38.128906 -22.675781 38.027344 -22.523438 C 37.773438 -22.320312 37.773438 -22.371094 37.824219 -23.078125 L 37.925781 -23.835938 L 37.523438 -23.128906 C 37.371094 -22.777344 36.964844 -21.96875 36.664062 -21.414062 C 36.359375 -20.855469 36.109375 -20.453125 36.109375 -20.503906 C 36.109375 -20.707031 37.976562 -24.59375 38.328125 -25.097656 Z M 35.652344 -22.925781 C 35.753906 -22.925781 35.804688 -22.875 35.804688 -22.828125 C 35.804688 -22.726562 35.753906 -22.625 35.652344 -22.574219 C 35.601562 -22.523438 35.503906 -22.625 35.503906 -22.726562 C 35.503906 -22.828125 35.601562 -22.925781 35.652344 -22.925781 Z M 35.503906 -28.28125 C 35.453125 -28.28125 35.402344 -28.382812 35.453125 -28.484375 C 35.503906 -28.632812 35.550781 -28.683594 35.601562 -28.683594 C 35.652344 -28.683594 35.652344 -28.632812 35.652344 -28.484375 C 35.652344 -28.382812 35.601562 -28.28125 35.503906 -28.28125 Z M 35.90625 -26.816406 C 35.753906 -26.816406 35.652344 -26.816406 35.703125 -26.867188 C 35.753906 -26.917969 35.90625 -26.917969 36.007812 -26.867188 C 36.109375 -26.816406 36.109375 -26.816406 35.90625 -26.816406 Z M 36.511719 -34.039062 C 36.460938 -33.9375 36.460938 -33.988281 36.410156 -34.136719 C 36.410156 -34.289062 36.460938 -34.339844 36.511719 -34.289062 C 36.5625 -34.289062 36.5625 -34.136719 36.511719 -34.039062 Z M 36.613281 -38.328125 C 36.511719 -38.027344 36.460938 -38.027344 36.359375 -38.230469 C 36.210938 -38.582031 36.257812 -39.035156 36.410156 -38.988281 C 36.511719 -38.9375 36.5625 -38.988281 36.613281 -39.035156 C 36.664062 -39.136719 36.714844 -39.136719 36.714844 -38.9375 C 36.714844 -38.785156 36.664062 -38.53125 36.613281 -38.328125 Z M 36.816406 -35.148438 C 36.765625 -35.046875 36.765625 -35.046875 36.765625 -35.25 C 36.714844 -35.402344 36.765625 -35.453125 36.816406 -35.402344 C 36.867188 -35.351562 36.867188 -35.25 36.816406 -35.148438 Z M 37.015625 -34.136719 C 36.964844 -33.988281 36.917969 -33.9375 36.917969 -34.089844 C 36.917969 -34.1875 36.964844 -34.390625 37.015625 -34.542969 C 37.117188 -34.746094 37.167969 -34.746094 37.167969 -34.644531 C 37.167969 -34.492188 37.117188 -34.289062 37.015625 -34.136719 Z M 37.015625 -39.644531 C 36.917969 -39.59375 36.917969 -39.695312 36.964844 -39.945312 C 37.117188 -40.449219 37.167969 -40.5 37.167969 -40.097656 C 37.167969 -39.894531 37.117188 -39.695312 37.015625 -39.644531 Z M 37.015625 -40.957031 C 36.917969 -40.804688 36.917969 -40.855469 36.964844 -41.15625 C 37.117188 -41.664062 37.167969 -41.765625 37.167969 -41.410156 C 37.167969 -41.257812 37.117188 -41.058594 37.015625 -40.957031 Z M 37.269531 -40.652344 C 37.21875 -40.550781 37.21875 -40.550781 37.21875 -40.753906 C 37.21875 -40.855469 37.21875 -40.957031 37.269531 -40.90625 C 37.320312 -40.855469 37.320312 -40.753906 37.269531 -40.652344 Z M 37.574219 -42.371094 C 37.472656 -42.371094 37.421875 -42.472656 37.472656 -42.722656 C 37.523438 -42.976562 37.574219 -42.976562 37.671875 -42.875 C 37.722656 -42.773438 37.773438 -42.621094 37.773438 -42.523438 C 37.773438 -42.421875 37.722656 -42.371094 37.574219 -42.371094 Z M 38.785156 -45.449219 C 38.683594 -45.097656 38.230469 -44.894531 38.230469 -45.199219 C 38.230469 -45.5 38.429688 -45.753906 38.582031 -45.703125 C 38.632812 -45.652344 38.734375 -45.703125 38.734375 -45.753906 C 38.734375 -45.855469 38.734375 -45.90625 38.785156 -45.855469 C 38.835938 -45.804688 38.835938 -45.652344 38.785156 -45.449219 Z M 35.046875 -57.722656 C 36.308594 -59.136719 36.5625 -59.390625 36.5625 -59.289062 C 36.5625 -59.238281 36.109375 -58.683594 35.503906 -57.976562 C 34.894531 -57.316406 34.390625 -56.761719 34.339844 -56.761719 C 34.289062 -56.761719 34.644531 -57.167969 35.046875 -57.722656 Z M 32.320312 -54.339844 C 32.574219 -54.691406 32.824219 -54.996094 32.875 -54.996094 C 32.875 -54.996094 32.722656 -54.691406 32.472656 -54.339844 C 32.21875 -54.035156 31.96875 -53.734375 31.917969 -53.734375 C 31.867188 -53.734375 32.066406 -54.035156 32.320312 -54.339844 Z M 30.351562 -52.46875 C 30.453125 -52.621094 30.601562 -52.722656 30.601562 -52.722656 C 30.652344 -52.671875 30.554688 -52.519531 30.402344 -52.371094 C 30.148438 -52.167969 30.148438 -52.167969 30.351562 -52.46875 Z M 29.894531 -51.914062 C 29.945312 -52.015625 30.097656 -52.117188 30.148438 -52.117188 C 30.199219 -52.117188 30.148438 -52.015625 30.046875 -51.914062 C 29.894531 -51.761719 29.796875 -51.664062 29.746094 -51.664062 C 29.695312 -51.664062 29.796875 -51.761719 29.894531 -51.914062 Z M 29.238281 -51.003906 C 29.492188 -51.207031 29.492188 -51.15625 29.238281 -50.90625 C 29.140625 -50.753906 29.039062 -50.601562 28.988281 -50.601562 C 28.988281 -50.550781 28.9375 -50.601562 28.9375 -50.652344 C 28.9375 -50.753906 29.089844 -50.90625 29.238281 -51.003906 Z M 30.046875 -51.359375 C 31.058594 -52.621094 30.855469 -52.167969 29.796875 -50.753906 C 29.238281 -49.996094 28.683594 -49.339844 28.53125 -49.1875 C 28.28125 -48.933594 29.289062 -50.398438 30.046875 -51.359375 Z M 27.726562 -49.136719 C 27.976562 -49.492188 28.230469 -49.742188 28.28125 -49.742188 C 28.332031 -49.742188 28.128906 -49.492188 27.875 -49.136719 C 27.625 -48.785156 27.371094 -48.53125 27.320312 -48.53125 C 27.269531 -48.53125 27.472656 -48.785156 27.726562 -49.136719 Z M 24.140625 -44.035156 C 24.441406 -44.441406 24.59375 -44.492188 24.390625 -44.136719 C 24.289062 -43.984375 24.140625 -43.835938 24.039062 -43.734375 C 23.988281 -43.734375 23.988281 -43.835938 24.140625 -44.035156 Z M 23.535156 -43.179688 C 23.835938 -43.632812 23.988281 -43.683594 23.785156 -43.277344 C 23.683594 -43.128906 23.535156 -42.976562 23.433594 -42.925781 C 23.382812 -42.875 23.382812 -42.976562 23.535156 -43.179688 Z M 22.625 -41.863281 C 23.128906 -42.671875 23.484375 -43.027344 23.027344 -42.269531 C 22.875 -41.964844 22.625 -41.5625 22.472656 -41.410156 C 22.320312 -41.257812 22.421875 -41.460938 22.625 -41.863281 Z M 21.511719 -41.410156 C 21.5625 -41.460938 21.613281 -41.410156 21.5625 -41.308594 C 21.460938 -41.058594 21.363281 -41.007812 21.363281 -41.207031 C 21.363281 -41.308594 21.414062 -41.410156 21.511719 -41.410156 Z M 19.898438 -37.371094 C 20.199219 -37.925781 20.453125 -38.328125 20.503906 -38.328125 C 20.554688 -38.328125 20.351562 -37.925781 20.046875 -37.371094 C 19.746094 -36.867188 19.441406 -36.410156 19.441406 -36.410156 C 19.390625 -36.410156 19.59375 -36.867188 19.898438 -37.371094 Z M 17.222656 -31.359375 C 19.542969 -35.753906 19.847656 -36.308594 20.503906 -37.371094 C 20.855469 -37.875 21.511719 -38.9375 21.96875 -39.742188 C 22.421875 -40.5 23.027344 -41.460938 23.28125 -41.816406 C 24.898438 -44.1875 25.753906 -45.5 26.007812 -45.90625 C 26.109375 -46.15625 26.410156 -46.5625 26.613281 -46.765625 C 26.816406 -46.964844 27.070312 -47.371094 27.21875 -47.621094 C 27.320312 -47.875 27.625 -48.226562 27.824219 -48.378906 C 28.078125 -48.582031 27.875 -48.226562 27.320312 -47.421875 C 26.816406 -46.714844 26.058594 -45.601562 25.65625 -44.996094 C 25.25 -44.339844 24.390625 -43.027344 23.683594 -42.015625 C 23.027344 -41.007812 21.816406 -39.035156 20.957031 -37.671875 C 20.148438 -36.257812 18.585938 -33.429688 17.421875 -31.410156 C 16.3125 -29.339844 15.402344 -27.726562 15.402344 -27.777344 C 15.402344 -27.824219 16.210938 -29.441406 17.222656 -31.359375 Z M 15.25 -27.472656 C 15.300781 -27.574219 15.402344 -27.625 15.402344 -27.523438 C 15.402344 -27.472656 15.300781 -27.320312 15.25 -27.21875 C 15.148438 -27.070312 15.101562 -27.070312 15.101562 -27.117188 C 15.101562 -27.21875 15.148438 -27.371094 15.25 -27.472656 Z M 18.078125 -53.53125 C 18.28125 -53.785156 18.28125 -53.785156 18.128906 -53.480469 C 17.878906 -53.027344 17.828125 -52.976562 17.828125 -53.125 C 17.828125 -53.226562 17.929688 -53.378906 18.078125 -53.53125 Z M 1.3125 -1.667969 C 1.261719 -1.515625 1.261719 -1.617188 1.261719 -1.867188 C 1.261719 -2.171875 1.261719 -2.273438 1.3125 -2.121094 C 1.363281 -2.019531 1.363281 -1.765625 1.3125 -1.667969 Z M 3.886719 -3.28125 C 3.9375 -3.179688 3.886719 -3.132812 3.789062 -3.132812 C 3.738281 -3.132812 3.636719 -3.179688 3.636719 -3.28125 C 3.636719 -3.332031 3.6875 -3.382812 3.6875 -3.382812 C 3.738281 -3.382812 3.839844 -3.332031 3.886719 -3.28125 Z M 3.636719 -7.828125 C 3.535156 -7.625 3.433594 -6.96875 3.433594 -6.414062 C 3.382812 -5 3.03125 -2.675781 2.878906 -2.523438 C 2.777344 -2.425781 2.726562 -2.121094 2.726562 -1.816406 C 2.675781 -0.757812 2.472656 -0.65625 2.375 -1.667969 C 2.171875 -3.132812 2.171875 -4.039062 2.472656 -5.65625 C 2.574219 -6.464844 2.675781 -7.222656 2.625 -7.324219 C 2.574219 -7.421875 2.675781 -7.574219 2.878906 -7.675781 C 3.03125 -7.726562 3.28125 -8.03125 3.433594 -8.332031 C 3.6875 -8.789062 3.738281 -8.789062 3.789062 -8.535156 C 3.789062 -8.332031 3.738281 -8.03125 3.636719 -7.828125 Z M 14.847656 -40.804688 C 14.695312 -40.703125 14.644531 -40.703125 14.542969 -40.804688 C 14.441406 -40.957031 14.746094 -41.15625 14.898438 -41.058594 C 14.949219 -41.007812 14.898438 -40.855469 14.847656 -40.804688 Z M 14.949219 -41.714844 C 15 -41.765625 15.101562 -41.714844 15.101562 -41.664062 C 15.101562 -41.5625 15 -41.511719 14.949219 -41.511719 C 14.746094 -41.511719 14.746094 -41.613281 14.949219 -41.714844 Z M 15.101562 -40.25 C 15 -40.148438 14.949219 -40.097656 14.949219 -40.199219 C 14.949219 -40.25 15 -40.449219 15.101562 -40.550781 C 15.148438 -40.652344 15.25 -40.703125 15.25 -40.601562 C 15.25 -40.550781 15.148438 -40.351562 15.101562 -40.25 Z M 16.917969 -45.300781 C 17.070312 -45.5 17.222656 -45.652344 17.222656 -45.601562 C 17.222656 -45.550781 17.070312 -45.300781 16.917969 -44.996094 C 16.765625 -44.691406 16.613281 -44.542969 16.613281 -44.644531 C 16.613281 -44.792969 16.765625 -45.046875 16.917969 -45.300781 Z M 16.3125 -47.621094 C 16.363281 -47.671875 16.414062 -47.621094 16.363281 -47.472656 C 16.261719 -47.269531 16.160156 -47.21875 16.160156 -47.421875 C 16.160156 -47.472656 16.210938 -47.570312 16.3125 -47.621094 Z M 15.757812 -46.765625 C 15.808594 -46.914062 15.90625 -46.964844 15.957031 -46.914062 C 16.007812 -46.914062 15.957031 -46.8125 15.855469 -46.714844 C 15.707031 -46.5625 15.707031 -46.5625 15.757812 -46.765625 Z M 15.855469 -43.027344 C 15.855469 -42.925781 15.757812 -42.875 15.707031 -42.875 C 15.503906 -42.875 15.503906 -42.976562 15.707031 -43.078125 C 15.757812 -43.128906 15.855469 -43.128906 15.855469 -43.027344 Z M 15.65625 -46.359375 C 15.707031 -46.359375 15.65625 -46.15625 15.605469 -46.007812 C 15.503906 -45.855469 15.25 -45.300781 15 -44.84375 C 14.746094 -44.390625 14.492188 -43.984375 14.441406 -43.984375 C 14.394531 -43.984375 14.292969 -43.984375 14.292969 -44.035156 C 14.292969 -44.238281 15.605469 -46.460938 15.65625 -46.359375 Z M 13.332031 -41.914062 C 13.433594 -42.269531 13.886719 -42.773438 13.886719 -42.523438 C 13.886719 -42.472656 13.734375 -42.21875 13.535156 -41.964844 C 13.230469 -41.613281 13.230469 -41.613281 13.332031 -41.914062 Z M 13.6875 -38.078125 C 13.6875 -37.773438 13.484375 -37.574219 13.332031 -37.722656 C 13.332031 -37.824219 13.382812 -37.976562 13.484375 -38.128906 C 13.6875 -38.378906 13.6875 -38.378906 13.6875 -38.078125 Z M 11.96875 -38.886719 C 12.273438 -38.886719 12.222656 -38.53125 11.96875 -38.429688 C 11.765625 -38.378906 11.714844 -38.230469 11.765625 -38.027344 C 11.816406 -37.875 11.816406 -37.671875 11.765625 -37.574219 C 11.566406 -37.320312 11.261719 -37.371094 11.261719 -37.625 C 11.261719 -38.078125 11.714844 -38.886719 11.96875 -38.886719 Z M 10.90625 -36.765625 C 10.957031 -36.964844 11.058594 -37.117188 11.109375 -37.117188 C 11.160156 -37.117188 11.210938 -36.964844 11.160156 -36.816406 C 11.058594 -36.410156 10.859375 -36.359375 10.90625 -36.765625 Z M 9.847656 -34.289062 C 9.898438 -34.289062 9.898438 -34.136719 9.847656 -34.039062 C 9.796875 -33.9375 9.746094 -33.988281 9.746094 -34.136719 C 9.746094 -34.289062 9.796875 -34.339844 9.847656 -34.289062 Z M 8.535156 -32.824219 C 8.585938 -32.976562 8.6875 -32.976562 8.6875 -32.925781 C 8.6875 -32.824219 8.585938 -32.675781 8.535156 -32.574219 C 8.433594 -32.472656 8.382812 -32.421875 8.382812 -32.472656 C 8.382812 -32.574219 8.433594 -32.722656 8.535156 -32.824219 Z M 5.351562 -21.96875 C 5.203125 -22.019531 5.300781 -22.523438 5.757812 -23.835938 C 6.109375 -24.847656 6.414062 -25.753906 6.515625 -25.90625 C 6.566406 -26.058594 6.867188 -26.816406 7.070312 -27.625 C 7.472656 -28.988281 8.230469 -30.554688 8.230469 -30.046875 C 8.230469 -29.644531 8.433594 -29.796875 8.636719 -30.300781 C 8.886719 -30.804688 8.789062 -31.109375 8.535156 -30.753906 C 8.382812 -30.601562 8.382812 -30.601562 8.382812 -30.855469 C 8.382812 -31.210938 9.292969 -33.429688 9.542969 -33.683594 C 9.746094 -33.835938 9.746094 -33.835938 9.644531 -33.53125 C 9.496094 -33.027344 9.847656 -33.332031 10.101562 -33.988281 C 10.300781 -34.441406 10.351562 -34.492188 10.152344 -34.542969 C 9.796875 -34.695312 10.300781 -35.753906 10.90625 -36.160156 L 11.363281 -36.460938 L 10.90625 -36.007812 C 10.503906 -35.550781 10.402344 -35.300781 10.65625 -35.300781 C 10.707031 -35.300781 10.453125 -34.542969 10.101562 -33.582031 C 9.039062 -30.804688 8.789062 -30.046875 8.886719 -29.894531 C 8.9375 -29.695312 8.128906 -27.472656 7.625 -26.5625 C 7.222656 -25.753906 6.667969 -24.289062 6.765625 -24.191406 C 6.867188 -24.039062 6.109375 -21.664062 5.707031 -20.855469 C 5.605469 -20.554688 5.453125 -20.351562 5.402344 -20.351562 C 5.203125 -20.351562 5.152344 -20.707031 5.300781 -21.210938 C 5.453125 -21.714844 5.453125 -21.867188 5.351562 -21.96875 Z M 5 -23.433594 C 5.101562 -23.582031 5.152344 -23.632812 5.152344 -23.484375 C 5.152344 -23.382812 5.101562 -23.179688 5 -23.078125 C 4.847656 -22.828125 4.847656 -23.027344 5 -23.433594 Z M 5.050781 -21.511719 C 5.203125 -21.5625 5.203125 -21.261719 5.050781 -20.957031 C 5.050781 -20.804688 4.949219 -20.753906 4.847656 -20.753906 C 4.695312 -20.753906 4.847656 -21.414062 5.050781 -21.511719 Z M 4.039062 -20.402344 C 4.089844 -20.402344 4.089844 -20.25 4.039062 -20.148438 C 3.988281 -20.046875 3.9375 -20.097656 3.9375 -20.25 C 3.9375 -20.402344 3.988281 -20.453125 4.039062 -20.402344 Z M 3.886719 -19.847656 C 3.9375 -19.847656 3.9375 -19.695312 3.886719 -19.59375 C 3.839844 -19.492188 3.789062 -19.542969 3.789062 -19.695312 C 3.789062 -19.847656 3.839844 -19.898438 3.886719 -19.847656 Z M 2.828125 -16.3125 C 2.878906 -16.261719 2.878906 -16.109375 2.828125 -16.058594 C 2.777344 -15.90625 2.726562 -15.957031 2.726562 -16.109375 C 2.726562 -16.261719 2.777344 -16.363281 2.828125 -16.3125 Z M 1.109375 -4.445312 C 1.160156 -7.070312 1.414062 -8.585938 1.816406 -8.6875 C 2.019531 -8.738281 2.121094 -8.835938 2.121094 -8.9375 C 2.121094 -9.242188 1.867188 -9.242188 1.765625 -8.988281 C 1.617188 -8.636719 1.71875 -9.445312 1.96875 -10.707031 C 2.625 -13.886719 4.242188 -19.644531 4.496094 -19.898438 C 4.546875 -19.949219 4.546875 -19.746094 4.496094 -19.492188 C 4.394531 -19.089844 4.394531 -19.039062 4.59375 -19.191406 C 4.746094 -19.292969 4.898438 -19.59375 4.949219 -19.847656 C 5.050781 -20.148438 5.101562 -20.300781 5.203125 -20.199219 C 5.300781 -20.097656 5.253906 -19.847656 5.152344 -19.492188 C 4.796875 -18.535156 4.695312 -18.128906 4.847656 -18.128906 C 4.949219 -18.128906 4.949219 -17.929688 4.847656 -17.675781 C 4.746094 -17.421875 4.546875 -16.765625 4.34375 -16.210938 C 4.140625 -15.65625 3.789062 -14.695312 3.585938 -14.191406 C 3.132812 -13.078125 2.828125 -10.707031 3.132812 -10.707031 C 3.382812 -10.707031 3.6875 -11.414062 3.6875 -11.867188 C 3.636719 -12.070312 3.789062 -12.523438 3.9375 -12.777344 C 4.089844 -13.078125 4.140625 -13.332031 4.089844 -13.433594 C 3.988281 -13.484375 3.988281 -13.734375 4.039062 -13.9375 C 4.140625 -14.292969 4.191406 -14.292969 4.292969 -14.039062 C 4.394531 -13.835938 4.394531 -13.886719 4.34375 -14.191406 C 4.242188 -14.59375 4.644531 -16.3125 4.949219 -16.613281 C 5.050781 -16.714844 5.152344 -16.867188 5.050781 -16.917969 C 5 -16.96875 5.050781 -17.019531 5.152344 -17.019531 C 5.253906 -17.019531 5.300781 -17.121094 5.300781 -17.269531 C 5.300781 -17.421875 5.453125 -17.625 5.605469 -17.777344 C 5.960938 -18.128906 6.3125 -19.898438 6.109375 -20.046875 C 5.960938 -20.097656 5.960938 -20.300781 6.160156 -20.65625 C 6.261719 -20.957031 6.414062 -21.460938 6.464844 -21.765625 C 6.515625 -22.070312 6.714844 -22.675781 6.867188 -23.078125 C 6.96875 -23.484375 7.421875 -24.644531 7.777344 -25.703125 C 8.128906 -26.714844 8.433594 -27.574219 8.484375 -27.574219 C 8.484375 -27.625 8.6875 -27.472656 8.9375 -27.269531 C 9.191406 -27.070312 9.292969 -26.917969 9.191406 -26.917969 C 9.039062 -26.917969 8.835938 -26.363281 8.585938 -25.351562 C 8.484375 -25.046875 8.484375 -25.046875 8.738281 -25.351562 C 8.886719 -25.503906 8.988281 -25.703125 8.988281 -25.804688 C 8.988281 -25.957031 9.140625 -26.3125 9.292969 -26.613281 C 9.695312 -27.371094 9.898438 -28.484375 9.59375 -28.433594 C 9.496094 -28.382812 9.34375 -28.53125 9.292969 -28.785156 C 9.140625 -29.1875 9.191406 -29.289062 9.542969 -30.148438 C 9.59375 -30.300781 9.644531 -30.503906 9.644531 -30.554688 C 9.644531 -30.601562 9.796875 -30.703125 10 -30.855469 C 10.152344 -30.957031 10.199219 -31.007812 10.050781 -30.957031 C 9.898438 -30.90625 9.898438 -30.957031 9.949219 -31.308594 C 10.050781 -31.816406 10.503906 -32.371094 10.503906 -32.015625 C 10.503906 -31.96875 10.554688 -31.867188 10.65625 -31.867188 C 10.757812 -31.867188 10.808594 -31.96875 10.808594 -32.066406 C 10.808594 -32.21875 10.757812 -32.269531 10.65625 -32.269531 C 10.554688 -32.269531 10.503906 -32.371094 10.503906 -32.472656 C 10.503906 -32.625 10.554688 -32.675781 10.65625 -32.625 C 10.808594 -32.574219 10.808594 -32.625 10.757812 -32.824219 C 10.707031 -32.976562 10.808594 -33.332031 11.007812 -33.734375 C 11.261719 -34.136719 11.414062 -34.289062 11.414062 -34.1875 C 11.414062 -33.734375 11.664062 -33.9375 11.96875 -34.492188 C 12.222656 -35.148438 12.222656 -35.25 11.96875 -35.097656 C 11.566406 -34.996094 11.917969 -35.453125 12.371094 -35.652344 C 12.878906 -35.90625 12.878906 -35.90625 12.574219 -36.210938 C 12.371094 -36.359375 12.371094 -36.410156 12.574219 -36.765625 L 12.777344 -37.167969 L 12.777344 -36.5625 L 12.828125 -35.957031 L 13.078125 -36.460938 C 13.230469 -36.765625 13.535156 -37.320312 13.734375 -37.671875 C 13.886719 -38.078125 14.089844 -38.328125 14.089844 -38.28125 C 14.191406 -38.230469 13.9375 -37.671875 13.027344 -35.957031 C 12.675781 -35.25 12.320312 -34.542969 12.273438 -34.390625 C 12.222656 -34.238281 12.070312 -34.089844 11.96875 -34.089844 C 11.867188 -34.089844 11.867188 -34.039062 11.96875 -33.9375 C 12.222656 -33.835938 12.019531 -32.625 11.566406 -31.917969 L 11.261719 -31.410156 L 11.363281 -32.015625 C 11.414062 -32.472656 11.363281 -32.722656 11.210938 -32.925781 C 11.007812 -33.128906 10.957031 -33.179688 10.957031 -32.925781 C 10.957031 -32.824219 11.007812 -32.675781 11.109375 -32.675781 C 11.3125 -32.675781 11.160156 -32.066406 10.808594 -31.410156 C 10.453125 -30.703125 10.503906 -30.402344 10.90625 -30.855469 C 11.109375 -31.109375 11.109375 -31.109375 11.058594 -30.855469 C 11.007812 -30.703125 10.957031 -30.554688 10.957031 -30.503906 C 10.957031 -30.402344 10.859375 -30.351562 10.757812 -30.402344 C 10.65625 -30.402344 10.503906 -30.300781 10.402344 -30.046875 C 10.152344 -29.59375 10.300781 -29.339844 10.503906 -29.695312 C 10.808594 -29.996094 10.65625 -29.59375 9.089844 -25.351562 C 8.484375 -23.683594 8.03125 -22.167969 8.03125 -22.070312 C 8.03125 -21.917969 7.980469 -21.714844 7.878906 -21.613281 C 7.828125 -21.511719 7.523438 -20.804688 7.273438 -20 C 6.917969 -19.089844 6.714844 -18.585938 6.566406 -18.585938 C 6.414062 -18.585938 6.3125 -18.535156 6.261719 -18.382812 C 6.210938 -18.28125 6.261719 -18.230469 6.414062 -18.28125 C 6.765625 -18.382812 6.765625 -18.28125 6.464844 -17.523438 C 6.363281 -17.222656 6.160156 -16.5625 6.007812 -16.109375 C 5.910156 -15.65625 5.554688 -14.542969 5.253906 -13.585938 C 4.59375 -11.566406 4.089844 -9.847656 4.089844 -9.445312 C 4.089844 -9.242188 3.332031 -8.835938 3.132812 -8.988281 C 3.132812 -9.039062 3.132812 -9.34375 3.132812 -9.746094 C 3.230469 -10.25 3.179688 -10.402344 2.980469 -10.402344 C 2.675781 -10.402344 2.273438 -9.039062 2.222656 -7.828125 C 2.171875 -7.222656 2.070312 -6.566406 1.917969 -6.363281 C 1.816406 -6.109375 1.617188 -5.65625 1.515625 -5.253906 C 1.414062 -4.898438 1.261719 -4.089844 1.210938 -3.484375 C 1.109375 -2.625 1.109375 -2.828125 1.109375 -4.445312 Z M 1.109375 -4.445312 "/></g></g></g></svg>